<?xml version="1.0" encoding="utf-8"?>
<!-- Generator: Adobe Illustrator 27.2.0, SVG Export Plug-In . SVG Version: 6.00 Build 0)  -->
<svg version="1.1"
	 id="svg2" xmlns:rdf="http://www.w3.org/1999/02/22-rdf-syntax-ns#" xmlns:svg="http://www.w3.org/2000/svg" xmlns:cc="http://creativecommons.org/ns#" xmlns:dc="http://purl.org/dc/elements/1.1/"
	 xmlns="http://www.w3.org/2000/svg" xmlns:xlink="http://www.w3.org/1999/xlink" x="0px" y="0px" viewBox="0 0 647.5 354.4"
	 style="enable-background:new 0 0 647.5 354.4;" xml:space="preserve">
<style type="text/css">
	.st0{fill:#AB183B;}
	.st1{fill-rule:evenodd;clip-rule:evenodd;fill:#FFFFFF;}
</style>
<g id="g12" transform="scale(0.1)">
	<path id="path14" class="st0" d="M6274.5,1693.6h-59.4l-33.1,156.6h-23.4l33.1-156.6h-59.2l4.2-19.8h142.2L6274.5,1693.6"/>
	<path id="path16" class="st0" d="M6298.2,1673.8h32.6l23.5,151.7h0.5l87.2-151.7h32.6l-37.3,176.4h-22.5l36-154.5h-0.6l-90,154.5
		H6338l-23-154.5h-0.5l-30.9,154.5h-22.5L6298.2,1673.8"/>
	<path id="path18" class="st1" d="M632.9,307.7C724,137.8,935.5,0,1105.5,0h1190.3l-797.8,1508.6H0L632.9,307.7"/>
	<path id="path20" class="st1" d="M3065.8,755.8c64.3-120,213.7-217.3,333.7-217.3h814.2l-392.9,753
		c-64.3,120-213.7,217.3-333.7,217.3h-814.1L3065.8,755.8"/>
	<path id="path22" class="st1" d="M4430.5,118.2c34.1-63.6,113.2-115.1,176.8-115.1h426l-228.2,426
		c-34.1,63.6-113.3,115.1-176.9,115.1h-426L4430.5,118.2"/>
	<path id="path24" class="st1" d="M1497.9,1508.6h1176.9l-629,1173.9H869L1497.9,1508.6"/>
	<path id="path26" class="st1" d="M2045.9,2682.3H2871L2495.1,3384c-47.3,88.2-157.2,159.7-245.4,159.7h-665.4L2045.9,2682.3"/>
	<path id="path28" class="st0" d="M5558.1,2258.1l-90.9,170.9c-24.7,46.6-82.7,84.4-129.3,84.4h-112.7l242.4-456l73.2-138
		c103.7-203,230.9-247,379.2-247c167.4,0,188.7,110.9,115.9,247.7l-5.2,9.6l-63.5,119.5l-4,8c-60.3,113.4-220,205.3-356.9,205.3
		C5589.1,2262.4,5572.9,2260.9,5558.1,2258.1L5558.1,2258.1z M5746.1,1905.3l-9.3,16.7l-84.4,158.9h33.4
		c37.4,0,83.7-30.2,103.5-67.5l57.7-108c14.8-27.9,4.3-50.5-23.6-50.5C5795.5,1854.7,5760.9,1877.3,5746.1,1905.3L5746.1,1905.3z
		 M4013.6,1880.7l-236.9,444.4l-1.7,3.3c-59.6,112.1-216.6,203-350.7,203c-134,0-194.3-90.7-134.9-202.7l240.7-451.5
		c59.7-112,216.6-202.8,350.6-202.8c134.1,0,194.4,90.9,134.8,203L4013.6,1880.7z M3505.4,2299.9c-14.8,27.9-4.2,50.5,23.6,50.5
		c27.9,0,62.5-22.6,77.4-50.5l210-393.6c14.8-27.9,4.2-50.5-23.7-50.5c-27.9,0-62.5,22.6-77.4,50.5L3505.4,2299.9z M4930.9,1880.7
		L4694,2325.1l-1.7,3.3c-59.7,112.1-216.6,203-350.7,203c-133.9,0-194.3-90.7-134.8-202.7l240.7-451.5
		c59.7-112,216.6-202.8,350.6-202.8c134.1,0,194.4,90.9,134.8,203L4930.9,1880.7z M4414.2,2299.9c-14.8,27.9-4.2,50.5,23.7,50.5
		c27.8,0,62.4-22.6,77.3-50.5l209.9-393.6c14.8-27.9,4.2-50.5-23.7-50.5c-27.9,0-62.5,22.6-77.3,50.5L4414.2,2299.9z M5491.7,1878.7
		l-71,133.5h-192.2l57.4-108c14.9-27.9,4.3-50.5-23.7-50.5c-27.9,0-62.5,22.6-77.3,50.5l-193.1,363.2l-17.2,32.3
		c-14.8,27.9-4.3,50.5,23.6,50.5c27.8,0,62.5-18.1,92.4-79.1l26.1-49.2h-48.6l77.4-145.1h240.8l-132,248.2l-1.8,3.3
		c-59.5,112.1-216.5,203-350.6,203c-133.9,0-194.4-90.7-134.9-202.7l32.5-61.2l208.6-392.3c59.6-112,216.5-202.8,350.5-202.8
		c134,0,194.4,90.9,134.8,203L5491.7,1878.7z M3137.8,1914.4l-3.5,7.9l-93.5,175.9l-175.3,329.5c-14.8,27.8-41.2,52.5-70.1,68
		c-19.9,10.7-41.1,17.1-60.4,17.1h-113.7l220.5-414.7l97.8-183.8c0.6-2.3,1.9-4.7,3.3-7.1c9.6-24.7-1.6-43.7-27.2-43.7
		c-28.2,0-63.1,22.7-78.1,50.8l-97.7,183.8l-175.2,329.6c-25,47-83.4,85.2-130.5,85.2h-113.7l318.3-598.6
		c67.9-139.9,148.4-235.4,378.4-235.4h300.2c114.8,0,210.3,67,121.2,235.5l-272.9,513.3c-25,47-83.4,85.2-130.5,85.2h-113.8
		l220.5-414.7l97.7-183.7c15-28.1,4.3-50.9-23.9-50.9C3187.8,1863.4,3152.8,1886.2,3137.8,1914.4L3137.8,1914.4z M4280.4,1883.1
		l-225.9,424.9c-14.8,27.9,3.8,47.9,31.5,50.5c20.4,1.9,41.7-0.3,69.7-11.4l-91.3,171.1c-31.5,8.6-48.9,13.4-79.5,13.4
		c-134,0-196.4-90.3-137-202.3l379.8-714.1c24.7-46.6,82.7-84.4,129.3-84.4h110.6l-89.2,168.2h114.7l-98,184.4L4280.4,1883.1"/>
</g>
</svg>
