<svg id="flags" xmlns="http://www.w3.org/2000/svg" viewBox="0 0 162 116"><defs><style>.cls-1{fill:#74acdf;}.cls-2{fill:#efefef;}.cls-3{fill:#f6b40e;}.cls-4{fill:#85340a;}.cls-5{fill:#843511;}</style></defs><title>arg</title><g id="ARGENTINA"><rect class="cls-1" y="7.38" width="162" height="101.25"/><rect class="cls-2" y="41.13" width="162" height="33.75"/><g id="rays"><path id="ray1" class="cls-3" d="M80.36,58.27l5.76,12.55s.1.24.26.17.06-.3.06-.3l-4.8-12.95m-.14,4.88c-.07,1.91,1.11,3,1,4.66s.79,2.67,1,3.34-.23,1.06,0,1.15.62-.43.49-1.37-.86-1.23-.69-3.31-.85-2.56-.6-4.46"/><path class="cls-4" d="M83.46,71.89l-.1,0c-.17-.08-.11-.26-.06-.41a1.17,1.17,0,0,0,0-.81,5.22,5.22,0,0,0-.29-.59,4.61,4.61,0,0,1-.72-2.79,4.81,4.81,0,0,0-.44-2.21,5.89,5.89,0,0,1-.51-2.44h.22a5.9,5.9,0,0,0,.5,2.36,4.93,4.93,0,0,1,.45,2.31A4.48,4.48,0,0,0,83.25,70a4,4,0,0,1,.31.63,1.39,1.39,0,0,1,0,1,.46.46,0,0,0,0,.13.11.11,0,0,0,.07,0,1.46,1.46,0,0,0,.23-1.2,2.64,2.64,0,0,0-.27-.79,4.23,4.23,0,0,1-.41-2.54,5.07,5.07,0,0,0-.33-2.24,5,5,0,0,1-.32-1.74l-2.19-4.79.2-.09,2,4.42v0l.23,0c0,.15,0,.28,0,.41l3.54,7.72s.07.14.12.12v0s0-.11,0-.14l-4.81-13,.22-.07,4.8,13a.48.48,0,0,1,0,.31.24.24,0,0,1-.14.14.26.26,0,0,1-.31-.1.36.36,0,0,1-.09-.14l-3.31-7.22A5.5,5.5,0,0,0,83,64.77a5.28,5.28,0,0,1,.33,2.33,4.11,4.11,0,0,0,.39,2.42,2.82,2.82,0,0,1,.3.86,1.57,1.57,0,0,1-.36,1.44A.28.28,0,0,1,83.46,71.89Z"/><path id="ray1-2" data-name="ray1" class="cls-3" d="M80.31,58l.52,13.8s0,.26.17.26.17-.26.17-.26L81.69,58m-2,4.46c-.8,1.74-.12,3.16-.91,4.67s-.3,2.77-.35,3.46-.62.89-.48,1,.74-.15,1-1.08-.32-1.45.63-3.31.2-2.7,1.15-4.36"/><path class="cls-4" d="M81,72.18c-.2,0-.29-.2-.29-.38l-.29-7.93A5.16,5.16,0,0,0,80.25,65a5.4,5.4,0,0,1-.59,2.29,4.06,4.06,0,0,0-.56,2.38,3.17,3.17,0,0,1-.06.91,1.57,1.57,0,0,1-.88,1.2.28.28,0,0,1-.28-.07c-.13-.14,0-.29.1-.4a1.25,1.25,0,0,0,.35-.73,5.76,5.76,0,0,0,0-.66,4.46,4.46,0,0,1,.4-2.85,4.81,4.81,0,0,0,.44-2.21,6.16,6.16,0,0,1,.46-2.46l.21.1a5.81,5.81,0,0,0-.45,2.37,4.86,4.86,0,0,1-.46,2.3,4.31,4.31,0,0,0-.38,2.72,3.56,3.56,0,0,1,0,.7,1.41,1.41,0,0,1-.4.87l-.09.1s0,0,.08,0a1.41,1.41,0,0,0,.68-1,2.37,2.37,0,0,0,.05-.84,4.37,4.37,0,0,1,.59-2.5A5.15,5.15,0,0,0,80,65a4.6,4.6,0,0,1,.37-1.72L80.19,58h.23l.18,4.85,0,0,.19.11c-.07.13-.14.25-.19.37l.32,8.49S81,72,81,72s.06-.12.06-.15L81.58,58h.22l-.51,13.81a1.54,1.54,0,0,1,0,.16A.28.28,0,0,1,81,72.18Z"/><path id="ray1-3" data-name="ray1" class="cls-3" d="M80.36,57.74l-4.8,12.95s-.1.24.06.3.26-.17.26-.17l5.76-12.55m-3.55,3.35c-1.4,1.3-1.31,2.87-2.63,4S74.13,68,73.81,68.65s-.91.59-.84.79.74.14,1.31-.63.26-1.47,1.85-2.82,1.22-2.42,2.73-3.58"/><path class="cls-4" d="M75.67,71.12l-.1,0a.33.33,0,0,1-.12-.46l2.76-7.44a5.62,5.62,0,0,0-.59,1,5.42,5.42,0,0,1-1.41,1.89,4.05,4.05,0,0,0-1.44,2,3,3,0,0,1-.4.81,1.57,1.57,0,0,1-1.27.77.3.3,0,0,1-.24-.17c-.06-.18.11-.26.25-.33a1.14,1.14,0,0,0,.6-.55,3.34,3.34,0,0,0,.22-.62,4.48,4.48,0,0,1,1.46-2.47,4.81,4.81,0,0,0,1.25-1.88A6,6,0,0,1,78,61.54l.15.16a5.86,5.86,0,0,0-1.31,2,5,5,0,0,1-1.32,2A4.4,4.4,0,0,0,74.14,68a3.71,3.71,0,0,1-.23.67,1.41,1.41,0,0,1-.7.64l-.12.06a.13.13,0,0,0,.08,0h0a1.44,1.44,0,0,0,1-.68,3,3,0,0,0,.37-.76,4.29,4.29,0,0,1,1.5-2.08,5.19,5.19,0,0,0,1.36-1.82,4.77,4.77,0,0,1,1-1.46l1.83-4.93.22.07-1.69,4.56h0l.13.18a2.66,2.66,0,0,0-.31.26l-3,8s0,.14,0,.16.1-.09.11-.11l5.77-12.56.2.09L76,70.87a.55.55,0,0,1-.21.23Z"/><path id="ray1-4" data-name="ray1" class="cls-3" d="M80.51,57.51,71.12,67.64s-.19.18-.06.3.3-.06.3-.06l10.13-9.39m-4.57,1.74c-1.79.67-2.31,2.15-3.94,2.66s-2.17,1.75-2.7,2.2-1.07.19-1.08.41.64.41,1.45-.08.81-1.26,2.79-1.9,2-1.77,3.9-2.27"/><path class="cls-4" d="M71.15,68.1A.25.25,0,0,1,71,68a.32.32,0,0,1,.06-.46l5.4-5.83a6.11,6.11,0,0,0-.93.7,5.35,5.35,0,0,1-2,1.2,4.07,4.07,0,0,0-2.09,1.29,3.35,3.35,0,0,1-.68.6,1.56,1.56,0,0,1-1.47.22.28.28,0,0,1-.15-.25c0-.19.2-.2.36-.21a1.16,1.16,0,0,0,.76-.27,6,6,0,0,0,.44-.49A4.49,4.49,0,0,1,73,62.79a5,5,0,0,0,1.87-1.25,6,6,0,0,1,2.06-1.41l.08.21a5.79,5.79,0,0,0-2,1.36A4.92,4.92,0,0,1,73,63a4.34,4.34,0,0,0-2.19,1.66,4.21,4.21,0,0,1-.46.52,1.37,1.37,0,0,1-.9.32l-.14,0a.19.19,0,0,0,.08,0,1.41,1.41,0,0,0,1.2-.24,2.59,2.59,0,0,0,.63-.56,4.31,4.31,0,0,1,2.18-1.35,5,5,0,0,0,2-1.16,4.79,4.79,0,0,1,1.49-1l3.58-3.86.16.16-3.3,3.56h0l.06.22a3.56,3.56,0,0,0-.39.13L71.2,67.71s-.1.12-.06.15.13,0,.14-.06l10.13-9.39.16.16L71.44,68a.42.42,0,0,1-.13.1A.34.34,0,0,1,71.15,68.1Z"/><path id="ray2" class="cls-4" d="M81.87,62.94c.09,1.84,1.13,2.65.93,4.32.45-1.32-.63-2.35-.57-4.3m-1.55-4.81,3.95,8.62-3.31-8.88"/><path id="ray2-2" data-name="ray2" class="cls-4" d="M79.91,62.9c-.61,1.73,0,2.88-.79,4.34.92-1,.31-2.41,1.12-4.19m.41-5L81,67.49,81.34,58"/><path id="ray2-3" data-name="ray2" class="cls-4" d="M78.12,62.11c-1.23,1.36-1.07,2.67-2.39,3.71,1.25-.62,1.21-2.11,2.63-3.44m2.31-4.5-3.31,8.89,4-8.62"/><path id="ray2-4" data-name="ray2" class="cls-4" d="M76.77,60.7c-1.66.78-2,2.06-3.64,2.51,1.4-.1,1.93-1.49,3.76-2.18m3.85-3.27-6.46,6.95,7-6.46"/></g><g id="rays-2" data-name="rays"><path id="ray1-5" data-name="ray1" class="cls-3" d="M80.73,57.36,68.18,63.12s-.24.1-.17.26.3.06.3.06l13-4.8m-4.88-.14c-1.91-.07-3,1.11-4.66,1s-2.67.79-3.34,1-1.06-.23-1.15,0,.43.62,1.37.49,1.23-.86,3.31-.69,2.56-.85,4.46-.6"/><path class="cls-4" d="M68.16,63.58a.26.26,0,0,1-.26-.16c-.07-.18.07-.33.24-.4l7.22-3.31a5.5,5.5,0,0,0-1.13.28,5.28,5.28,0,0,1-2.33.33,4.11,4.11,0,0,0-2.42.39,2.82,2.82,0,0,1-.86.3,1.54,1.54,0,0,1-1.44-.36.28.28,0,0,1-.05-.29c.08-.17.26-.11.41-.06a1.17,1.17,0,0,0,.81.05,5.22,5.22,0,0,0,.59-.29,4.52,4.52,0,0,1,2.79-.72,4.81,4.81,0,0,0,2.21-.44,6.05,6.05,0,0,1,2.44-.51v.22a5.9,5.9,0,0,0-2.36.5,4.93,4.93,0,0,1-2.31.45,4.48,4.48,0,0,0-2.66.69,4,4,0,0,1-.63.31,1.39,1.39,0,0,1-1,0l-.13,0a.11.11,0,0,0,0,.07,1.46,1.46,0,0,0,1.2.23,2.64,2.64,0,0,0,.79-.27,4.23,4.23,0,0,1,2.54-.41,5.07,5.07,0,0,0,2.24-.33,5,5,0,0,1,1.74-.32l4.79-2.19.09.2-4.42,2h0l0,.23-.41,0-7.72,3.54s-.14.07-.12.12,0,0,.07,0a.22.22,0,0,0,.09,0l13-4.81.07.22-13,4.8a.45.45,0,0,1-.16,0Z"/><path id="ray1-6" data-name="ray1" class="cls-3" d="M81,57.31l-13.8.52s-.26,0-.26.17.26.17.26.17l13.8.52m-4.46-2c-1.74-.8-3.16-.12-4.67-.91s-2.77-.3-3.46-.35-.89-.62-1-.48.15.74,1.08,1,1.45-.32,3.31.63,2.7.2,4.36,1.15"/><path class="cls-4" d="M81,58.8l-13.81-.51-.16,0a.28.28,0,0,1-.21-.26c0-.2.2-.29.38-.29h0l7.93-.29A5.16,5.16,0,0,0,74,57.25a5.4,5.4,0,0,1-2.29-.59,4.06,4.06,0,0,0-2.38-.56,3.17,3.17,0,0,1-.91-.06,1.57,1.57,0,0,1-1.2-.88.28.28,0,0,1,.07-.28c.14-.13.29,0,.4.1a1.25,1.25,0,0,0,.73.35,5.76,5.76,0,0,0,.66,0,4.46,4.46,0,0,1,2.85.4,4.81,4.81,0,0,0,2.21.44,6.16,6.16,0,0,1,2.46.46l-.1.21a5.81,5.81,0,0,0-2.37-.45,4.86,4.86,0,0,1-2.3-.46,4.31,4.31,0,0,0-2.72-.38,3.56,3.56,0,0,1-.7,0,1.41,1.41,0,0,1-.87-.4l-.1-.09a.15.15,0,0,0,0,.08,1.41,1.41,0,0,0,1,.68,2.37,2.37,0,0,0,.84,0,4.37,4.37,0,0,1,2.5.59A5.15,5.15,0,0,0,74,57a4.6,4.6,0,0,1,1.72.37l5.27-.2v.23l-4.85.18,0,0-.11.19c-.13-.07-.25-.14-.37-.19l-8.49.32s-.15,0-.15.06,0,0,0,0l.1,0,13.8.52Z"/><path id="ray1-7" data-name="ray1" class="cls-3" d="M81.26,57.36l-13-4.8s-.24-.1-.3.06.17.26.17.26l12.55,5.76m-3.35-3.55c-1.3-1.4-2.87-1.31-4-2.63S71,51.13,70.35,50.81s-.59-.91-.79-.84-.14.74.63,1.31,1.47.26,2.82,1.85,2.42,1.22,3.58,2.73"/><path class="cls-4" d="M80.69,58.74,68.13,53a.55.55,0,0,1-.23-.21.34.34,0,0,1,0-.2.33.33,0,0,1,.46-.12l7.44,2.76a5.62,5.62,0,0,0-1-.59,5.42,5.42,0,0,1-1.89-1.41,4.05,4.05,0,0,0-2-1.44,2.91,2.91,0,0,1-.81-.4,1.59,1.59,0,0,1-.77-1.27.3.3,0,0,1,.17-.24c.18-.06.26.11.33.25a1.14,1.14,0,0,0,.55.6,3.34,3.34,0,0,0,.62.22,4.48,4.48,0,0,1,2.47,1.46,4.81,4.81,0,0,0,1.88,1.25A6,6,0,0,1,77.46,55l-.16.15a5.86,5.86,0,0,0-2-1.31,5,5,0,0,1-2-1.32A4.4,4.4,0,0,0,71,51.14a3.71,3.71,0,0,1-.67-.23,1.41,1.41,0,0,1-.64-.7l-.06-.12a.13.13,0,0,0,0,.08,1.45,1.45,0,0,0,.68,1,3,3,0,0,0,.76.37,4.29,4.29,0,0,1,2.08,1.5,5.19,5.19,0,0,0,1.82,1.36,4.77,4.77,0,0,1,1.46,1l4.93,1.83-.07.22-4.56-1.69v0l-.18.13a2.66,2.66,0,0,0-.26-.31l-8-3s-.14,0-.16,0,.09.1.11.11l12.56,5.77Z"/><path id="ray1-8" data-name="ray1" class="cls-3" d="M81.49,57.51,71.36,48.12s-.18-.19-.3-.06.06.3.06.3l9.39,10.13m-1.74-4.57c-.67-1.79-2.15-2.31-2.66-3.94s-1.75-2.17-2.2-2.7-.19-1.07-.41-1.08-.41.64.08,1.45,1.26.81,1.9,2.79,1.77,2.05,2.27,3.9"/><path class="cls-4" d="M80.43,58.57,71,48.44a.42.42,0,0,1-.1-.13A.27.27,0,0,1,71,48a.32.32,0,0,1,.46.06l5.83,5.4a6.11,6.11,0,0,0-.7-.93,5.35,5.35,0,0,1-1.2-2,4.07,4.07,0,0,0-1.29-2.09,3.35,3.35,0,0,1-.6-.68,1.56,1.56,0,0,1-.22-1.47.28.28,0,0,1,.25-.15c.19,0,.2.2.21.36a1.16,1.16,0,0,0,.27.76,6,6,0,0,0,.49.44A4.49,4.49,0,0,1,76.21,50a5,5,0,0,0,1.25,1.87,6,6,0,0,1,1.41,2.06l-.21.08a5.79,5.79,0,0,0-1.36-2A4.92,4.92,0,0,1,76,50a4.34,4.34,0,0,0-1.66-2.19,4.21,4.21,0,0,1-.52-.46,1.37,1.37,0,0,1-.32-.9s0-.1,0-.14a.19.19,0,0,0,0,.08,1.41,1.41,0,0,0,.24,1.2,2.81,2.81,0,0,0,.56.63,4.31,4.31,0,0,1,1.35,2.18,5,5,0,0,0,1.16,2,4.79,4.79,0,0,1,1,1.49l3.86,3.58-.16.16-3.56-3.3v0l-.22.06a3.56,3.56,0,0,0-.13-.39L71.29,48.2s-.12-.1-.15-.06,0,0,0,.06a.21.21,0,0,0,.06.08l9.39,10.13Z"/><path id="ray2-5" data-name="ray2" class="cls-4" d="M76.06,58.87c-1.84.09-2.65,1.13-4.32.93,1.32.45,2.35-.63,4.3-.57m4.81-1.55-8.62,4,8.88-3.31"/><path id="ray2-6" data-name="ray2" class="cls-4" d="M76.1,56.91c-1.73-.61-2.88,0-4.34-.79,1,.92,2.41.31,4.19,1.12m5,.41L71.51,58l9.47.35"/><path id="ray2-7" data-name="ray2" class="cls-4" d="M76.89,55.12c-1.36-1.23-2.67-1.07-3.71-2.39.62,1.25,2.11,1.21,3.44,2.63m4.5,2.31-8.89-3.31,8.62,4"/><path id="ray2-8" data-name="ray2" class="cls-4" d="M78.3,53.77c-.78-1.66-2.06-2-2.51-3.64.1,1.4,1.49,1.93,2.18,3.76m3.27,3.85-6.95-6.46,6.46,6.95"/></g><g id="rays-3" data-name="rays"><path id="ray1-9" data-name="ray1" class="cls-3" d="M81.64,57.73,75.88,45.18s-.1-.24-.26-.17-.06.3-.06.3l4.8,12.95m.14-4.88c.07-1.91-1.11-3-1-4.66s-.79-2.67-1-3.34.23-1.06,0-1.15-.62.43-.49,1.37.86,1.23.69,3.31.85,2.56.6,4.46"/><path class="cls-4" d="M80.26,58.3,75.45,45.35a.45.45,0,0,1,0-.16.27.27,0,0,1,.16-.29c.18-.07.33.07.4.24l3.31,7.22A5.5,5.5,0,0,0,79,51.23a5.28,5.28,0,0,1-.33-2.33,4.11,4.11,0,0,0-.39-2.42,2.82,2.82,0,0,1-.3-.86,1.57,1.57,0,0,1,.36-1.44.28.28,0,0,1,.29,0c.17.08.11.26.06.41a1.17,1.17,0,0,0,0,.81,5.22,5.22,0,0,0,.29.59,4.61,4.61,0,0,1,.72,2.79,4.81,4.81,0,0,0,.44,2.21,5.89,5.89,0,0,1,.51,2.44h-.22a5.9,5.9,0,0,0-.5-2.36,4.93,4.93,0,0,1-.45-2.31,4.48,4.48,0,0,0-.69-2.66,4,4,0,0,1-.31-.63,1.39,1.39,0,0,1,0-1,.46.46,0,0,0,0-.13.11.11,0,0,0-.07,0,1.46,1.46,0,0,0-.23,1.2,2.64,2.64,0,0,0,.27.79,4.23,4.23,0,0,1,.41,2.54,5.07,5.07,0,0,0,.33,2.24,5,5,0,0,1,.32,1.74l2.19,4.79-.2.09-2-4.42v0l-.23,0c0-.15,0-.28,0-.41l-3.54-7.72s-.07-.14-.12-.12,0,0,0,.07a.22.22,0,0,0,0,.09l4.81,13Z"/><path id="ray1-10" data-name="ray1" class="cls-3" d="M81.69,58l-.52-13.8s0-.26-.17-.26-.17.26-.17.26L80.31,58m2-4.46c.8-1.74.12-3.16.91-4.67s.3-2.77.35-3.46.62-.89.48-1-.74.15-1,1.08.32,1.45-.63,3.31-.2,2.7-1.15,4.36"/><path class="cls-4" d="M80.42,58H80.2l.51-13.81a1.54,1.54,0,0,1,0-.16.28.28,0,0,1,.26-.21h0c.2,0,.29.2.29.38l.29,7.93A5.16,5.16,0,0,0,81.75,51a5.4,5.4,0,0,1,.59-2.29,4.06,4.06,0,0,0,.56-2.38,3.17,3.17,0,0,1,.06-.91,1.57,1.57,0,0,1,.88-1.2.28.28,0,0,1,.28.07c.13.14,0,.29-.1.4a1.25,1.25,0,0,0-.35.73,5.76,5.76,0,0,0,0,.66,4.46,4.46,0,0,1-.4,2.85,4.81,4.81,0,0,0-.44,2.21,6.16,6.16,0,0,1-.46,2.46l-.21-.1a5.81,5.81,0,0,0,.45-2.37,4.86,4.86,0,0,1,.46-2.3,4.31,4.31,0,0,0,.38-2.72,3.56,3.56,0,0,1,0-.7,1.41,1.41,0,0,1,.4-.87l.09-.1-.08,0a1.41,1.41,0,0,0-.68,1,2.37,2.37,0,0,0-.05.84,4.37,4.37,0,0,1-.59,2.5A5.15,5.15,0,0,0,82,51a4.6,4.6,0,0,1-.37,1.72l.2,5.27h-.23l-.18-4.85,0,0-.19-.11c.07-.13.14-.25.19-.37l-.32-8.49s0-.15-.06-.15,0,0,0,.05a.3.3,0,0,0,0,.1Z"/><path id="ray1-11" data-name="ray1" class="cls-3" d="M81.64,58.26l4.8-12.95s.1-.24-.06-.3-.26.17-.26.17L80.36,57.73m3.55-3.35c1.4-1.3,1.31-2.87,2.63-4s1.33-2.44,1.65-3.06.91-.59.84-.79-.74-.14-1.31.63-.26,1.47-1.85,2.82-1.22,2.42-2.73,3.58"/><path class="cls-4" d="M81.75,58.3l-.22-.07,1.69-4.56h0l-.13-.18a2.66,2.66,0,0,0,.31-.26l3-8s0-.14,0-.16-.1.09-.11.11L80.46,57.78l-.2-.09L86,45.13a.55.55,0,0,1,.21-.23.34.34,0,0,1,.2,0,.33.33,0,0,1,.12.46L83.79,52.8a5.62,5.62,0,0,0,.59-1,5.42,5.42,0,0,1,1.41-1.89,4.05,4.05,0,0,0,1.44-2,2.91,2.91,0,0,1,.4-.81,1.57,1.57,0,0,1,1.27-.77.3.3,0,0,1,.24.17c.06.18-.11.26-.25.33a1.14,1.14,0,0,0-.6.55,3.34,3.34,0,0,0-.22.62,4.48,4.48,0,0,1-1.46,2.47,4.81,4.81,0,0,0-1.25,1.88A6,6,0,0,1,84,54.46l-.15-.16a5.86,5.86,0,0,0,1.31-2,5,5,0,0,1,1.32-2A4.4,4.4,0,0,0,87.86,48a3.71,3.71,0,0,1,.23-.67,1.41,1.41,0,0,1,.7-.64l.12-.06a.13.13,0,0,0-.08,0,1.45,1.45,0,0,0-1,.68,3,3,0,0,0-.37.76,4.29,4.29,0,0,1-1.5,2.08,5.19,5.19,0,0,0-1.36,1.82,4.77,4.77,0,0,1-1,1.46Z"/><path id="ray1-12" data-name="ray1" class="cls-3" d="M81.49,58.49l9.39-10.13s.19-.18.06-.3-.3.06-.3.06L80.51,57.51m4.57-1.74c1.79-.67,2.31-2.15,3.94-2.66s2.17-1.75,2.7-2.2,1.07-.19,1.08-.41-.64-.41-1.45.08-.81,1.26-2.79,1.9-2,1.77-3.9,2.27"/><path class="cls-4" d="M81.57,58.57l-.16-.16,3.3-3.56h0l-.06-.22a3.56,3.56,0,0,0,.39-.13l5.78-6.22s.1-.12.06-.15h0a.21.21,0,0,0-.12.07L80.59,57.59l-.16-.16L90.56,48a.42.42,0,0,1,.28-.14A.25.25,0,0,1,91,48a.32.32,0,0,1-.06.46l-5.4,5.82a5.47,5.47,0,0,0,.93-.69,5.35,5.35,0,0,1,2-1.2,4.07,4.07,0,0,0,2.09-1.29,3.35,3.35,0,0,1,.68-.6,1.56,1.56,0,0,1,1.47-.22.28.28,0,0,1,.15.25c0,.19-.2.2-.36.21a1.16,1.16,0,0,0-.76.27,6,6,0,0,0-.44.49,4.49,4.49,0,0,1-2.3,1.73,5,5,0,0,0-1.87,1.25,6,6,0,0,1-2.06,1.41L85,55.66a5.79,5.79,0,0,0,2-1.36A4.92,4.92,0,0,1,89,53a4.34,4.34,0,0,0,2.19-1.66,4.21,4.21,0,0,1,.46-.52,1.37,1.37,0,0,1,.9-.32l.14,0-.08,0a1.41,1.41,0,0,0-1.2.24,2.81,2.81,0,0,0-.63.56,4.31,4.31,0,0,1-2.18,1.35,5,5,0,0,0-2,1.16,4.79,4.79,0,0,1-1.49,1Z"/><path id="ray2-9" data-name="ray2" class="cls-4" d="M80.13,53.06C80,51.22,79,50.41,79.2,48.74c-.45,1.32.63,2.35.57,4.3m1.55,4.81-3.95-8.62,3.31,8.88"/><path id="ray2-10" data-name="ray2" class="cls-4" d="M82.09,53.1c.61-1.73,0-2.88.79-4.34-.92,1.05-.31,2.41-1.12,4.19m-.41,5L81,48.51,80.66,58"/><path id="ray2-11" data-name="ray2" class="cls-4" d="M83.88,53.89c1.23-1.36,1.07-2.67,2.39-3.71-1.25.62-1.21,2.11-2.63,3.44m-2.31,4.5,3.31-8.89-4,8.62"/><path id="ray2-12" data-name="ray2" class="cls-4" d="M85.23,55.3c1.66-.78,2-2.06,3.64-2.51-1.4.1-1.93,1.49-3.76,2.18m-3.85,3.27,6.46-7-7,6.46"/></g><g id="rays-4" data-name="rays"><path id="ray1-13" data-name="ray1" class="cls-3" d="M81.27,58.64l12.55-5.76s.24-.1.17-.26-.3-.06-.3-.06l-13,4.8m4.88.14c1.91.07,3-1.11,4.66-1s2.67-.79,3.34-1,1.06.23,1.15,0-.43-.62-1.37-.49-1.23.86-3.31.69-2.56.85-4.46.6"/><path class="cls-4" d="M81.31,58.74l-.09-.2,4.42-2h0l0-.23.41,0,7.72-3.54s.14-.07.12-.12h0s-.11,0-.14,0l-13,4.81-.07-.21,13-4.81a.48.48,0,0,1,.31,0,.24.24,0,0,1,.14.14.26.26,0,0,1-.1.31.36.36,0,0,1-.14.09l-7.22,3.31A5.5,5.5,0,0,0,87.77,56a5.28,5.28,0,0,1,2.33-.33,4.11,4.11,0,0,0,2.42-.39,2.82,2.82,0,0,1,.86-.3,1.57,1.57,0,0,1,1.44.36.28.28,0,0,1,.05.29c-.08.17-.26.11-.41.06a1.17,1.17,0,0,0-.81-.05,5.22,5.22,0,0,0-.59.29,4.61,4.61,0,0,1-2.79.72,4.68,4.68,0,0,0-2.21.44,5.89,5.89,0,0,1-2.44.51v-.22a5.86,5.86,0,0,0,2.36-.5,4.93,4.93,0,0,1,2.31-.45A4.48,4.48,0,0,0,93,55.75a4,4,0,0,1,.63-.31,1.39,1.39,0,0,1,1,0l.13,0a.11.11,0,0,0,0-.07,1.44,1.44,0,0,0-1.2-.23,2.64,2.64,0,0,0-.79.27,4.23,4.23,0,0,1-2.54.41,5.07,5.07,0,0,0-2.24.33,4.78,4.78,0,0,1-1.74.32Z"/><path id="ray1-14" data-name="ray1" class="cls-3" d="M81,58.69l13.8-.52s.26,0,.26-.17-.26-.17-.26-.17L81,57.31m4.46,2c1.74.8,3.16.12,4.67.91s2.77.3,3.46.35.89.62,1,.48-.15-.74-1.08-1-1.45.32-3.31-.63-2.7-.2-4.36-1.15"/><path class="cls-4" d="M94.59,61.18c-.1,0-.19-.09-.27-.16a1.25,1.25,0,0,0-.73-.35,5.76,5.76,0,0,0-.66,0,4.46,4.46,0,0,1-2.85-.4,4.81,4.81,0,0,0-2.21-.44,6.16,6.16,0,0,1-2.46-.46l.1-.21a5.81,5.81,0,0,0,2.37.45,4.86,4.86,0,0,1,2.3.46,4.31,4.31,0,0,0,2.72.38,3.56,3.56,0,0,1,.7,0,1.41,1.41,0,0,1,.87.4l.1.09a.15.15,0,0,0,0-.08,1.41,1.41,0,0,0-1-.68,2.37,2.37,0,0,0-.84,0,4.37,4.37,0,0,1-2.5-.59A5.15,5.15,0,0,0,88,59a4.6,4.6,0,0,1-1.72-.37l-5.27.2v-.23l4.85-.18,0,0,.11-.19c.13.07.25.14.37.19l8.49-.32s.15,0,.15-.06,0,0,0,0l-.1,0L81,57.42V57.2l13.81.51.16,0a.28.28,0,0,1,.21.26c0,.2-.2.29-.38.29h0l-7.93.29a5.16,5.16,0,0,0,1.14.17,5.4,5.4,0,0,1,2.29.59,4.06,4.06,0,0,0,2.38.56,3.17,3.17,0,0,1,.91.06,1.57,1.57,0,0,1,1.2.88.28.28,0,0,1-.07.28A.19.19,0,0,1,94.59,61.18Z"/><path id="ray1-15" data-name="ray1" class="cls-3" d="M80.74,58.64l13,4.8s.24.1.3-.06-.17-.26-.17-.26L81.27,57.36m3.35,3.55c1.3,1.4,2.87,1.31,4,2.63s2.44,1.33,3.06,1.65.59.91.79.84.14-.74-.63-1.31-1.47-.26-2.82-1.85-2.42-1.22-3.58-2.73"/><path class="cls-4" d="M92.41,66.15c-.13,0-.2-.14-.26-.26a1.14,1.14,0,0,0-.55-.6,3.34,3.34,0,0,0-.62-.22,4.48,4.48,0,0,1-2.47-1.46,4.81,4.81,0,0,0-1.88-1.25A6,6,0,0,1,84.54,61l.16-.15a5.86,5.86,0,0,0,2,1.31,5,5,0,0,1,2,1.32A4.4,4.4,0,0,0,91,64.86a3.71,3.71,0,0,1,.67.23,1.41,1.41,0,0,1,.64.7l.06.12a.13.13,0,0,0,0-.08,1.45,1.45,0,0,0-.68-1,3,3,0,0,0-.76-.37,4.29,4.29,0,0,1-2.08-1.5,5.19,5.19,0,0,0-1.82-1.36,4.77,4.77,0,0,1-1.46-1L80.7,58.75l.07-.22,4.56,1.69v0l.18-.13a2.66,2.66,0,0,0,.26.31l8,3s.14,0,.16,0v0a.23.23,0,0,0-.11-.09L81.22,57.46l.09-.2L93.87,63a.55.55,0,0,1,.23.21.34.34,0,0,1,0,.2.33.33,0,0,1-.46.12L86.2,60.79a5.62,5.62,0,0,0,1,.59,5.42,5.42,0,0,1,1.89,1.41,4.05,4.05,0,0,0,2,1.44,3,3,0,0,1,.81.4,1.59,1.59,0,0,1,.77,1.27.3.3,0,0,1-.17.24Z"/><path id="ray1-16" data-name="ray1" class="cls-3" d="M80.51,58.49l10.13,9.39s.18.19.3.06-.06-.3-.06-.3L81.49,57.51m1.74,4.57c.67,1.79,2.15,2.31,2.66,3.94s1.75,2.17,2.2,2.7.19,1.07.41,1.08.41-.64-.08-1.45-1.26-.81-1.9-2.79-1.77-2.05-2.27-3.9"/><path class="cls-4" d="M88.5,69.91h0c-.19,0-.2-.2-.21-.36a1.16,1.16,0,0,0-.27-.76,6,6,0,0,0-.49-.44,4.49,4.49,0,0,1-1.73-2.3,5,5,0,0,0-1.25-1.87,6,6,0,0,1-1.41-2.06l.21-.08a5.79,5.79,0,0,0,1.36,2A4.92,4.92,0,0,1,86,66a4.34,4.34,0,0,0,1.66,2.19,4.21,4.21,0,0,1,.52.46,1.37,1.37,0,0,1,.32.9s0,.1,0,.14a.19.19,0,0,0,0-.08,1.41,1.41,0,0,0-.24-1.2,2.59,2.59,0,0,0-.56-.63,4.31,4.31,0,0,1-1.35-2.18,5,5,0,0,0-1.16-2,4.79,4.79,0,0,1-1-1.49l-3.86-3.58.16-.16,3.56,3.3v0l.22-.06c0,.14.08.27.13.4l6.22,5.77s.12.1.15.06,0-.13-.06-.14L81.41,57.59l.16-.16L91,67.56a.39.39,0,0,1,.1.14A.25.25,0,0,1,91,68a.32.32,0,0,1-.46-.06l-5.82-5.4a5.1,5.1,0,0,0,.69.93,5.35,5.35,0,0,1,1.2,2,4.07,4.07,0,0,0,1.29,2.09,3.35,3.35,0,0,1,.6.68,1.56,1.56,0,0,1,.22,1.47A.27.27,0,0,1,88.5,69.91Z"/><path id="ray2-13" data-name="ray2" class="cls-4" d="M85.94,57.13c1.84-.09,2.65-1.13,4.32-.93-1.32-.45-2.35.63-4.3.57m-4.81,1.55,8.62-4-8.88,3.31"/><path id="ray2-14" data-name="ray2" class="cls-4" d="M85.9,59.09c1.73.61,2.88,0,4.34.79-1-.92-2.41-.31-4.19-1.12m-5-.41L90.49,58,81,57.66"/><path id="ray2-15" data-name="ray2" class="cls-4" d="M85.11,60.88c1.36,1.23,2.67,1.07,3.71,2.39-.62-1.25-2.11-1.21-3.44-2.63m-4.5-2.31,8.89,3.31-8.62-4"/><path id="ray2-16" data-name="ray2" class="cls-4" d="M83.7,62.23c.78,1.66,2.06,2,2.51,3.64-.1-1.4-1.49-1.93-2.18-3.76m-3.27-3.85,6.95,6.46-6.46-6.95"/></g><circle class="cls-3" cx="81" cy="58" r="5.63"/><path class="cls-4" d="M81,63.78A5.78,5.78,0,1,1,86.78,58,5.78,5.78,0,0,1,81,63.78Zm0-11.25A5.47,5.47,0,1,0,86.47,58,5.47,5.47,0,0,0,81,52.53Z"/><path id="loweyecontour" class="cls-5" d="M82.92,56.8a1.1,1.1,0,0,0-1,.51,1.77,1.77,0,0,0,2,0,1.47,1.47,0,0,0-1.07-.47Zm0,.09c.38,0,.72.16.77.33a1.12,1.12,0,0,1-1.55.09.9.9,0,0,1,.78-.42Z"/><path id="uppalpebra" class="cls-4" d="M83,56.53a1.14,1.14,0,0,0-.95.35,1.13,1.13,0,0,1-.43.21s0,.18.08.13a2.41,2.41,0,0,0,.52-.34,1.07,1.07,0,0,1,.78-.22c.78,0,1.21.65,1.3.61s-.43-.74-1.3-.74Z"/><path id="eyebrow_nose" data-name="eyebrow nose" class="cls-4" d="M84.55,56.79a2.24,2.24,0,0,0-2.94-.35,1.78,1.78,0,0,0-.33.73,2.12,2.12,0,0,0,.46,1.57.36.36,0,0,0-.18.08,3.1,3.1,0,0,1-.35-2,2.75,2.75,0,0,1,.14-.49,2.07,2.07,0,0,1,3.2.43Z"/><circle id="pupil" class="cls-4" cx="82.9" cy="57.22" r="0.39"/><path id="lowpalpebra" class="cls-4" d="M84,57.48a1.7,1.7,0,0,1-1.9.26c-.44-.26-.44-.34-.35-.34s.17.08.52.25A2.09,2.09,0,0,0,84,57.48Z"/><path class="cls-4" d="M80.14,58.78a.39.39,0,0,0-.32.38.39.39,0,0,0,.4.39.38.38,0,0,0,.31-.16.82.82,0,0,0,.47.12h0a.82.82,0,0,0,.47-.12.39.39,0,1,0,.39-.61.24.24,0,0,1,.17.24.25.25,0,0,1-.26.26.26.26,0,0,1-.26-.24.58.58,0,0,1-1.07,0,.26.26,0,0,1-.26.24A.25.25,0,0,1,80,59a.25.25,0,0,1,.17-.24Z"/><path class="cls-4" d="M80.56,59.93c-.43,0-.6.39-1,.65a6.4,6.4,0,0,0,.69-.43c.3-.17.56,0,.73,0h0c.17,0,.43-.21.73,0a7.51,7.51,0,0,0,.7.43c-.39-.26-.57-.65-1-.65a1.23,1.23,0,0,0-.43.13h0A1.23,1.23,0,0,0,80.56,59.93Z"/><path class="cls-4" d="M80.42,60.44a2.93,2.93,0,0,0-.72.14c.77-.17,1,.09,1.29.09h0c.35,0,.52-.26,1.3-.09a2.32,2.32,0,0,0-1.3-.09h0a5.21,5.21,0,0,0-.57-.05Z"/><path class="cls-4" d="M79.73,60.58h-.16c.91.09.47.61,1.42.61h0c1,0,.52-.52,1.43-.61-1-.08-.65.48-1.43.48h0c-.73,0-.5-.49-1.26-.48Z"/><path class="cls-4" d="M81.78,62a.78.78,0,0,0-1.56,0,.8.8,0,0,1,1.56,0Z"/><path id="eyebrow_nose-2" data-name="eyebrow nose" class="cls-4" d="M77.5,56.79a2.25,2.25,0,0,1,3-.35,1.9,1.9,0,0,1,.32.73,2.12,2.12,0,0,1-.46,1.57.33.33,0,0,1,.18.08,3.1,3.1,0,0,0,.35-2,2.72,2.72,0,0,0-.13-.49,2.08,2.08,0,0,0-3.21.43Z"/><path id="uppalpebra-2" data-name="uppalpebra" class="cls-4" d="M79.06,56.53a1.14,1.14,0,0,1,1,.35,1.13,1.13,0,0,0,.43.21s0,.18-.08.13a2.41,2.41,0,0,1-.52-.34,1.07,1.07,0,0,0-.78-.22c-.78,0-1.21.65-1.3.61s.44-.74,1.3-.74Z"/><path id="loweyecontour-2" data-name="loweyecontour" class="cls-5" d="M79,56.8a1.09,1.09,0,0,0-1,.51,1.76,1.76,0,0,0,2,0A1.45,1.45,0,0,0,79,56.8Zm0,.09c.37,0,.72.16.77.33a1.14,1.14,0,0,1-1.56.09.91.91,0,0,1,.79-.42Z"/><circle id="pupil-2" data-name="pupil" class="cls-4" cx="79.08" cy="57.22" r="0.39"/><path id="lowpalpebra-2" data-name="lowpalpebra" class="cls-4" d="M78,57.48a1.72,1.72,0,0,0,1.91.26c.43-.26.43-.34.34-.34s-.17.08-.52.25A2.09,2.09,0,0,1,78,57.48Z"/></g></svg>