<svg id="flags" xmlns="http://www.w3.org/2000/svg" viewBox="0 0 162 116"><defs><style>.cls-1{fill:#f93;}.cls-2{fill:#efefef;}.cls-3{fill:#128807;}.cls-4{fill:#008;}.cls-5{fill:#fff;}</style></defs><title>ind</title><g id="INDIA"><rect class="cls-1" y="4" width="162" height="108"/><rect class="cls-2" y="40" width="162" height="36"/><rect class="cls-3" y="76" width="162" height="36"/><circle class="cls-4" cx="81" cy="58" r="14.4"/><circle class="cls-5" cx="81" cy="58" r="12.6"/><circle class="cls-4" cx="81" cy="58" r="2.52"/><g id="b"><g id="a"><path class="cls-4" d="M93.57,59a.63.63,0,1,1-.16,1.25A.63.63,0,0,1,93.57,59Z"/><path class="cls-4" d="M81,70.6,81.43,63,81,59.44,80.57,63Z"/></g><g id="a-2" data-name="a"><path class="cls-4" d="M92.88,62.24a.63.63,0,1,1-.48,1.16.63.63,0,0,1,.48-1.16Z"/><path class="cls-4" d="M77.74,70.17,80.11,63l.52-3.59-1.35,3.37Z"/></g></g><g id="c"><g id="b-2" data-name="b"><g id="a-3" data-name="a"><path class="cls-4" d="M91.38,65.17a.63.63,0,0,1,.12.88.64.64,0,0,1-.89.12.63.63,0,0,1,.77-1Z"/><path class="cls-4" d="M74.7,68.91l4.15-6.33,1.43-3.33-2.17,2.9Z"/></g><g id="a-4" data-name="a"><path class="cls-4" d="M89.17,67.61a.64.64,0,0,1-.12.89.63.63,0,1,1,.12-.89Z"/><path class="cls-4" d="M72.09,66.91l5.65-5L80,59l-2.85,2.24Z"/></g></g></g><g id="d"><g id="b-3" data-name="b"><g id="a-5" data-name="a"><path class="cls-4" d="M86.4,69.4a.63.63,0,0,1-1.16.48.63.63,0,1,1,1.16-.48Z"/><path class="cls-4" d="M70.09,64.3l6.76-3.41,2.9-2.17-3.33,1.43Z"/></g><g id="a-6" data-name="a"><path class="cls-4" d="M83.27,70.41a.63.63,0,1,1-1.25.16.62.62,0,0,1,.54-.7A.63.63,0,0,1,83.27,70.41Z"/><path class="cls-4" d="M68.83,61.26l7.41-1.54,3.37-1.35L76,58.89Z"/></g></g><g id="c-2" data-name="c"><g id="b-4" data-name="b"><g id="a-7" data-name="a"><path class="cls-4" d="M80,70.57a.63.63,0,1,1-1.25-.16.63.63,0,0,1,.71-.54A.62.62,0,0,1,80,70.57Z"/><path class="cls-4" d="M68.4,58l7.56.43,3.6-.43L76,57.57Z"/></g><g id="a-8" data-name="a"><path class="cls-4" d="M76.76,69.88a.63.63,0,0,1-1.16-.48.63.63,0,0,1,1.16.48Z"/><path class="cls-4" d="M68.83,54.74,76,57.11l3.59.52-3.37-1.35Z"/></g></g></g></g><g id="b-5" data-name="b"><g id="a-9" data-name="a"><path class="cls-4" d="M73.83,68.38a.63.63,0,0,1-.88.12.64.64,0,0,1-.12-.89.63.63,0,0,1,1,.77Z"/><path class="cls-4" d="M70.09,51.7l6.33,4.15,3.33,1.43-2.9-2.17Z"/></g><g id="a-10" data-name="a"><path class="cls-4" d="M71.39,66.17a.64.64,0,0,1-.89-.12.63.63,0,1,1,.89.12Z"/><path class="cls-4" d="M72.09,49.09l5,5.65L80,57l-2.24-2.85Z"/></g></g><g id="c-3" data-name="c"><g id="b-6" data-name="b"><g id="a-11" data-name="a"><path class="cls-4" d="M69.6,63.4a.63.63,0,0,1-.48-1.16.63.63,0,1,1,.48,1.16Z"/><path class="cls-4" d="M74.7,47.09l3.41,6.76,2.17,2.9-1.43-3.33Z"/></g><g id="a-12" data-name="a"><path class="cls-4" d="M68.59,60.27A.63.63,0,1,1,68.43,59a.62.62,0,0,1,.7.54A.63.63,0,0,1,68.59,60.27Z"/><path class="cls-4" d="M77.74,45.83l1.54,7.41,1.35,3.37L80.11,53Z"/></g></g></g><g id="d-2" data-name="d"><g id="b-7" data-name="b"><g id="a-13" data-name="a"><path class="cls-4" d="M68.43,57a.63.63,0,1,1,.16-1.25.63.63,0,0,1,.54.71A.62.62,0,0,1,68.43,57Z"/><path class="cls-4" d="M81,45.4,80.57,53l.43,3.6.43-3.6Z"/></g><g id="a-14" data-name="a"><path class="cls-4" d="M69.12,53.76a.63.63,0,1,1,.48-1.16.63.63,0,0,1-.48,1.16Z"/><path class="cls-4" d="M84.26,45.83,81.89,53l-.52,3.59,1.35-3.37Z"/></g></g><g id="c-4" data-name="c"><g id="b-8" data-name="b"><g id="a-15" data-name="a"><path class="cls-4" d="M70.62,50.83A.63.63,0,0,1,70.5,50a.64.64,0,0,1,.89-.12.63.63,0,0,1-.77,1Z"/><path class="cls-4" d="M87.3,47.09l-4.15,6.33-1.43,3.33,2.17-2.9Z"/></g><g id="a-16" data-name="a"><path class="cls-4" d="M72.83,48.39A.64.64,0,0,1,73,47.5a.63.63,0,1,1-.12.89Z"/><path class="cls-4" d="M89.91,49.09l-5.65,5L82,57l2.85-2.24Z"/></g></g></g></g><g id="b-9" data-name="b"><g id="a-17" data-name="a"><path class="cls-4" d="M75.6,46.6a.63.63,0,1,1,1.16-.48.63.63,0,0,1-1.16.48Z"/><path class="cls-4" d="M91.91,51.7l-6.76,3.41-2.9,2.17,3.33-1.43Z"/></g><g id="a-18" data-name="a"><path class="cls-4" d="M78.73,45.59A.63.63,0,1,1,80,45.43a.63.63,0,0,1-1.25.16Z"/><path class="cls-4" d="M93.17,54.74l-7.41,1.54-3.37,1.35L86,57.11Z"/></g></g><g id="c-5" data-name="c"><g id="b-10" data-name="b"><g id="a-19" data-name="a"><path class="cls-4" d="M82,45.43a.63.63,0,1,1,1.25.16A.63.63,0,0,1,82,45.43Z"/><path class="cls-4" d="M93.6,58,86,57.57l-3.6.43,3.6.43Z"/></g><g id="a-20" data-name="a"><path class="cls-4" d="M85.24,46.12a.63.63,0,1,1,1.16.48.63.63,0,0,1-1.16-.48Z"/><path class="cls-4" d="M93.17,61.26,86,58.89l-3.59-.52,3.37,1.35Z"/></g></g></g><g id="d-3" data-name="d"><g id="b-11" data-name="b"><g id="a-21" data-name="a"><path class="cls-4" d="M88.17,47.62a.63.63,0,0,1,.88-.12.64.64,0,0,1,.12.89.63.63,0,0,1-1-.77Z"/><path class="cls-4" d="M91.91,64.3l-6.33-4.15-3.33-1.43,2.9,2.17Z"/></g><g id="a-22" data-name="a"><path class="cls-4" d="M90.61,49.83a.64.64,0,0,1,.89.12.63.63,0,1,1-.89-.12Z"/><path class="cls-4" d="M89.91,66.91l-5-5.65L82,59l2.24,2.85Z"/></g></g><g id="c-6" data-name="c"><g id="b-12" data-name="b"><g id="a-23" data-name="a"><path class="cls-4" d="M92.4,52.6a.63.63,0,0,1,.48,1.16.63.63,0,1,1-.48-1.16Z"/><path class="cls-4" d="M87.3,68.91l-3.41-6.76-2.17-2.9,1.43,3.33Z"/></g><g id="a-24" data-name="a"><path class="cls-4" d="M93.41,55.73A.63.63,0,1,1,93.57,57a.63.63,0,0,1-.16-1.25Z"/><path class="cls-4" d="M84.26,70.17l-1.54-7.41-1.35-3.37L81.89,63Z"/></g></g></g></g></g></svg>