<svg id="flags" xmlns="http://www.w3.org/2000/svg" viewBox="0 0 162 116"><defs><style>.cls-1{fill:#00afca;}.cls-2,.cls-3{fill:#fec50c;}.cls-3{stroke:#00afca;stroke-width:0.1px;}</style></defs><title>kaz</title><g id="KAZIJSTAN"><rect class="cls-1" y="17.5" width="162" height="81"/><g id="use4303"><path id="orn" class="cls-2" d="M9.56,41.16a2.57,2.57,0,0,0,2.63,2.49,2.13,2.13,0,0,0,2.39-2.16,3.66,3.66,0,0,0-.45-1.79l-3.57-7.42a2.1,2.1,0,0,1-.17-1,1.31,1.31,0,0,1,2.61,0c0,.82-.42,1.18-.86,1.18s-.75-.22-.75-.59.13-.38.31-.38c.46,0,.33.62.33.62a.42.42,0,0,0,.31-.58.77.77,0,0,0,.45-.26.83.83,0,0,0-.45-.24.42.42,0,0,0-.34-.61.65.65,0,0,1,0,.38,1,1,0,0,0-1.24.93,1.33,1.33,0,0,0,1.68,1.37.78.78,0,0,0-.42.67,1.41,1.41,0,0,1,.42-.09,1.37,1.37,0,0,0-.3.86c.2-.09.39-.26.65-.16a1.58,1.58,0,0,0,1.36,2.17,2.69,2.69,0,0,1-.69-1.72c0-1.91.53-2.23.53-3.55a2,2,0,0,0-.85-1.56v0a1.14,1.14,0,0,0,.75-.53,5,5,0,0,0-2.76,0,2,2,0,0,0-1.45,1,2.94,2.94,0,0,0,0,2.34c.51,1.06,2.89,6.12,3.64,7.71a2.67,2.67,0,0,1,.25,1.08,1.35,1.35,0,0,1-1.4,1.32,1.18,1.18,0,0,1-1.22-1c0-.37.2-.59.48-.59.69,0,.65.59.51,1a.86.86,0,0,0,.61-.89,1.07,1.07,0,0,0,.68-.39.84.84,0,0,0-.68-.37c.13-.56-.24-.8-.61-.93.12.41.19.88-.51.88a1.28,1.28,0,0,0-1.14.42c0-.44-.06-2.18-.06-2.18,0-.66.88-.64,1.46-.45A1.37,1.37,0,0,0,10,37.05a.81.81,0,0,0,.52-.79,2.07,2.07,0,0,0-.83-1.5l-.16,6.4Z"/></g><path id="be" class="cls-2" d="M89.93,39.38a.81.81,0,0,0,1-.71,31.57,31.57,0,0,0-.14-3.83,31.28,31.28,0,0,0-1.6,3.48A.81.81,0,0,0,89.93,39.38Z"/><path id="be-2" data-name="be" class="cls-2" d="M92.26,40.08a.81.81,0,0,0,1.16-.49A31.65,31.65,0,0,0,94,35.8a30.8,30.8,0,0,0-2.25,3.11A.81.81,0,0,0,92.26,40.08Z"/><path id="be-3" data-name="be" class="cls-2" d="M94.4,41.23A.82.82,0,0,0,95.64,41,31.39,31.39,0,0,0,97,37.38,32,32,0,0,0,94.15,40,.81.81,0,0,0,94.4,41.23Z"/><path id="be-4" data-name="be" class="cls-2" d="M96.27,42.77a.83.83,0,0,0,1.27,0,34,34,0,0,0,2-3.27,32.05,32.05,0,0,0-3.27,2A.81.81,0,0,0,96.27,42.77Z"/><path id="be-5" data-name="be" class="cls-2" d="M97.81,44.64a.81.81,0,0,0,1.24.24,32.07,32.07,0,0,0,2.61-2.81,32.14,32.14,0,0,0-3.6,1.33A.82.82,0,0,0,97.81,44.64Z"/><path id="be-6" data-name="be" class="cls-2" d="M99,46.78a.82.82,0,0,0,1.18.48,33.43,33.43,0,0,0,3.1-2.25,32,32,0,0,0-3.79.61A.82.82,0,0,0,99,46.78Z"/><path id="be-7" data-name="be" class="cls-2" d="M99.66,49.11a.81.81,0,0,0,1,.69,30.73,30.73,0,0,0,3.49-1.6,31.57,31.57,0,0,0-3.83-.14A.81.81,0,0,0,99.66,49.11Z"/><path id="be-8" data-name="be" class="cls-2" d="M99.9,51.52a.82.82,0,0,0,.9.89,32.54,32.54,0,0,0,3.73-.89,32.54,32.54,0,0,0-3.73-.89A.81.81,0,0,0,99.9,51.52Z"/><path id="be-9" data-name="be" class="cls-2" d="M99.66,53.93a.81.81,0,0,0,.71,1,31.57,31.57,0,0,0,3.83-.14,30.73,30.73,0,0,0-3.49-1.6A.81.81,0,0,0,99.66,53.93Z"/><path id="be-10" data-name="be" class="cls-2" d="M99,56.26a.82.82,0,0,0,.49,1.16,32,32,0,0,0,3.79.61,33.43,33.43,0,0,0-3.1-2.25A.82.82,0,0,0,99,56.26Z"/><path id="be-11" data-name="be" class="cls-2" d="M97.81,58.4a.82.82,0,0,0,.25,1.24,32.14,32.14,0,0,0,3.6,1.33,32.07,32.07,0,0,0-2.61-2.81A.81.81,0,0,0,97.81,58.4Z"/><path id="be-12" data-name="be" class="cls-2" d="M96.27,60.27a.82.82,0,0,0,0,1.27,32.05,32.05,0,0,0,3.27,2,34,34,0,0,0-2-3.27A.83.83,0,0,0,96.27,60.27Z"/><path id="be-13" data-name="be" class="cls-2" d="M94.4,61.81a.81.81,0,0,0-.25,1.24A32,32,0,0,0,97,65.66a31.39,31.39,0,0,0-1.33-3.59A.81.81,0,0,0,94.4,61.81Z"/><path id="be-14" data-name="be" class="cls-2" d="M92.26,63a.81.81,0,0,0-.48,1.17A30.8,30.8,0,0,0,94,67.24a31.65,31.65,0,0,0-.61-3.79A.81.81,0,0,0,92.26,63Z"/><path id="be-15" data-name="be" class="cls-2" d="M80.64,61.81a.82.82,0,0,0-1.24.26,31.39,31.39,0,0,0-1.33,3.59,32.07,32.07,0,0,0,2.81-2.61A.81.81,0,0,0,80.64,61.81Z"/><path id="be-16" data-name="be" class="cls-2" d="M78.76,60.27a.82.82,0,0,0-1.26,0,32.05,32.05,0,0,0-2,3.27,32.05,32.05,0,0,0,3.27-2A.82.82,0,0,0,78.76,60.27Z"/><path id="be-17" data-name="be" class="cls-2" d="M77.23,58.4A.82.82,0,0,0,76,58.16,32.07,32.07,0,0,0,73.37,61,32.14,32.14,0,0,0,77,59.64.81.81,0,0,0,77.23,58.4Z"/><path id="be-18" data-name="be" class="cls-2" d="M76.08,56.26a.81.81,0,0,0-1.17-.48A32.46,32.46,0,0,0,71.8,58a32,32,0,0,0,3.79-.61A.8.8,0,0,0,76.08,56.26Z"/><path id="be-19" data-name="be" class="cls-2" d="M75.38,53.93a.82.82,0,0,0-1.06-.69,31.57,31.57,0,0,0-3.49,1.6,31.66,31.66,0,0,0,3.84.14A.81.81,0,0,0,75.38,53.93Z"/><path id="be-20" data-name="be" class="cls-2" d="M75.14,51.52a.82.82,0,0,0-.9-.89,32,32,0,0,0-3.73.89,32,32,0,0,0,3.73.89A.81.81,0,0,0,75.14,51.52Z"/><path id="be-21" data-name="be" class="cls-2" d="M75.38,49.11a.81.81,0,0,0-.71-1,31.66,31.66,0,0,0-3.84.14,31.57,31.57,0,0,0,3.49,1.6A.81.81,0,0,0,75.38,49.11Z"/><path id="be-22" data-name="be" class="cls-2" d="M76.08,46.78a.81.81,0,0,0-.49-1.16A32,32,0,0,0,71.8,45a32.46,32.46,0,0,0,3.11,2.25A.81.81,0,0,0,76.08,46.78Z"/><path id="be-23" data-name="be" class="cls-2" d="M77.23,44.64A.82.82,0,0,0,77,43.4a32.14,32.14,0,0,0-3.6-1.33A32.07,32.07,0,0,0,76,44.88.82.82,0,0,0,77.23,44.64Z"/><path id="be-24" data-name="be" class="cls-2" d="M78.76,42.77a.82.82,0,0,0,0-1.27,32.05,32.05,0,0,0-3.27-2,32.05,32.05,0,0,0,2,3.27A.82.82,0,0,0,78.76,42.77Z"/><circle class="cls-2" cx="87.5" cy="51.53" r="10.9" transform="translate(34.02 137.86) rotate(-88.72)"/><path id="be-25" data-name="be" class="cls-2" d="M87.52,39.14a.82.82,0,0,0,.89-.9,32,32,0,0,0-.89-3.73,32,32,0,0,0-.89,3.73A.81.81,0,0,0,87.52,39.14Z"/><path id="be-26" data-name="be" class="cls-2" d="M89.93,63.66a.82.82,0,0,0-.69,1.06,31.28,31.28,0,0,0,1.6,3.48A31.57,31.57,0,0,0,91,64.37.81.81,0,0,0,89.93,63.66Z"/><path id="be-27" data-name="be" class="cls-2" d="M87.52,63.9a.82.82,0,0,0-.89.9,32,32,0,0,0,.89,3.73,32,32,0,0,0,.89-3.73A.81.81,0,0,0,87.52,63.9Z"/><path id="be-28" data-name="be" class="cls-2" d="M85.1,63.66a.82.82,0,0,0-1,.71,33.4,33.4,0,0,0,.15,3.83,33.23,33.23,0,0,0,1.6-3.48A.81.81,0,0,0,85.1,63.66Z"/><path id="be-29" data-name="be" class="cls-2" d="M82.78,63a.82.82,0,0,0-1.17.49,33.43,33.43,0,0,0-.6,3.79,32.46,32.46,0,0,0,2.25-3.11A.81.81,0,0,0,82.78,63Z"/><path id="be-30" data-name="be" class="cls-2" d="M80.64,41.23A.82.82,0,0,0,80.88,40a32.07,32.07,0,0,0-2.81-2.61A31.39,31.39,0,0,0,79.4,41,.81.81,0,0,0,80.64,41.23Z"/><path id="be-31" data-name="be" class="cls-2" d="M82.78,40.08a.81.81,0,0,0,.48-1.17A32.46,32.46,0,0,0,81,35.8a33.43,33.43,0,0,0,.6,3.79A.82.82,0,0,0,82.78,40.08Z"/><path id="be-32" data-name="be" class="cls-2" d="M85.1,39.38a.82.82,0,0,0,.7-1.06,33.23,33.23,0,0,0-1.6-3.48,33.4,33.4,0,0,0-.15,3.83A.82.82,0,0,0,85.1,39.38Z"/><path class="cls-2" d="M87.14,70.55l-.19.38-.21.48-.12.23-.11.21-.08.16-.11.11-.25-.21-.27-.19-.29-.15-.31-.12-.34-.08-.33-.09-.34-.06-.35,0-.73-.06-.73,0-.71,0L81,71l-.38-.06-.35-.09-.19-.06-.19-.06-.17-.09-.14-.08-.23-.15-.23-.16L78.87,70l-.23-.21-.49-.46-.48-.46-.48-.44-.43-.4-.21-.14-.21-.15-.19-.08L76,67.63l-.35-.09-.32-.1L75,67.33l-.31-.14-.28-.13-.27-.17-.25-.16-.23-.17-.25-.19-.21-.19L73,66l-.21-.21-.39-.44L72,64.87l-.75-1-.8-1L70,62.4l-.49-.48-.27-.25L69,61.44l-.29-.21L68.36,61l-.07,0-.06.07-.06.08,0,.1-.07.19,0,.09-.14-.07-.13-.06-.15-.06-.12,0h-.27l-.15,0-.15.06.15.19.19.25.19.29.16.31.17.34.13.31,0,.17,0,.13,0,.14v.13H66.89l.17.25.19.25.21.25.23.23.23.23.23.23.23.19.21.14-.23,0-.32,0-.31.05-.23,0,.19.16.23.17.25.19.27.19.27.16.27.15.25.08.23.07.11,0,.08,0,.06,0,.05,0,0,0v.09l0,0-.05.12,0,.13,0,.08v.07l0,.1,0,.08.05,0,.06.05.08,0,.11,0,.1,0,.11,0,.1,0,.08.07,0,0v0l0,0-.08.06-.08.07-.09.08-.08.1v.09l0,.08,0,.11,0,.12.35.13.38.12L71,69l.17.07.12.06.11.06-.69.55.18.16.23.13.3.14.29.11.33.1.32.07.27.06h.25l-.23.17-.29.18L72,71l-.23.17.21.14.29.15.34.17.4.19.92.39,1,.4L76,73l1,.33.46.15.41.1.38.11.33.06L78,73.69l-.63-.09-.63-.1-.58-.13-.59-.17L75,73l-.54-.19-.53-.21-1-.42-1-.42-.46-.18L71,71.43l-.44-.17-.44-.17.11-.06.12,0,.17-.06.19,0,.39-.13.36-.13-.63-.1L70,70.36l-.41-.12-.36-.11-.14-.06L68.92,70l-.1-.07-.07-.06v0l0,0,.07,0,.06,0,.17-.06.23-.07.5-.14.42-.15-1-.19-.79-.12L68.1,69l-.23-.08-.08,0-.08-.06-.06,0-.05-.06.07,0,.18,0,.28,0,.31-.07.33,0,.3-.08.14,0,.13,0,.08-.06.08-.06-.16-.06L69.17,68,69,68l-.21,0-.48-.06-.48-.07-.25-.06-.23,0-.23-.08-.23-.09-.21-.1-.19-.15-.16-.14L66.16,67l0,0,.09,0h.1l.17,0,.37,0,.42,0,.46,0h.59l.16,0,.13,0,.08,0-.5-.21-.67-.3-.37-.18-.4-.19-.4-.21L66,65.64l-.38-.23-.36-.25L65,64.91l-.29-.25-.13-.15-.12-.12-.09-.13-.08-.14L64.18,64l-.05-.15,0-.12,0-.15h.15l.17,0,.16.07.17.06.34.21.37.21.17.1.19.11.18.08.17.06.19,0,.17,0h.19l.16-.06-.5-.37-.56-.49-.65-.56-.65-.63-.65-.66-.6-.67L63,60.75l-.28-.33-.23-.34-.2-.31-.05-.08v-.15l0-.06,0-.07.06,0,.06-.06.06,0,.09,0,.08,0h.17l.1,0,.09,0,.08.06.06.06.38.38.44.44.46.48.5.48.5.44.5.42.25.16.23.15.25.12.23.09-.16-.11-.19-.18L66.27,62,66,61.69l-.6-.73-.67-.86-.33-.46-.32-.46-.29-.46-.29-.43-.25-.42L63,57.49l-.15-.35-.12-.3,0-.1v-.17l0-.06,0-.06,0-.07,0,0,.06,0,.15,0,.13,0h.29l.08,0,.06,0,.09,0,.06.06.17.15.17.21.37.48.4.61.46.64.48.67.25.31.25.32.27.27.29.25-.35-.69-.4-.79L66,58.35l-.19-.44-.18-.46L65.41,57l-.15-.48-.14-.46L65,55.59l-.08-.46,0-.44,0-.42,0-.2,0-.19,0-.19,0-.19,0-.06,0-.06.07-.07,0,0,.14-.06.15,0h.15l.12,0,.06,0,0,0,0,0,0,.06.21.67.19.71.18.73.19.71.19.72.25.66.13.32.14.31.17.29.19.3-.13-.61-.08-.54-.09-.51,0-.45,0-.4,0-.36,0-.29,0-.25,0-.21.07-.17,0-.06,0-.06,0,0,.06,0,.07,0h.18l.17.07.17.08.15.67.14.65.17.6.19.59.21.58.23.59.25.6.29.61.21.4.21.39.23.4.23.4.25.37.25.38.27.38.27.37.5.63.53.58.54.59.56.54.59.55.6.5.63.48.65.46.44.29.46.27.48.27.46.25.73.36.71.33.75.3.75.27.71.23.73.18.76.17.73.15.77.1.75.09.78.06.77,0"/><path class="cls-2" d="M89,76.9l.36,0,.17.07,0,0v0h0l0,0-.33.06h-.27L88,77.07l-1.07,0-1.14,0-1.2,0-.56,0-.56,0-.51,0-.48,0-.39.06-.36.08-.12,0-.13.05-.1,0-.09.06,0-.21.09-.21-.15,0-.14,0-.13.06-.12.06-.11.06-.08.09-.07.1,0,.11-.06-.15,0-.13,0-.14,0-.13,0-.1,0-.13,0-.1.06-.11,0-.08.09-.1.08-.09.09-.08.23-.15.25-.14a1.63,1.63,0,0,0,.43.18,1.12,1.12,0,0,0,.44,0,.56.56,0,0,0,.82,0,.37.37,0,0,0,.1-.17.81.81,0,0,0,0-.41l.25,0,.3,0,.31-.08.33-.08.34-.07.31-.08.29,0,.25,0-.1.08-.25.19-.29.23-.21.14.27.07.23,0-.17.19-.16.19-.17.18-.13.17.17.06.17,0,.18.05h.38l.19-.05.19,0,.14-.08.17.08.17.07.16,0,.17,0,.38,0,.4,0H89"/><path class="cls-2" d="M82.63,75.71l.06,0,.06,0,0,.07,0,.06,0,.06,0,.06-.06,0h-.15l0,0,0-.06,0-.06,0-.06,0-.07,0,0,.09,0"/><path class="cls-2" d="M82.6,75.8l.05,0,0,0,0,0-.05,0,0,0,0,0,0,0,0,0"/><path class="cls-2" d="M82.62,76.08a.18.18,0,0,1-.19-.19.19.19,0,1,1,.38,0A.18.18,0,0,1,82.62,76.08Z"/><path class="cls-2" d="M98.19,77.93,98,78l-.14,0-.13,0-.1,0-.11,0-.1,0-.09,0-.1-.07-.17-.12-.17-.13-.08-.06-.1,0-.09,0h-.1l-.19.39-.25.51-.08.12L96,78.6l-.08.06-.08.06-.11,0h-.1l-.11,0-.12-.06,0-.06,0-.07,0-.08,0-.11,0-.18,0-.13-.13.11-.12.14-.11.17-.12.19-.15.19-.15.14-.08.09-.1.06-.11,0-.12,0h-.07l-.1,0-.11,0-.08,0-.25-.29-.27-.3-.19.3-.21.25-.1.1-.11.11-.1.08-.11.06-.08,0-.11,0h-.1l-.08,0-.09,0-.06-.06-.08-.1,0-.13,0-.12-.08-.21,0-.11,0-.08,0,0h0l-.56.92-.08.08-.15.06-.17,0-.16,0H90l-.15,0,0,0-.06-.06,0,0v-.09l.08-.91-.06,0-.09,0-.08,0-.08.08-.17.19-.19.21-.19.23-.23.19-.1.08-.11.09-.12.06-.11,0-.14,0-.11,0,0,0,0,0,0-.07v-.06l0-.27,0-.27L88,79l0-.12,0-.13-.08-.15-.13.19-.21.27-.25.28-.27.27-.15.1-.14.11-.13,0-.1,0,0,0H86.4l0,0,0,0,0-.07,0-.06v-.08l0-.11,0-.79-.52.35-.63.4-.15.06-.16.09-.15,0-.17,0-.14,0h-.15l-.15,0-.12,0,.06-.17.06-.14.07-.15.08-.12.08-.13.09-.13.1-.1.11-.1.23-.17.27-.17.27-.12.31-.11L86,78l.35-.06.36-.07.35,0,.77,0,.8,0h1.59l.39,0,.38,0,.38,0,.35,0,.36-.06.31-.06.31-.09.3-.12.27-.13.23-.16.23-.17.18-.23-.2-.42.16,0,.17,0L94.2,76l.14-.11.07,0,.06-.06,0-.09,0-.06,0-.08v-.15l0-.08.36-.07.37,0,.4,0h.42l.85,0,.88.07.9.1.88.08.85.09.8,0v.29l0,.13,0,.12-.05.13,0,.1-.06.09-.08.1-.15.15-.19.12-.19.09-.21,0-.23,0-.23,0-.2,0-.23-.07-.21-.1-.21-.1-.17-.15-.17-.17v.36l-.06.46,0,.23-.06.21,0,.08-.07.06,0,.07-.06,0m-16.8-2,.48.21.12-.1.17-.13.19-.1.17-.11.62-.25.55-.25.27-.1.23-.13.23-.12.19-.13.48-.31.48-.32.46-.29.42-.29.31-.25.25-.23.27-.25.29-.27.11-.11.12-.08.15-.09.17-.08.35-.17.36-.12.48-.13.52-.12.54-.11.61-.1.73-.09.73-.1.75-.08.74-.13.25,0,.23-.06.25-.07.25-.06.25-.31.4-.44.27-.27.31-.25.36-.27.41-.28.63-.37.67-.34.69-.35.67-.31.62-.32.59-.29.48-.25.38-.25.1-.32.15-.31.18-.31.23-.32.25-.33.32-.33.33-.38.42-.4.38-.33.39-.34.21-.14.21-.15.23-.12.23-.13.23-.1.23-.09.25-.06.23-.06.25,0,.23,0,.25,0,.23,0,0,.25-.06.25-.08.25-.11.27-.15.27-.18.27-.23.3-.27.29.2,0,.19,0,.15,0,.14-.07.13,0,.15,0,.18,0,.21,0,0,.14v.15l0,.15,0,.12-.06.13-.08.12-.09.11-.1.1-.44.42-.44.4.25,0,.27.08.27.08.21,0-.25.18-.29.19-.29.19L106,67l-.33.19-.34.21-.33.23-.31.25.14,0L105,68l.08,0,.09,0,.06,0,.06,0-.41.23-.53.25-.25.13-.21.12-.1.07-.06.06,0,.06,0,.06,0,.09,0,.06.09.06.06.07,0,.08,0,.06-.09.07-.08.06-.19.1-.25.11-.25.08-.23.08-.17.09-.12.06.42.42-.15.14-.15.11-.12.06-.15.06-.29,0h-.4l0,.18.06.19,0,.21,0,.21-.35.27-.44.32-.48.31-.55.31-.31.17-.31.15-.34.12-.35.13-.38.12-.4.09-.41.08-.44.06.77,0h.67l.63-.06.56-.06.52-.11.46-.12.46-.17.44-.17.59-.27.56-.31.54-.34.57-.33-.34-.17-.33-.1-.17-.07-.17-.08-.18-.08-.19-.11.17-.12.18-.09L103,71l.25-.06.51-.11.52-.06.46-.06.42,0,.16-.05.15,0,.08,0,.07-.06,0,0,0,0-.06,0-.08,0-.23,0-.3,0-.29,0-.29,0-.25-.07-.17-.06.57-.12.56-.13.5-.1.42-.11.35-.1.32-.13.14-.06.11-.06.1-.07.09-.08,0,0-.05,0-.08,0-.1,0-.28,0h-.31l-.33,0-.32,0-.27,0-.17,0,.15-.06.15-.07.5-.14.44-.13.39-.1.38-.13.4-.12.39-.17.19-.1.17-.11.06-.06.06-.08.07-.07,0-.06,0-.06-.07,0-.06,0h-.58l-.27,0h-.38l-.11,0-.08,0-.08,0,.83-.54.78-.5.69-.44.6-.42.25-.21.23-.21.19-.21.17-.21.12-.23.11-.23.06-.25v-.27h-.15l-.14,0-.17.06-.17.07-.33.21-.36.21-.18.1-.17.1-.19.09-.19.06-.16,0-.17,0h-.19l-.17-.06.5-.38.57-.48.65-.56.64-.63.65-.67.61-.66.27-.36.27-.33.23-.34.21-.31,0-.09,0-.06,0-.08,0-.06,0-.07-.06,0-.07-.06-.06,0-.08,0-.09,0h-.16l-.09,0-.1,0-.06.06-.09.06-.37.38-.44.44-.46.48-.5.48-.5.44-.51.42-.25.16-.23.15-.25.12-.21.11.15-.13.19-.18.25-.26.27-.31.61-.73.66-.86.34-.46.31-.46.32-.44.27-.46.25-.41.21-.38.16-.35.11-.3,0-.1v-.17l0-.06,0-.06,0-.07-.05,0-.06,0-.12-.06-.15,0h-.29l-.09,0-.06,0-.08,0-.07.06-.16.15-.17.21-.38.48-.39.6-.44.65-.48.67-.27.31-.26.32-.27.27-.29.25.38-.69.37-.79.21-.44.19-.44.19-.46.17-.46.14-.48.15-.46.1-.46.09-.46,0-.44,0-.42,0-.21,0-.18,0-.19,0-.19,0-.06,0-.07-.06-.06,0,0-.15-.06-.15,0h-.14l-.13,0,0,0-.06,0,0,0,0,.06-.21.69-.19.69-.19.73-.19.71-.18.71-.26.67-.12.34-.15.29-.16.31-.19.27.12-.6.09-.54.08-.51,0-.46,0-.39,0-.36,0-.29,0-.25,0-.21-.06-.17,0-.06,0-.06,0,0-.06,0-.06,0-.06,0h-.07l-.06,0-.17.05-.16.08-.15.67-.15.65-.16.6-.19.59-.21.58-.23.59-.25.6-.29.61-.21.4-.21.39-.23.4-.23.4-.25.37-.25.38-.28.37-.27.38-.5.63-.52.58-.54.59-.57.54-.58.54-.61.51-.63.48-.64.46-.44.29-.46.29-.46.27-.46.27-.73.34-.73.33-.76.27-.75.28-.63.18-.62.19-.65.15-.65.14-.65.11-.66.08-.65.09-.67,0-.06,0-.07,0-.12.06-.15.11-.21.19-.27.25-.33.33-.4.44-.38.44-.43.48-.23.23-.23.23-.28.21-.27.21-.21.14-.2.13-.23.1-.23.11-.51.21-.5.18-.5.19-.44.17-.19.08-.18.11-.17.08-.13.08-.12.13-.11.1-.06.11,0,.1,0,.15V76"/><path class="cls-3" d="M82.6,75.94a.08.08,0,0,1,0-.16.08.08,0,1,1,0,.16Z"/><g id="use4321"><path id="uorn" class="cls-2" d="M9.72,92.59s-.78.66-1,.33c-.43-.53,1.3-3.16,1.3-4.08,0-1.52-1-1.94-2.26-2.15a8.71,8.71,0,0,0-2.21.06,1,1,0,0,0,.86.47,1.84,1.84,0,0,0-1,1.65c0,1.3.54,1.84.54,3.32a4.41,4.41,0,0,1-.67,1.86A1.6,1.6,0,0,0,6.7,92a.61.61,0,0,1,.51.16A.88.88,0,0,0,7,91.34c.15-.08.26,0,.5,0a1.12,1.12,0,0,0-.54-.77,1.29,1.29,0,0,0,1.72-1.24.94.94,0,0,0-.82-1,.83.83,0,0,0-.43.13.68.68,0,0,1,0-.54c-.3.08-.49.26-.35.62a.76.76,0,0,0-.53.24A.65.65,0,0,0,7.1,89c-.17.34,0,.53.28.68,0,0-.17-.68.27-.68.19,0,.37.06.37.35A.62.62,0,0,1,7.3,90c-.51,0-.92-.35-.92-1.15s.6-1.12,1.39-1.15A1.09,1.09,0,0,1,9,88.77c0,1-1.42,3.22-1.42,4.09a1.09,1.09,0,0,0,1.17,1,2.16,2.16,0,0,0,1.38-.74l-.44-.56Z"/></g><g id="use4303-2" data-name="use4303"><path id="orn-2" data-name="orn" class="cls-2" d="M9.56,74.84a2.57,2.57,0,0,1,2.63-2.49,2.13,2.13,0,0,1,2.39,2.16,3.66,3.66,0,0,1-.45,1.79l-3.57,7.42a2.1,2.1,0,0,0-.17,1,1.31,1.31,0,0,0,2.61,0c0-.82-.42-1.18-.86-1.18s-.75.22-.75.59.13.38.31.38c.46,0,.33-.62.33-.62a.42.42,0,0,1,.31.58.77.77,0,0,1,.45.26.83.83,0,0,1-.45.24.42.42,0,0,1-.34.61.65.65,0,0,0,0-.38,1,1,0,0,1-1.24-.93,1.33,1.33,0,0,1,1.68-1.37.78.78,0,0,1-.42-.67,1.41,1.41,0,0,0,.42.09,1.37,1.37,0,0,1-.3-.86c.2.09.39.26.65.16a1.58,1.58,0,0,1,1.36-2.17,2.69,2.69,0,0,0-.69,1.72c0,1.91.53,2.23.53,3.55a2,2,0,0,1-.85,1.56v0a1.14,1.14,0,0,1,.75.53,5,5,0,0,1-2.76,0,2,2,0,0,1-1.45-1,2.94,2.94,0,0,1,0-2.34c.51-1.06,2.89-6.12,3.64-7.71a2.67,2.67,0,0,0,.25-1.08,1.35,1.35,0,0,0-1.4-1.32,1.18,1.18,0,0,0-1.22,1c0,.37.2.59.48.59.69,0,.65-.59.51-1a.86.86,0,0,1,.61.89,1.07,1.07,0,0,1,.68.39.84.84,0,0,1-.68.37c.13.56-.24.8-.61.93.12-.41.19-.88-.51-.88a1.28,1.28,0,0,1-1.14-.42c0,.44-.06,2.18-.06,2.18,0,.66.88.64,1.46.45A1.37,1.37,0,0,1,10,79a.81.81,0,0,1,.52.79,2.07,2.07,0,0,1-.83,1.5l-.16-6.4Z"/></g><g id="use4303-3" data-name="use4303"><path id="orn-3" data-name="orn" class="cls-2" d="M9.88,74.84a2.57,2.57,0,0,0-2.63-2.49,2.13,2.13,0,0,0-2.39,2.16,3.66,3.66,0,0,0,.45,1.79l3.57,7.42a2.1,2.1,0,0,1,.17,1,1.31,1.31,0,0,1-2.61,0c0-.82.42-1.18.86-1.18s.74.22.74.59-.12.38-.3.38c-.46,0-.33-.62-.33-.62a.42.42,0,0,0-.31.58.77.77,0,0,0-.45.26.83.83,0,0,0,.45.24.42.42,0,0,0,.34.61.65.65,0,0,1,0-.38,1,1,0,0,0,1.24-.93A1.33,1.33,0,0,0,7,82.86a.78.78,0,0,0,.42-.67,1.41,1.41,0,0,1-.42.09,1.37,1.37,0,0,0,.3-.86c-.2.09-.39.26-.65.16a1.58,1.58,0,0,0-1.36-2.17,2.69,2.69,0,0,1,.69,1.72c0,1.91-.53,2.23-.53,3.55a2,2,0,0,0,.85,1.56v0a1.14,1.14,0,0,0-.75.53,5,5,0,0,0,2.76,0,2,2,0,0,0,1.45-1,2.94,2.94,0,0,0,0-2.34c-.51-1.06-2.89-6.12-3.64-7.71a2.67,2.67,0,0,1-.25-1.08,1.35,1.35,0,0,1,1.4-1.32,1.18,1.18,0,0,1,1.22,1c0,.37-.2.59-.48.59-.69,0-.65-.59-.51-1a.86.86,0,0,0-.61.89,1.07,1.07,0,0,0-.68.39.84.84,0,0,0,.68.37c-.13.56.24.8.61.93-.12-.41-.19-.88.51-.88a1.28,1.28,0,0,0,1.14-.42c0,.44.06,2.18.06,2.18,0,.66-.88.64-1.46.45A1.37,1.37,0,0,0,9.41,79a.81.81,0,0,0-.52.79,2.07,2.07,0,0,0,.83,1.5l.16-6.4Z"/></g><g id="use4321-2" data-name="use4321"><path id="uorn-2" data-name="uorn" class="cls-2" d="M9.72,92.59s.78.66,1,.33c.43-.53-1.3-3.16-1.3-4.08,0-1.52,1-1.94,2.26-2.15a8.71,8.71,0,0,1,2.21.06,1,1,0,0,1-.86.47,1.84,1.84,0,0,1,1,1.65c0,1.3-.54,1.84-.54,3.32a4.41,4.41,0,0,0,.67,1.86A1.6,1.6,0,0,1,12.74,92a.61.61,0,0,0-.51.16.88.88,0,0,1,.24-.77c-.15-.08-.26,0-.5,0a1.12,1.12,0,0,1,.54-.77,1.29,1.29,0,0,1-1.72-1.24.94.94,0,0,1,.82-1,.83.83,0,0,1,.43.13.68.68,0,0,0,0-.54c.3.08.49.26.35.62a.76.76,0,0,1,.53.24.65.65,0,0,1-.53.25c.17.34,0,.53-.28.68,0,0,.17-.68-.27-.68-.19,0-.37.06-.37.35a.62.62,0,0,0,.72.57c.51,0,.92-.35.92-1.15s-.6-1.12-1.39-1.15a1.09,1.09,0,0,0-1.26,1.11c0,1,1.42,3.22,1.42,4.09a1.09,1.09,0,0,1-1.17,1,2.16,2.16,0,0,1-1.38-.74l.44-.56Z"/></g><g id="use4303-4" data-name="use4303"><path id="orn-4" data-name="orn" class="cls-2" d="M9.56,46.09a2.57,2.57,0,0,1,2.63-2.49,2.13,2.13,0,0,1,2.39,2.16,3.66,3.66,0,0,1-.45,1.79L10.56,55a2.1,2.1,0,0,0-.17,1,1.31,1.31,0,0,0,2.61,0c0-.82-.42-1.18-.86-1.18s-.75.22-.75.6.13.37.31.37c.46,0,.33-.62.33-.62a.43.43,0,0,1,.31.58.77.77,0,0,1,.45.26.91.91,0,0,1-.45.25c.11.35,0,.52-.34.6a.64.64,0,0,0,0-.38.94.94,0,0,1-1.24-.93,1.33,1.33,0,0,1,1.68-1.37.77.77,0,0,1-.42-.66,1.62,1.62,0,0,0,.42.08,1.37,1.37,0,0,1-.3-.86c.2.09.39.27.65.16a1.59,1.59,0,0,1,1.36-2.17,2.69,2.69,0,0,0-.69,1.73c0,1.9.53,2.22.53,3.54a2,2,0,0,1-.85,1.56v0a1.14,1.14,0,0,1,.75.53,5.15,5.15,0,0,1-2.76,0,2,2,0,0,1-1.45-1,2.93,2.93,0,0,1,0-2.34c.51-1.06,2.89-6.12,3.64-7.71a2.63,2.63,0,0,0,.25-1.08,1.35,1.35,0,0,0-1.4-1.32,1.18,1.18,0,0,0-1.22,1c0,.37.2.59.48.59.69,0,.65-.59.51-1a.86.86,0,0,1,.61.89,1.07,1.07,0,0,1,.68.39.84.84,0,0,1-.68.37c.13.56-.24.8-.61.93.12-.41.19-.88-.51-.88a1.28,1.28,0,0,1-1.14-.42c0,.44-.06,2.19-.06,2.19,0,.65.88.63,1.46.44A1.37,1.37,0,0,1,10,50.2a.81.81,0,0,1,.52.79,2.07,2.07,0,0,1-.83,1.5l-.16-6.4Z"/></g><g id="use4303-5" data-name="use4303"><path id="orn-5" data-name="orn" class="cls-2" d="M9.88,46.09A2.57,2.57,0,0,0,7.25,43.6a2.13,2.13,0,0,0-2.39,2.16,3.66,3.66,0,0,0,.45,1.79L8.88,55a2.1,2.1,0,0,1,.17,1,1.31,1.31,0,0,1-2.61,0c0-.82.42-1.18.86-1.18s.74.22.74.6-.12.37-.3.37c-.46,0-.33-.62-.33-.62a.43.43,0,0,0-.31.58.77.77,0,0,0-.45.26.91.91,0,0,0,.45.25c-.11.35,0,.52.34.6a.64.64,0,0,1,0-.38.94.94,0,0,0,1.24-.93A1.33,1.33,0,0,0,7,54.11a.77.77,0,0,0,.42-.66,1.62,1.62,0,0,1-.42.08,1.37,1.37,0,0,0,.3-.86c-.2.09-.39.27-.65.16a1.59,1.59,0,0,0-1.36-2.17,2.69,2.69,0,0,1,.69,1.73c0,1.9-.53,2.22-.53,3.54a2,2,0,0,0,.85,1.56v0a1.14,1.14,0,0,0-.75.53,5.15,5.15,0,0,0,2.76,0,2,2,0,0,0,1.45-1,2.93,2.93,0,0,0,0-2.34C9.21,53.6,6.83,48.54,6.08,47a2.63,2.63,0,0,1-.25-1.08,1.35,1.35,0,0,1,1.4-1.32,1.18,1.18,0,0,1,1.22,1c0,.37-.2.59-.48.59-.69,0-.65-.59-.51-1a.86.86,0,0,0-.61.89,1.07,1.07,0,0,0-.68.39.84.84,0,0,0,.68.37c-.13.56.24.8.61.93-.12-.41-.19-.88.51-.88a1.28,1.28,0,0,0,1.14-.42c0,.44.06,2.19.06,2.19,0,.65-.88.63-1.46.44a1.37,1.37,0,0,0,1.7,1.06.81.81,0,0,0-.52.79,2.07,2.07,0,0,0,.83,1.5l.16-6.4Z"/></g><g id="use4303-6" data-name="use4303"><path id="orn-6" data-name="orn" class="cls-2" d="M9.88,41.16a2.57,2.57,0,0,1-2.63,2.49,2.13,2.13,0,0,1-2.39-2.16,3.66,3.66,0,0,1,.45-1.79l3.57-7.42a2.1,2.1,0,0,0,.17-1,1.31,1.31,0,0,0-2.61,0c0,.82.42,1.18.86,1.18s.74-.22.74-.59-.12-.38-.3-.38c-.46,0-.33.62-.33.62a.42.42,0,0,1-.31-.58.77.77,0,0,1-.45-.26.83.83,0,0,1,.45-.24.42.42,0,0,1,.34-.61.65.65,0,0,0,0,.38,1,1,0,0,1,1.24.93A1.33,1.33,0,0,1,7,33.14a.78.78,0,0,1,.42.67A1.41,1.41,0,0,0,7,33.72a1.37,1.37,0,0,1,.3.86c-.2-.09-.39-.26-.65-.16a1.58,1.58,0,0,1-1.36,2.17,2.69,2.69,0,0,0,.69-1.72c0-1.91-.53-2.23-.53-3.55a2,2,0,0,1,.85-1.56v0a1.14,1.14,0,0,1-.75-.53,5,5,0,0,1,2.76,0,2,2,0,0,1,1.45,1,2.94,2.94,0,0,1,0,2.34c-.51,1.06-2.89,6.12-3.64,7.71a2.67,2.67,0,0,0-.25,1.08,1.35,1.35,0,0,0,1.4,1.32,1.18,1.18,0,0,0,1.22-1c0-.37-.2-.59-.48-.59-.69,0-.65.59-.51,1a.86.86,0,0,1-.61-.89,1.07,1.07,0,0,1-.68-.39.84.84,0,0,1,.68-.37c-.13-.56.24-.8.61-.93-.12.41-.19.88.51.88a1.28,1.28,0,0,1,1.14.42c0-.44.06-2.18.06-2.18,0-.66-.88-.64-1.46-.45a1.37,1.37,0,0,1,1.7-1.06.81.81,0,0,1-.52-.79,2.07,2.07,0,0,1,.83-1.5l.16,6.4Z"/></g><g id="use4303-7" data-name="use4303"><path id="orn-7" data-name="orn" class="cls-2" d="M9.88,69.91A2.57,2.57,0,0,1,7.25,72.4a2.13,2.13,0,0,1-2.39-2.16,3.66,3.66,0,0,1,.45-1.79L8.88,61a2.1,2.1,0,0,0,.17-1,1.31,1.31,0,0,0-2.61,0c0,.82.42,1.18.86,1.18S8,61,8,60.65s-.12-.37-.3-.37c-.46,0-.33.62-.33.62a.43.43,0,0,1-.31-.58.77.77,0,0,1-.45-.26.91.91,0,0,1,.45-.25c-.11-.35,0-.52.34-.6a.64.64,0,0,0,0,.38.94.94,0,0,1,1.24.93A1.33,1.33,0,0,1,7,61.89a.77.77,0,0,1,.42.66A1.62,1.62,0,0,0,7,62.47a1.37,1.37,0,0,1,.3.86c-.2-.09-.39-.27-.65-.16a1.59,1.59,0,0,1-1.36,2.17,2.69,2.69,0,0,0,.69-1.73c0-1.9-.53-2.22-.53-3.54a2,2,0,0,1,.85-1.56v0A1.14,1.14,0,0,1,5.51,58a5.15,5.15,0,0,1,2.76,0,2,2,0,0,1,1.45,1,2.93,2.93,0,0,1,0,2.34c-.51,1.06-2.89,6.12-3.64,7.71a2.67,2.67,0,0,0-.25,1.08,1.35,1.35,0,0,0,1.4,1.32,1.18,1.18,0,0,0,1.22-1c0-.37-.2-.59-.48-.59-.69,0-.65.59-.51,1a.86.86,0,0,1-.61-.89,1.07,1.07,0,0,1-.68-.39.84.84,0,0,1,.68-.37c-.13-.56.24-.8.61-.93-.12.41-.19.88.51.88a1.28,1.28,0,0,1,1.14.42c0-.44.06-2.19.06-2.19,0-.65-.88-.63-1.46-.44a1.37,1.37,0,0,1,1.7-1.06A.81.81,0,0,1,8.89,65a2.07,2.07,0,0,1,.83-1.5l.16,6.4Z"/></g><g id="use4303-8" data-name="use4303"><path id="orn-8" data-name="orn" class="cls-2" d="M9.56,69.91a2.57,2.57,0,0,0,2.63,2.49,2.13,2.13,0,0,0,2.39-2.16,3.66,3.66,0,0,0-.45-1.79L10.56,61a2.1,2.1,0,0,1-.17-1,1.31,1.31,0,0,1,2.61,0c0,.82-.42,1.18-.86,1.18s-.75-.22-.75-.6.13-.37.31-.37c.46,0,.33.62.33.62a.43.43,0,0,0,.31-.58.77.77,0,0,0,.45-.26.91.91,0,0,0-.45-.25c.11-.35,0-.52-.34-.6a.64.64,0,0,1,0,.38.94.94,0,0,0-1.24.93,1.33,1.33,0,0,0,1.68,1.37.77.77,0,0,0-.42.66,1.62,1.62,0,0,1,.42-.08,1.37,1.37,0,0,0-.3.86c.2-.09.39-.27.65-.16a1.59,1.59,0,0,0,1.36,2.17,2.69,2.69,0,0,1-.69-1.73c0-1.9.53-2.22.53-3.54a2,2,0,0,0-.85-1.56v0a1.14,1.14,0,0,0,.75-.53,5.15,5.15,0,0,0-2.76,0,2,2,0,0,0-1.45,1,2.93,2.93,0,0,0,0,2.34c.51,1.06,2.89,6.12,3.64,7.71a2.67,2.67,0,0,1,.25,1.08,1.35,1.35,0,0,1-1.4,1.32,1.18,1.18,0,0,1-1.22-1c0-.37.2-.59.48-.59.69,0,.65.59.51,1a.86.86,0,0,0,.61-.89,1.07,1.07,0,0,0,.68-.39.84.84,0,0,0-.68-.37c.13-.56-.24-.8-.61-.93.12.41.19.88-.51.88a1.28,1.28,0,0,0-1.14.42c0-.44-.06-2.19-.06-2.19,0-.65.88-.63,1.46-.44A1.37,1.37,0,0,0,10,65.8a.81.81,0,0,0,.52-.79,2.07,2.07,0,0,0-.83-1.5l-.16,6.4Z"/></g><g id="use4321-3" data-name="use4321"><path id="uorn-3" data-name="uorn" class="cls-2" d="M9.72,23.41s.78-.66,1-.33c.43.53-1.3,3.16-1.3,4.08,0,1.52,1,1.94,2.26,2.15a8.71,8.71,0,0,0,2.21-.06,1,1,0,0,0-.86-.47,1.84,1.84,0,0,0,1-1.65c0-1.3-.54-1.84-.54-3.32A4.41,4.41,0,0,1,14.18,22a1.6,1.6,0,0,0-1.44,2.1.61.61,0,0,1-.51-.16.88.88,0,0,0,.24.77c-.15.08-.26,0-.5,0a1.12,1.12,0,0,0,.54.77,1.29,1.29,0,0,0-1.72,1.24.94.94,0,0,0,.82,1,.83.83,0,0,0,.43-.13.68.68,0,0,1,0,.54c.3-.08.49-.26.35-.62a.76.76,0,0,0,.53-.24.65.65,0,0,0-.53-.25c.17-.34,0-.53-.28-.68,0,0,.17.68-.27.68-.19,0-.37-.06-.37-.35a.62.62,0,0,1,.72-.57c.51,0,.92.35.92,1.15s-.6,1.12-1.39,1.15a1.09,1.09,0,0,1-1.26-1.11c0-1,1.42-3.22,1.42-4.09a1.09,1.09,0,0,0-1.17-1,2.16,2.16,0,0,0-1.38.74l.44.56Z"/></g><g id="use4321-4" data-name="use4321"><path id="uorn-4" data-name="uorn" class="cls-2" d="M9.72,23.41s-.78-.66-1-.33c-.43.53,1.3,3.16,1.3,4.08,0,1.52-1,1.94-2.26,2.15a8.71,8.71,0,0,1-2.21-.06,1,1,0,0,1,.86-.47,1.84,1.84,0,0,1-1-1.65c0-1.3.54-1.84.54-3.32A4.41,4.41,0,0,0,5.26,22a1.6,1.6,0,0,1,1.44,2.1.61.61,0,0,0,.51-.16.88.88,0,0,1-.24.77c.15.08.26,0,.5,0a1.12,1.12,0,0,1-.54.77,1.29,1.29,0,0,1,1.72,1.24.94.94,0,0,1-.82,1,.83.83,0,0,1-.43-.13.68.68,0,0,0,0,.54c-.3-.08-.49-.26-.35-.62a.76.76,0,0,1-.53-.24A.65.65,0,0,1,7.1,27c-.17-.34,0-.53.28-.68,0,0-.17.68.27.68.19,0,.37-.06.37-.35A.62.62,0,0,0,7.3,26c-.51,0-.92.35-.92,1.15s.6,1.12,1.39,1.15A1.09,1.09,0,0,0,9,27.23c0-1-1.42-3.22-1.42-4.09a1.09,1.09,0,0,1,1.17-1,2.16,2.16,0,0,1,1.38.74l-.44.56Z"/></g></g></svg>