<svg id="flags" xmlns="http://www.w3.org/2000/svg" viewBox="0 0 162 116"><defs><style>.cls-1{fill:#cc0001;}.cls-2{fill:#fff;}.cls-3{fill:#010066;}.cls-4{fill:#fc0;}</style></defs><title>mys</title><g id="MALASIA"><rect id="red" class="cls-1" y="17.5" width="162" height="81"/><rect id="white" class="cls-2" y="92.71" width="162" height="5.79"/><g id="use3035"><rect id="white-2" data-name="white" class="cls-2" y="81.14" width="162" height="5.79"/></g><g id="use3038"><rect id="white-3" data-name="white" class="cls-2" y="69.57" width="162" height="5.79"/></g><g id="use3062"><rect id="white-4" data-name="white" class="cls-2" y="58" width="162" height="5.79"/></g><g id="use3064"><rect id="white-5" data-name="white" class="cls-2" y="46.43" width="162" height="5.79"/></g><g id="use3066"><rect id="white-6" data-name="white" class="cls-2" y="34.86" width="162" height="5.79"/></g><g id="use3068"><rect id="white-7" data-name="white" class="cls-2" y="23.29" width="162" height="5.79"/></g><rect id="blue" class="cls-3" y="17.5" width="81" height="46.29"/><path id="path4945" class="cls-4" d="M33.33,23.29a17.36,17.36,0,1,0,9.42,32,15.6,15.6,0,0,1-5,.84,15.39,15.39,0,1,1,5.36-29.83A17.38,17.38,0,0,0,33.33,23.29Z"/><path id="path4959" class="cls-4" d="M62.21,49.68l-7.34-3.83L57,53.68l-4.91-6.55-1.53,8-1.5-8-4.93,6.54,2.19-7.83L39,49.64l5.45-6.12-8.31.32,7.64-3.21L36.17,37.4l8.31.35L39,31.61l7.34,3.82L44.21,27.6l4.91,6.55,1.53-8,1.5,8,4.93-6.54-2.19,7.83,7.34-3.81-5.45,6.13,8.31-.32-7.64,3.2,7.63,3.23-8.31-.34Z"/><path d="M162,98.5H0V17.36H162ZM.15,98.37h161.7V17.48H.15Z"/></g></svg>