<svg id="flags" xmlns="http://www.w3.org/2000/svg" xmlns:xlink="http://www.w3.org/1999/xlink" viewBox="0 0 162 116"><defs><style>.cls-1{fill:none;}.cls-2{clip-path:url(#clip-path);}.cls-3{fill:#fff;}.cls-4{fill:#b22234;}.cls-5{fill:#3c3b6e;}</style><clipPath id="clip-path"><rect class="cls-1" x="-0.06" y="15.36" width="162" height="85.27"/></clipPath></defs><title>usa</title><g id="ESTADOS_UNIDOS" data-name="ESTADOS UNIDOS"><g class="cls-2"><rect class="cls-3" x="-0.08" y="15.36" width="162.02" height="85.27"/><rect class="cls-4" x="-0.08" y="15.36" width="162.02" height="6.56"/><rect class="cls-4" x="-0.08" y="28.48" width="162.02" height="6.56"/><rect class="cls-4" x="-0.08" y="41.6" width="162.02" height="6.56"/><rect class="cls-4" x="-0.08" y="54.72" width="162.02" height="6.56"/><rect class="cls-4" x="-0.08" y="67.84" width="162.02" height="6.56"/><rect class="cls-4" x="-0.08" y="80.96" width="162.02" height="6.56"/><rect class="cls-4" x="-0.08" y="94.08" width="162.02" height="6.56"/><rect class="cls-5" x="-0.08" y="15.36" width="64.81" height="45.92"/></g><polygon class="cls-3" points="6.15 20.4 3.92 22.03 4.77 19.4 6.15 20.4"/><polygon class="cls-3" points="5.2 20.71 2.96 19.09 5.73 19.09 5.2 20.71"/><polygon class="cls-3" points="4.61 19.9 5.46 17.28 6.32 19.9 4.61 19.9"/><polygon class="cls-3" points="5.2 19.09 7.96 19.09 5.73 20.71 5.2 19.09"/><polygon class="cls-3" points="6.15 19.4 7.01 22.03 4.77 20.4 6.15 19.4"/><polygon class="cls-3" points="16.9 20.4 14.66 22.03 15.52 19.4 16.9 20.4"/><polygon class="cls-3" points="15.94 20.71 13.71 19.09 16.47 19.09 15.94 20.71"/><polygon class="cls-3" points="15.35 19.9 16.21 17.28 17.06 19.9 15.35 19.9"/><polygon class="cls-3" points="15.94 19.09 18.7 19.09 16.47 20.71 15.94 19.09"/><polygon class="cls-3" points="16.9 19.4 17.75 22.03 15.52 20.4 16.9 19.4"/><polygon class="cls-3" points="27.64 20.4 25.41 22.03 26.26 19.4 27.64 20.4"/><polygon class="cls-3" points="26.69 20.71 24.45 19.09 27.22 19.09 26.69 20.71"/><polygon class="cls-3" points="26.1 19.9 26.95 17.28 27.8 19.9 26.1 19.9"/><polygon class="cls-3" points="26.69 19.09 29.45 19.09 27.22 20.71 26.69 19.09"/><polygon class="cls-3" points="27.64 19.4 28.5 22.03 26.26 20.4 27.64 19.4"/><polygon class="cls-3" points="38.39 20.4 36.15 22.03 37.01 19.4 38.39 20.4"/><polygon class="cls-3" points="37.43 20.71 35.2 19.09 37.96 19.09 37.43 20.71"/><polygon class="cls-3" points="36.84 19.9 37.7 17.28 38.55 19.9 36.84 19.9"/><polygon class="cls-3" points="37.43 19.09 40.2 19.09 37.96 20.71 37.43 19.09"/><polygon class="cls-3" points="38.39 19.4 39.24 22.03 37.01 20.4 38.39 19.4"/><polygon class="cls-3" points="49.13 20.4 46.9 22.03 47.75 19.4 49.13 20.4"/><polygon class="cls-3" points="48.18 20.71 45.94 19.09 48.7 19.09 48.18 20.71"/><polygon class="cls-3" points="47.59 19.9 48.44 17.28 49.29 19.9 47.59 19.9"/><polygon class="cls-3" points="48.18 19.09 50.94 19.09 48.7 20.71 48.18 19.09"/><polygon class="cls-3" points="49.13 19.4 49.98 22.03 47.75 20.4 49.13 19.4"/><polygon class="cls-3" points="59.88 20.4 57.64 22.03 58.49 19.4 59.88 20.4"/><polygon class="cls-3" points="58.92 20.71 56.69 19.09 59.45 19.09 58.92 20.71"/><polygon class="cls-3" points="58.33 19.9 59.19 17.28 60.04 19.9 58.33 19.9"/><polygon class="cls-3" points="58.92 19.09 61.68 19.09 59.45 20.71 58.92 19.09"/><polygon class="cls-3" points="59.88 19.4 60.73 22.03 58.49 20.4 59.88 19.4"/><polygon class="cls-3" points="11.53 25.01 9.29 26.63 10.14 24.01 11.53 25.01"/><polygon class="cls-3" points="10.57 25.32 8.34 23.7 11.1 23.7 10.57 25.32"/><polygon class="cls-3" points="9.98 24.51 10.84 21.88 11.69 24.51 9.98 24.51"/><polygon class="cls-3" points="10.57 23.7 13.33 23.7 11.1 25.32 10.57 23.7"/><polygon class="cls-3" points="11.53 24.01 12.38 26.63 10.14 25.01 11.53 24.01"/><polygon class="cls-3" points="22.27 25.01 20.04 26.63 20.89 24.01 22.27 25.01"/><polygon class="cls-3" points="21.32 25.32 19.08 23.7 21.84 23.7 21.32 25.32"/><polygon class="cls-3" points="20.73 24.51 21.58 21.88 22.43 24.51 20.73 24.51"/><polygon class="cls-3" points="21.32 23.7 24.08 23.7 21.84 25.32 21.32 23.7"/><polygon class="cls-3" points="22.27 24.01 23.12 26.63 20.89 25.01 22.27 24.01"/><polygon class="cls-3" points="33.01 25.01 30.78 26.63 31.63 24.01 33.01 25.01"/><polygon class="cls-3" points="32.06 25.32 29.83 23.7 32.59 23.7 32.06 25.32"/><polygon class="cls-3" points="31.47 24.51 32.33 21.88 33.18 24.51 31.47 24.51"/><polygon class="cls-3" points="32.06 23.7 34.82 23.7 32.59 25.32 32.06 23.7"/><polygon class="cls-3" points="33.01 24.01 33.87 26.63 31.63 25.01 33.01 24.01"/><polygon class="cls-3" points="43.76 25.01 41.52 26.63 42.38 24.01 43.76 25.01"/><polygon class="cls-3" points="42.8 25.32 40.57 23.7 43.33 23.7 42.8 25.32"/><polygon class="cls-3" points="42.22 24.51 43.07 21.88 43.92 24.51 42.22 24.51"/><polygon class="cls-3" points="42.8 23.7 45.57 23.7 43.33 25.32 42.8 23.7"/><polygon class="cls-3" points="43.76 24.01 44.61 26.63 42.38 25.01 43.76 24.01"/><polygon class="cls-3" points="54.5 25.01 52.27 26.63 53.12 24.01 54.5 25.01"/><polygon class="cls-3" points="53.55 25.32 51.31 23.7 54.08 23.7 53.55 25.32"/><polygon class="cls-3" points="52.96 24.51 53.81 21.88 54.67 24.51 52.96 24.51"/><polygon class="cls-3" points="53.55 23.7 56.31 23.7 54.08 25.32 53.55 23.7"/><polygon class="cls-3" points="54.5 24.01 55.36 26.63 53.12 25.01 54.5 24.01"/><polygon class="cls-3" points="6.15 29.61 3.92 31.24 4.77 28.61 6.15 29.61"/><polygon class="cls-3" points="5.2 29.92 2.96 28.3 5.73 28.3 5.2 29.92"/><polygon class="cls-3" points="4.61 29.11 5.46 26.49 6.32 29.11 4.61 29.11"/><polygon class="cls-3" points="5.2 28.3 7.96 28.3 5.73 29.92 5.2 28.3"/><polygon class="cls-3" points="6.15 28.61 7.01 31.24 4.77 29.61 6.15 28.61"/><polygon class="cls-3" points="16.9 29.61 14.66 31.24 15.52 28.61 16.9 29.61"/><polygon class="cls-3" points="15.94 29.92 13.71 28.3 16.47 28.3 15.94 29.92"/><polygon class="cls-3" points="15.35 29.11 16.21 26.49 17.06 29.11 15.35 29.11"/><polygon class="cls-3" points="15.94 28.3 18.7 28.3 16.47 29.92 15.94 28.3"/><polygon class="cls-3" points="16.9 28.61 17.75 31.24 15.52 29.61 16.9 28.61"/><polygon class="cls-3" points="27.64 29.61 25.41 31.24 26.26 28.61 27.64 29.61"/><polygon class="cls-3" points="26.69 29.92 24.45 28.3 27.22 28.3 26.69 29.92"/><polygon class="cls-3" points="26.1 29.11 26.95 26.49 27.8 29.11 26.1 29.11"/><polygon class="cls-3" points="26.69 28.3 29.45 28.3 27.22 29.92 26.69 28.3"/><polygon class="cls-3" points="27.64 28.61 28.5 31.24 26.26 29.61 27.64 28.61"/><polygon class="cls-3" points="38.39 29.61 36.15 31.24 37.01 28.61 38.39 29.61"/><polygon class="cls-3" points="37.43 29.92 35.2 28.3 37.96 28.3 37.43 29.92"/><polygon class="cls-3" points="36.84 29.11 37.7 26.49 38.55 29.11 36.84 29.11"/><polygon class="cls-3" points="37.43 28.3 40.2 28.3 37.96 29.92 37.43 28.3"/><polygon class="cls-3" points="38.39 28.61 39.24 31.24 37.01 29.61 38.39 28.61"/><polygon class="cls-3" points="49.13 29.61 46.9 31.24 47.75 28.61 49.13 29.61"/><polygon class="cls-3" points="48.18 29.92 45.94 28.3 48.7 28.3 48.18 29.92"/><polygon class="cls-3" points="47.59 29.11 48.44 26.49 49.29 29.11 47.59 29.11"/><polygon class="cls-3" points="48.18 28.3 50.94 28.3 48.7 29.92 48.18 28.3"/><polygon class="cls-3" points="49.13 28.61 49.98 31.24 47.75 29.61 49.13 28.61"/><polygon class="cls-3" points="59.88 29.61 57.64 31.24 58.49 28.61 59.88 29.61"/><polygon class="cls-3" points="58.92 29.92 56.69 28.3 59.45 28.3 58.92 29.92"/><polygon class="cls-3" points="58.33 29.11 59.19 26.49 60.04 29.11 58.33 29.11"/><polygon class="cls-3" points="58.92 28.3 61.68 28.3 59.45 29.92 58.92 28.3"/><polygon class="cls-3" points="59.88 28.61 60.73 31.24 58.49 29.61 59.88 28.61"/><polygon class="cls-3" points="11.53 34.22 9.29 35.84 10.14 33.22 11.53 34.22"/><polygon class="cls-3" points="10.57 34.53 8.34 32.91 11.1 32.91 10.57 34.53"/><polygon class="cls-3" points="9.98 33.72 10.84 31.09 11.69 33.72 9.98 33.72"/><polygon class="cls-3" points="10.57 32.91 13.33 32.91 11.1 34.53 10.57 32.91"/><polygon class="cls-3" points="11.53 33.22 12.38 35.84 10.14 34.22 11.53 33.22"/><polygon class="cls-3" points="22.27 34.22 20.04 35.84 20.89 33.22 22.27 34.22"/><polygon class="cls-3" points="21.32 34.53 19.08 32.91 21.84 32.91 21.32 34.53"/><polygon class="cls-3" points="20.73 33.72 21.58 31.09 22.43 33.72 20.73 33.72"/><polygon class="cls-3" points="21.32 32.91 24.08 32.91 21.84 34.53 21.32 32.91"/><polygon class="cls-3" points="22.27 33.22 23.12 35.84 20.89 34.22 22.27 33.22"/><polygon class="cls-3" points="33.01 34.22 30.78 35.84 31.63 33.22 33.01 34.22"/><polygon class="cls-3" points="32.06 34.53 29.83 32.91 32.59 32.91 32.06 34.53"/><polygon class="cls-3" points="31.47 33.72 32.33 31.09 33.18 33.72 31.47 33.72"/><polygon class="cls-3" points="32.06 32.91 34.82 32.91 32.59 34.53 32.06 32.91"/><polygon class="cls-3" points="33.01 33.22 33.87 35.84 31.63 34.22 33.01 33.22"/><polygon class="cls-3" points="43.76 34.22 41.52 35.84 42.38 33.22 43.76 34.22"/><polygon class="cls-3" points="42.8 34.53 40.57 32.91 43.33 32.91 42.8 34.53"/><polygon class="cls-3" points="42.22 33.72 43.07 31.09 43.92 33.72 42.22 33.72"/><polygon class="cls-3" points="42.8 32.91 45.57 32.91 43.33 34.53 42.8 32.91"/><polygon class="cls-3" points="43.76 33.22 44.61 35.84 42.38 34.22 43.76 33.22"/><polygon class="cls-3" points="54.5 34.22 52.27 35.84 53.12 33.22 54.5 34.22"/><polygon class="cls-3" points="53.55 34.53 51.31 32.91 54.08 32.91 53.55 34.53"/><polygon class="cls-3" points="52.96 33.72 53.81 31.09 54.67 33.72 52.96 33.72"/><polygon class="cls-3" points="53.55 32.91 56.31 32.91 54.08 34.53 53.55 32.91"/><polygon class="cls-3" points="54.5 33.22 55.36 35.84 53.12 34.22 54.5 33.22"/><polygon class="cls-3" points="6.15 38.82 3.92 40.45 4.77 37.82 6.15 38.82"/><polygon class="cls-3" points="5.2 39.13 2.96 37.51 5.73 37.51 5.2 39.13"/><polygon class="cls-3" points="4.61 38.32 5.46 35.7 6.32 38.32 4.61 38.32"/><polygon class="cls-3" points="5.2 37.51 7.96 37.51 5.73 39.13 5.2 37.51"/><polygon class="cls-3" points="6.15 37.82 7.01 40.45 4.77 38.82 6.15 37.82"/><polygon class="cls-3" points="16.9 38.82 14.66 40.45 15.52 37.82 16.9 38.82"/><polygon class="cls-3" points="15.94 39.13 13.71 37.51 16.47 37.51 15.94 39.13"/><polygon class="cls-3" points="15.35 38.32 16.21 35.7 17.06 38.32 15.35 38.32"/><polygon class="cls-3" points="15.94 37.51 18.7 37.51 16.47 39.13 15.94 37.51"/><polygon class="cls-3" points="16.9 37.82 17.75 40.45 15.52 38.82 16.9 37.82"/><polygon class="cls-3" points="27.64 38.82 25.41 40.45 26.26 37.82 27.64 38.82"/><polygon class="cls-3" points="26.69 39.13 24.45 37.51 27.22 37.51 26.69 39.13"/><polygon class="cls-3" points="26.1 38.32 26.95 35.7 27.8 38.32 26.1 38.32"/><polygon class="cls-3" points="26.69 37.51 29.45 37.51 27.22 39.13 26.69 37.51"/><polygon class="cls-3" points="27.64 37.82 28.5 40.45 26.26 38.82 27.64 37.82"/><polygon class="cls-3" points="38.39 38.82 36.15 40.45 37.01 37.82 38.39 38.82"/><polygon class="cls-3" points="37.43 39.13 35.2 37.51 37.96 37.51 37.43 39.13"/><polygon class="cls-3" points="36.84 38.32 37.7 35.7 38.55 38.32 36.84 38.32"/><polygon class="cls-3" points="37.43 37.51 40.2 37.51 37.96 39.13 37.43 37.51"/><polygon class="cls-3" points="38.39 37.82 39.24 40.45 37.01 38.82 38.39 37.82"/><polygon class="cls-3" points="49.13 38.82 46.9 40.45 47.75 37.82 49.13 38.82"/><polygon class="cls-3" points="48.18 39.13 45.94 37.51 48.7 37.51 48.18 39.13"/><polygon class="cls-3" points="47.59 38.32 48.44 35.7 49.29 38.32 47.59 38.32"/><polygon class="cls-3" points="48.18 37.51 50.94 37.51 48.7 39.13 48.18 37.51"/><polygon class="cls-3" points="49.13 37.82 49.98 40.45 47.75 38.82 49.13 37.82"/><polygon class="cls-3" points="59.88 38.82 57.64 40.45 58.49 37.82 59.88 38.82"/><polygon class="cls-3" points="58.92 39.13 56.69 37.51 59.45 37.51 58.92 39.13"/><polygon class="cls-3" points="58.33 38.32 59.19 35.7 60.04 38.32 58.33 38.32"/><polygon class="cls-3" points="58.92 37.51 61.68 37.51 59.45 39.13 58.92 37.51"/><polygon class="cls-3" points="59.88 37.82 60.73 40.45 58.49 38.82 59.88 37.82"/><polygon class="cls-3" points="11.53 43.43 9.29 45.05 10.14 42.42 11.53 43.43"/><polygon class="cls-3" points="10.57 43.74 8.34 42.11 11.1 42.11 10.57 43.74"/><polygon class="cls-3" points="9.98 42.93 10.84 40.3 11.69 42.93 9.98 42.93"/><polygon class="cls-3" points="10.57 42.11 13.33 42.11 11.1 43.74 10.57 42.11"/><polygon class="cls-3" points="11.53 42.42 12.38 45.05 10.14 43.43 11.53 42.42"/><polygon class="cls-3" points="22.27 43.43 20.04 45.05 20.89 42.42 22.27 43.43"/><polygon class="cls-3" points="21.32 43.74 19.08 42.11 21.84 42.11 21.32 43.74"/><polygon class="cls-3" points="20.73 42.93 21.58 40.3 22.43 42.93 20.73 42.93"/><polygon class="cls-3" points="21.32 42.11 24.08 42.11 21.84 43.74 21.32 42.11"/><polygon class="cls-3" points="22.27 42.42 23.12 45.05 20.89 43.43 22.27 42.42"/><polygon class="cls-3" points="33.01 43.43 30.78 45.05 31.63 42.42 33.01 43.43"/><polygon class="cls-3" points="32.06 43.74 29.83 42.11 32.59 42.11 32.06 43.74"/><polygon class="cls-3" points="31.47 42.93 32.33 40.3 33.18 42.93 31.47 42.93"/><polygon class="cls-3" points="32.06 42.11 34.82 42.11 32.59 43.74 32.06 42.11"/><polygon class="cls-3" points="33.01 42.42 33.87 45.05 31.63 43.43 33.01 42.42"/><polygon class="cls-3" points="43.76 43.43 41.52 45.05 42.38 42.42 43.76 43.43"/><polygon class="cls-3" points="42.8 43.74 40.57 42.11 43.33 42.11 42.8 43.74"/><polygon class="cls-3" points="42.22 42.93 43.07 40.3 43.92 42.93 42.22 42.93"/><polygon class="cls-3" points="42.8 42.11 45.57 42.11 43.33 43.74 42.8 42.11"/><polygon class="cls-3" points="43.76 42.42 44.61 45.05 42.38 43.43 43.76 42.42"/><polygon class="cls-3" points="54.5 43.43 52.27 45.05 53.12 42.42 54.5 43.43"/><polygon class="cls-3" points="53.55 43.74 51.31 42.11 54.08 42.11 53.55 43.74"/><polygon class="cls-3" points="52.96 42.93 53.81 40.3 54.67 42.93 52.96 42.93"/><polygon class="cls-3" points="53.55 42.11 56.31 42.11 54.08 43.74 53.55 42.11"/><polygon class="cls-3" points="54.5 42.42 55.36 45.05 53.12 43.43 54.5 42.42"/><polygon class="cls-3" points="6.15 48.03 3.92 49.66 4.77 47.03 6.15 48.03"/><polygon class="cls-3" points="5.2 48.34 2.96 46.72 5.73 46.72 5.2 48.34"/><polygon class="cls-3" points="4.61 47.53 5.46 44.91 6.32 47.53 4.61 47.53"/><polygon class="cls-3" points="5.2 46.72 7.96 46.72 5.73 48.34 5.2 46.72"/><polygon class="cls-3" points="6.15 47.03 7.01 49.66 4.77 48.03 6.15 47.03"/><polygon class="cls-3" points="16.9 48.03 14.66 49.66 15.52 47.03 16.9 48.03"/><polygon class="cls-3" points="15.94 48.34 13.71 46.72 16.47 46.72 15.94 48.34"/><polygon class="cls-3" points="15.35 47.53 16.21 44.91 17.06 47.53 15.35 47.53"/><polygon class="cls-3" points="15.94 46.72 18.7 46.72 16.47 48.34 15.94 46.72"/><polygon class="cls-3" points="16.9 47.03 17.75 49.66 15.52 48.03 16.9 47.03"/><polygon class="cls-3" points="27.64 48.03 25.41 49.66 26.26 47.03 27.64 48.03"/><polygon class="cls-3" points="26.69 48.34 24.45 46.72 27.22 46.72 26.69 48.34"/><polygon class="cls-3" points="26.1 47.53 26.95 44.91 27.8 47.53 26.1 47.53"/><polygon class="cls-3" points="26.69 46.72 29.45 46.72 27.22 48.34 26.69 46.72"/><polygon class="cls-3" points="27.64 47.03 28.5 49.66 26.26 48.03 27.64 47.03"/><polygon class="cls-3" points="38.39 48.03 36.15 49.66 37.01 47.03 38.39 48.03"/><polygon class="cls-3" points="37.43 48.34 35.2 46.72 37.96 46.72 37.43 48.34"/><polygon class="cls-3" points="36.84 47.53 37.7 44.91 38.55 47.53 36.84 47.53"/><polygon class="cls-3" points="37.43 46.72 40.2 46.72 37.96 48.34 37.43 46.72"/><polygon class="cls-3" points="38.39 47.03 39.24 49.66 37.01 48.03 38.39 47.03"/><polygon class="cls-3" points="49.13 48.03 46.9 49.66 47.75 47.03 49.13 48.03"/><polygon class="cls-3" points="48.18 48.34 45.94 46.72 48.7 46.72 48.18 48.34"/><polygon class="cls-3" points="47.59 47.53 48.44 44.91 49.29 47.53 47.59 47.53"/><polygon class="cls-3" points="48.18 46.72 50.94 46.72 48.7 48.34 48.18 46.72"/><polygon class="cls-3" points="49.13 47.03 49.98 49.66 47.75 48.03 49.13 47.03"/><polygon class="cls-3" points="59.88 48.03 57.64 49.66 58.49 47.03 59.88 48.03"/><polygon class="cls-3" points="58.92 48.34 56.69 46.72 59.45 46.72 58.92 48.34"/><polygon class="cls-3" points="58.33 47.53 59.19 44.91 60.04 47.53 58.33 47.53"/><polygon class="cls-3" points="58.92 46.72 61.68 46.72 59.45 48.34 58.92 46.72"/><polygon class="cls-3" points="59.88 47.03 60.73 49.66 58.49 48.03 59.88 47.03"/><polygon class="cls-3" points="11.53 52.64 9.29 54.26 10.14 51.63 11.53 52.64"/><polygon class="cls-3" points="10.57 52.95 8.34 51.32 11.1 51.32 10.57 52.95"/><polygon class="cls-3" points="9.98 52.13 10.84 49.51 11.69 52.13 9.98 52.13"/><polygon class="cls-3" points="10.57 51.32 13.33 51.32 11.1 52.95 10.57 51.32"/><polygon class="cls-3" points="11.53 51.63 12.38 54.26 10.14 52.64 11.53 51.63"/><polygon class="cls-3" points="22.27 52.64 20.04 54.26 20.89 51.63 22.27 52.64"/><polygon class="cls-3" points="21.32 52.95 19.08 51.32 21.84 51.32 21.32 52.95"/><polygon class="cls-3" points="20.73 52.13 21.58 49.51 22.43 52.13 20.73 52.13"/><polygon class="cls-3" points="21.32 51.32 24.08 51.32 21.84 52.95 21.32 51.32"/><polygon class="cls-3" points="22.27 51.63 23.12 54.26 20.89 52.64 22.27 51.63"/><polygon class="cls-3" points="33.01 52.64 30.78 54.26 31.63 51.63 33.01 52.64"/><polygon class="cls-3" points="32.06 52.95 29.83 51.32 32.59 51.32 32.06 52.95"/><polygon class="cls-3" points="31.47 52.13 32.33 49.51 33.18 52.13 31.47 52.13"/><polygon class="cls-3" points="32.06 51.32 34.82 51.32 32.59 52.95 32.06 51.32"/><polygon class="cls-3" points="33.01 51.63 33.87 54.26 31.63 52.64 33.01 51.63"/><polygon class="cls-3" points="43.76 52.64 41.52 54.26 42.38 51.63 43.76 52.64"/><polygon class="cls-3" points="42.8 52.95 40.57 51.32 43.33 51.32 42.8 52.95"/><polygon class="cls-3" points="42.22 52.13 43.07 49.51 43.92 52.13 42.22 52.13"/><polygon class="cls-3" points="42.8 51.32 45.57 51.32 43.33 52.95 42.8 51.32"/><polygon class="cls-3" points="43.76 51.63 44.61 54.26 42.38 52.64 43.76 51.63"/><polygon class="cls-3" points="54.5 52.64 52.27 54.26 53.12 51.63 54.5 52.64"/><polygon class="cls-3" points="53.55 52.95 51.31 51.32 54.08 51.32 53.55 52.95"/><polygon class="cls-3" points="52.96 52.13 53.81 49.51 54.67 52.13 52.96 52.13"/><polygon class="cls-3" points="53.55 51.32 56.31 51.32 54.08 52.95 53.55 51.32"/><polygon class="cls-3" points="54.5 51.63 55.36 54.26 53.12 52.64 54.5 51.63"/><polygon class="cls-3" points="6.15 57.24 3.92 58.87 4.77 56.24 6.15 57.24"/><polygon class="cls-3" points="5.2 57.55 2.96 55.93 5.73 55.93 5.2 57.55"/><polygon class="cls-3" points="4.61 56.74 5.46 54.11 6.32 56.74 4.61 56.74"/><polygon class="cls-3" points="5.2 55.93 7.96 55.93 5.73 57.55 5.2 55.93"/><polygon class="cls-3" points="6.15 56.24 7.01 58.87 4.77 57.24 6.15 56.24"/><polygon class="cls-3" points="16.9 57.24 14.66 58.87 15.52 56.24 16.9 57.24"/><polygon class="cls-3" points="15.94 57.55 13.71 55.93 16.47 55.93 15.94 57.55"/><polygon class="cls-3" points="15.35 56.74 16.21 54.11 17.06 56.74 15.35 56.74"/><polygon class="cls-3" points="15.94 55.93 18.7 55.93 16.47 57.55 15.94 55.93"/><polygon class="cls-3" points="16.9 56.24 17.75 58.87 15.52 57.24 16.9 56.24"/><polygon class="cls-3" points="27.64 57.24 25.41 58.87 26.26 56.24 27.64 57.24"/><polygon class="cls-3" points="26.69 57.55 24.45 55.93 27.22 55.93 26.69 57.55"/><polygon class="cls-3" points="26.1 56.74 26.95 54.11 27.8 56.74 26.1 56.74"/><polygon class="cls-3" points="26.69 55.93 29.45 55.93 27.22 57.55 26.69 55.93"/><polygon class="cls-3" points="27.64 56.24 28.5 58.87 26.26 57.24 27.64 56.24"/><polygon class="cls-3" points="38.39 57.24 36.15 58.87 37.01 56.24 38.39 57.24"/><polygon class="cls-3" points="37.43 57.55 35.2 55.93 37.96 55.93 37.43 57.55"/><polygon class="cls-3" points="36.84 56.74 37.7 54.11 38.55 56.74 36.84 56.74"/><polygon class="cls-3" points="37.43 55.93 40.2 55.93 37.96 57.55 37.43 55.93"/><polygon class="cls-3" points="38.39 56.24 39.24 58.87 37.01 57.24 38.39 56.24"/><polygon class="cls-3" points="49.13 57.24 46.9 58.87 47.75 56.24 49.13 57.24"/><polygon class="cls-3" points="48.18 57.55 45.94 55.93 48.7 55.93 48.18 57.55"/><polygon class="cls-3" points="47.59 56.74 48.44 54.11 49.29 56.74 47.59 56.74"/><polygon class="cls-3" points="48.18 55.93 50.94 55.93 48.7 57.55 48.18 55.93"/><polygon class="cls-3" points="49.13 56.24 49.98 58.87 47.75 57.24 49.13 56.24"/><polygon class="cls-3" points="59.88 57.24 57.64 58.87 58.49 56.24 59.88 57.24"/><polygon class="cls-3" points="58.92 57.55 56.69 55.93 59.45 55.93 58.92 57.55"/><polygon class="cls-3" points="58.33 56.74 59.19 54.11 60.04 56.74 58.33 56.74"/><polygon class="cls-3" points="58.92 55.93 61.68 55.93 59.45 57.55 58.92 55.93"/><polygon class="cls-3" points="59.88 56.24 60.73 58.87 58.49 57.24 59.88 56.24"/></g></svg>