<svg id="flags" xmlns="http://www.w3.org/2000/svg" viewBox="0 0 162 116"><defs><style>.cls-1{fill:#fcdd09;}.cls-2{fill:#0072bc;}.cls-3{fill:#da121a;}.cls-4{fill:#fff;}.cls-5{fill:#078930;}</style></defs><title>val</title><g id="valencia"><rect class="cls-1" y="4.22" width="162" height="107.52"/><rect class="cls-2" y="4.22" width="54" height="107.52"/><polygon class="cls-3" points="162 28.12 162 16.17 54.08 16.17 54.08 4.22 42.12 4.22 42.12 111.73 54.08 111.73 54.08 99.78 162 99.78 162 87.83 54.08 87.83 54.08 75.9 162 75.9 162 63.95 54.08 63.95 54.08 52 162 52 162 40.05 54.08 40.05 54.08 28.12 162 28.12"/><path class="cls-1" d="M24.65,102.25s-4.9,10.83-7.08,5.64a1.08,1.08,0,0,0,1.1-.24c.43-.44.38-.84-.11-1.44a1.63,1.63,0,0,0-2.38.41c-.69,1.77,1,4.12,2.48,4,4-.27,4.42-4.53,7.06-8.16.15-.24-1.07-.22-1.07-.22Z"/><path d="M18.55,110.7a2.47,2.47,0,0,1-1.88-1.15,3.19,3.19,0,0,1-.54-3,1.49,1.49,0,0,1,1.19-.77,1.38,1.38,0,0,1,1.29.35c.52.63.55,1.07.11,1.52a1.11,1.11,0,0,1-1,.29c.37.82.84,1.25,1.39,1.25h0c2.32,0,5.48-6.93,5.51-7l0,0h0c.31,0,1,0,1.13.18a.12.12,0,0,1,0,.13,25.37,25.37,0,0,0-2,3.43c-1.25,2.46-2.33,4.58-5.11,4.76Zm-.91-4.78-.3,0a1.39,1.39,0,0,0-1.1.7,3.07,3.07,0,0,0,.53,2.84,2.35,2.35,0,0,0,1.89,1.09c2.7-.19,3.77-2.27,5-4.69a24.63,24.63,0,0,1,2-3.45,2.36,2.36,0,0,0-1-.12,33.63,33.63,0,0,1-1.88,3.51c-1.47,2.36-2.73,3.55-3.74,3.54-.64,0-1.16-.5-1.56-1.45l-.06-.14.14.06a1,1,0,0,0,1-.23c.4-.4.36-.76-.12-1.35A1.14,1.14,0,0,0,17.64,105.92Z"/><path class="cls-1" d="M24.74,89.8S19.84,79,17.66,84.16a1.08,1.08,0,0,1,1.1.24c.43.43.38.84-.11,1.44a1.63,1.63,0,0,1-2.38-.41c-.69-1.78,1-4.1,2.48-4,4,.27,4.42,4.53,7.06,8.16.14.22-1.07.22-1.07.22Z"/><path d="M24.74,89.86h0l0,0c0-.07-3.2-7-5.51-7h0c-.55,0-1,.42-1.39,1.25a1.11,1.11,0,0,1,1,.29c.44.45.41.89-.11,1.52a1.39,1.39,0,0,1-1.29.35,1.53,1.53,0,0,1-1.2-.77,3.18,3.18,0,0,1,.52-2.92,2.52,2.52,0,0,1,2-1.18c2.78.18,3.86,2.3,5.11,4.75a24.86,24.86,0,0,0,2,3.44.11.11,0,0,1,0,.12C25.77,89.84,25.05,89.86,24.74,89.86Zm-5.57-7.17c1,0,2.26,1.19,3.73,3.54a35.05,35.05,0,0,1,1.88,3.5,2.39,2.39,0,0,0,1-.12,24,24,0,0,1-2-3.44c-1.23-2.42-2.3-4.51-5-4.69a2.41,2.41,0,0,0-1.9,1.13,3,3,0,0,0-.51,2.8,1.39,1.39,0,0,0,1.1.7,1.25,1.25,0,0,0,1.17-.31c.48-.59.52-1,.12-1.35a1,1,0,0,0-1-.23l-.14,0,.06-.13c.4-1,.92-1.44,1.56-1.45Z"/><path class="cls-1" d="M41.18,92.34c-.7,1.34-6.46,3.55-6.46,3.55S40.33,98,41.1,99.45l.08,2.08c-2.86-3.89-5.71-4.25-7.92-4.37-1.56-.08-1.42.84-1.13,1.21,2.56,3.26-.75,4.2-1.25,6.9,0,.14-.4-.45-.53-1.24a4.85,4.85,0,0,1,.08-1.27c-1.16,1.89-2.59.38-3.48,2.28a2.93,2.93,0,0,0-.29-.38c-.27-.24-1.08-.11-1.21-2.26a4.43,4.43,0,0,0-.94.17c.54-1.78,5.07-3.75,3.89-4.93-1.35-1.29-1.44,2.78-3.53,3.08-.12,0,.31-1.19.31-1.19-1,.06-1.42,1.19-1.51,1.86l-.24-.62c-.94-.54.24-3.19-.19-3.65s-1.46,1.11-1.94,1.35-3.21.24-1.87,1.89c.11.14-.26-.75.36-.86s.67.69.67.76a1.08,1.08,0,0,1-1.61.7c-.05,0-1.87-1.35.51-3.22a2.39,2.39,0,0,1-3-.69,7.55,7.55,0,0,0-1.3-1.11,5.69,5.69,0,0,0,1.25-1.08,2.42,2.42,0,0,1,3-.72c-2.38-1.87-.57-3.19-.51-3.21a1.09,1.09,0,0,1,1.61.7c0,.07,0,.88-.67.76s-.27-1-.36-.87c-1.34,1.65,1.4,1.65,1.9,1.9s1.61,1.7,1.94,1.34-.75-3.12.19-3.64l.21-.62c.12.67.55,1.8,1.54,1.85,0,0-.43-1.21-.32-1.18,2.08.27,2.21,4.37,3.53,3,1.18-1.16-3.36-3.13-3.88-4.9,0,0,.94.24.94.16.11-2.16.94-2,1.18-2.28a3.27,3.27,0,0,0,.26-.38c.89,1.89,2.35.35,3.48,2.25a4.92,4.92,0,0,1-.1-1.26c.11-.79.51-1.38.53-1.25.54,2.72,3.84,3.62,1.27,6.89-.29.36-.43,1.3,1.16,1.21,2.21-.11,5.06-.51,7.89-4.39l.08,2.07Z"/><path d="M30.87,105.36h0c-.16,0-.48-.67-.58-1.32a3.66,3.66,0,0,1,0-1,2.31,2.31,0,0,1-1.71.92,1.73,1.73,0,0,0-1.6,1.11l-.05.1-.06-.09c-.06-.08-.21-.3-.28-.37a1.2,1.2,0,0,0-.2-.11c-.34-.15-.92-.42-1-2.15a7.91,7.91,0,0,0-.86.18l-.11,0,0-.11a6.54,6.54,0,0,1,2.24-2.42c.93-.75,1.81-1.46,1.84-2a.51.51,0,0,0-.18-.42c-.19-.18-.35-.26-.5-.23-.32.05-.59.57-.89,1.17-.45.89-1,2-2.08,2.15h0l0,0s-.09-.09.28-1.14c-.9.11-1.28,1.21-1.35,1.79h-.13l-.23-.6c-.56-.35-.39-1.39-.23-2.31.11-.6.2-1.17.05-1.33a.1.1,0,0,0-.08,0h0c-.23,0-.69.43-1.05.78a4.63,4.63,0,0,1-.73.62,3.2,3.2,0,0,1-.59.14c-.6.12-1.42.28-1.58.73a.84.84,0,0,0,.2.76c0-.25,0-.65.42-.73a.61.61,0,0,1,.5.12.92.92,0,0,1,.25.7A1,1,0,0,1,20,101a1.16,1.16,0,0,1-1.2,0,1.82,1.82,0,0,1-.74-1.21A2.27,2.27,0,0,1,19,98a2.54,2.54,0,0,1-2.67-.86A6.86,6.86,0,0,0,15.06,96L15,95.94l.09,0a6,6,0,0,0,1.23-1.07A2.61,2.61,0,0,1,19,93.94,2.22,2.22,0,0,1,18,92a1.74,1.74,0,0,1,.74-1.15,1.15,1.15,0,0,1,1.7.75.94.94,0,0,1-.25.73.6.6,0,0,1-.5.1c-.43-.08-.45-.46-.42-.72a.85.85,0,0,0-.2.75c.16.45,1,.61,1.6.73a2.44,2.44,0,0,1,.59.15A3.69,3.69,0,0,1,22,94c.37.35.83.79,1.06.78a.11.11,0,0,0,.08,0c.16-.17.06-.74,0-1.34-.16-.92-.34-2,.23-2.3l.2-.6h.13c.13.77.57,1.68,1.38,1.79-.37-1-.31-1.12-.29-1.15l0,0h.05c1.06.13,1.62,1.24,2.08,2.13.31.6.57,1.12.89,1.17a.64.64,0,0,0,.5-.24.51.51,0,0,0,.17-.41c0-.55-.9-1.25-1.82-2s-2-1.62-2.25-2.43l0-.1.11,0a5.81,5.81,0,0,0,.87.18c.1-1.73.67-2,1-2.17a.7.7,0,0,0,.18-.11,1.83,1.83,0,0,0,.26-.37l.06-.1.05.11a1.73,1.73,0,0,0,1.61,1.09,2.21,2.21,0,0,1,1.69.9,3.94,3.94,0,0,1,0-1c.1-.7.43-1.32.57-1.32a.09.09,0,0,1,.09.07A5.84,5.84,0,0,0,32,88.89c.9,1.25,1.76,2.44.06,4.6a.71.71,0,0,0-.11.72c.1.2.39.43,1.21.39,2.35-.12,5.08-.57,7.85-4.37l.11-.15.08,2.27v0c-.65,1.24-5.41,3.15-6.35,3.52.93.36,5.56,2.22,6.27,3.53h0l.08,2.3-.12-.17c-2.78-3.77-5.52-4.21-7.88-4.34-.63,0-1,.11-1.19.39a.72.72,0,0,0,.12.72c1.69,2.15.84,3.34-.06,4.61A5.87,5.87,0,0,0,31,105.28.08.08,0,0,1,30.87,105.36Zm-.5-2.63.12,0a4.8,4.8,0,0,0-.08,1.25,3,3,0,0,0,.43,1.16A6.14,6.14,0,0,1,32,102.86c.91-1.27,1.69-2.37.06-4.45a.83.83,0,0,1-.13-.86c.12-.23.44-.5,1.31-.45,2.35.12,5.08.56,7.85,4.23L41,99.46C40.26,98.08,34.75,96,34.7,96l-.16-.06.16-.06s5.7-2.2,6.42-3.51l-.07-1.87c-2.77,3.71-5.49,4.15-7.84,4.27-.89,0-1.21-.22-1.33-.45a.83.83,0,0,1,.12-.86c1.64-2.09.85-3.18-.06-4.45a6.13,6.13,0,0,1-1.2-2.31,2.73,2.73,0,0,0-.43,1.16,4.94,4.94,0,0,0,.1,1.25l-.11,0A2.09,2.09,0,0,0,28.52,88a1.82,1.82,0,0,1-1.65-1,2.21,2.21,0,0,1-.22.29.58.58,0,0,1-.22.13c-.32.16-.85.42-.94,2.11v0l0,0s-.08.06-.88-.13a7.25,7.25,0,0,0,2.18,2.26c.94.76,1.84,1.48,1.87,2.09a.64.64,0,0,1-.21.5.71.71,0,0,1-.61.27c-.38-.06-.66-.6-1-1.23-.44-.85-1-1.9-1.94-2.06a7.85,7.85,0,0,0,.33,1.09l0,.09h-.09c-.87,0-1.36-.88-1.55-1.67l-.15.42h0c-.51.29-.34,1.3-.19,2.19.12.66.21,1.23,0,1.45a.24.24,0,0,1-.17.07c-.28,0-.72-.41-1.15-.82a4.65,4.65,0,0,0-.69-.59,2.44,2.44,0,0,0-.56-.13c-.64-.13-1.51-.29-1.7-.82a1.12,1.12,0,0,1,.34-1,.1.1,0,0,1,.09,0s0,.07,0,.15c-.05.3-.06.66.3.73a.48.48,0,0,0,.4-.08.81.81,0,0,0,.2-.62,1,1,0,0,0-.5-.66,1.06,1.06,0,0,0-1,0,1.7,1.7,0,0,0-.68,1.14,2.44,2.44,0,0,0,1.2,2l-.08.1a2.35,2.35,0,0,0-2.89.72,5.7,5.7,0,0,1-1.17,1A8,8,0,0,1,16.43,97a2.36,2.36,0,0,0,2.9.69l.07.1c-.83.66-1.24,1.31-1.19,1.94a1.65,1.65,0,0,0,.67,1.17,1.06,1.06,0,0,0,1.07,0,1,1,0,0,0,.45-.63.88.88,0,0,0-.2-.62.48.48,0,0,0-.4-.08c-.35.06-.35.4-.29.72,0,.08,0,.13,0,.15s0,0-.09,0a1.12,1.12,0,0,1-.34-1c.19-.52,1.05-.69,1.68-.81a3,3,0,0,0,.55-.14,3.74,3.74,0,0,0,.7-.59c.42-.4.86-.82,1.14-.82h0a.27.27,0,0,1,.17.08c.2.21.1.78,0,1.44-.16.89-.33,1.9.18,2.19h0l.17.43c.15-.69.59-1.63,1.53-1.68h.1l0,.09a9,9,0,0,0-.33,1.08c1-.17,1.51-1.22,1.94-2.07.32-.63.59-1.17,1-1.24a.74.74,0,0,1,.61.27.65.65,0,0,1,.21.51c0,.62-.93,1.35-1.88,2.12a7.14,7.14,0,0,0-2.16,2.25c.79-.2.85-.15.88-.13h0v0c.1,1.69.62,1.93,1,2.09a.67.67,0,0,1,.22.13,2,2,0,0,1,.24.3,1.86,1.86,0,0,1,1.65-1.09A2.12,2.12,0,0,0,30.37,102.73Zm-5-.32Zm0-12.94h0Z"/><path d="M26.49,104.61c-1-2,.26-3.29,1.56-4.65,1.09-1.13,2.22-2.31,2.15-4H26a2.74,2.74,0,0,1-.9,1.66,5.71,5.71,0,0,0-1.6,3.14l-.12,0A5.78,5.78,0,0,1,25,97.53c.5-.58.89-1,.88-1.58H15.07v-.12H25.85a4.22,4.22,0,0,0-1-1.69,6.2,6.2,0,0,1-1.57-3h.13a6,6,0,0,0,1.54,3,4.31,4.31,0,0,1,1,1.77h4.21c-.12-1.5-1.16-2.64-2.16-3.75-1.33-1.46-2.58-2.84-1.57-4.85l.11.06c-1,1.93.26,3.28,1.55,4.71,1,1.12,2.08,2.28,2.2,3.83h4.33V96H30.33c.07,1.75-1.08,3-2.19,4.1-1.27,1.33-2.47,2.58-1.54,4.51Z"/><path class="cls-1" d="M32.88,75.71a3.71,3.71,0,0,0-3.46-2.21c-1.15,0-3,1.54-4.06,2.21a2.59,2.59,0,0,1-3-.89c-.63-1.54.35-1.83.83-1.75,0,0-.57,1.1.38,1,.6-.1.77-1,.68-1.34C24,72,23,72,22.57,72.15c-1.32.38-1.1,2.24-.65,2.94.65,1,2.29,1.2,3.32,1,1.58-.24,2.85-1.85,3.79-1.8.24,0,.51.86.27.91-1.59.29-1.37,1.42-1.37,1.42v0s-.22,1.1,1.37,1.42c.24,0-.08.94-.32.94-.94,0-2.16-1.61-3.74-1.83-1-.14-2.67,0-3.32,1-.43.7-.64,2.54.65,2.94.41.11,1.42.19,1.64-.54.1-.35-.05-1.27-.68-1.34-1-.14-.38,1-.38,1-.48.1-1.46-.21-.83-1.75a2.6,2.6,0,0,1,3-.89c1.11.7,2.91,2.26,4.06,2.21a3.76,3.76,0,0,0,3.46-2.21v-2h0Z"/><path d="M23.14,81.35a2.71,2.71,0,0,1-.59-.07,1.37,1.37,0,0,1-.89-.85,2.78,2.78,0,0,1,.21-2.18c.69-1.12,2.44-1.21,3.37-1.08a5.31,5.31,0,0,1,2.26,1.1A3,3,0,0,0,29,79c.1,0,.31-.36.34-.65,0-.1,0-.16,0-.17-1.62-.32-1.42-1.48-1.42-1.49v0a1.18,1.18,0,0,1,.2-.8,1.79,1.79,0,0,1,1.23-.68s.05-.09,0-.2c0-.28-.2-.59-.3-.59a3.05,3.05,0,0,0-1.53.72,5.74,5.74,0,0,1-2.25,1.08c-.93.14-2.68.06-3.38-1.08A2.73,2.73,0,0,1,21.63,73a1.38,1.38,0,0,1,.92-.87,2,2,0,0,1,1.34.09.78.78,0,0,1,.38.49,1.58,1.58,0,0,1-.21,1.06.77.77,0,0,1-.51.37c-.27,0-.46,0-.55-.15s0-.65.06-.83a.9.9,0,0,0-.72.29,1.41,1.41,0,0,0,0,1.39,2.23,2.23,0,0,0,1.29.91,2.06,2.06,0,0,0,1.67-.06,11.58,11.58,0,0,0,1-.67c1.05-.74,2.24-1.58,3.12-1.54a3.73,3.73,0,0,1,3.51,2.24h0v2a3.78,3.78,0,0,1-3.51,2.25c-.9,0-2.18-.86-3.2-1.59-.33-.24-.64-.46-.9-.62a2,2,0,0,0-1.66-.06,2.22,2.22,0,0,0-1.3.92c-.25.63-.26,1.11,0,1.41a.81.81,0,0,0,.7.26c-.08-.17-.24-.59-.07-.82s.28-.19.55-.15a.7.7,0,0,1,.53.34,1.52,1.52,0,0,1,.2,1.08A1.06,1.06,0,0,1,23.14,81.35Zm1.42-4.1A3,3,0,0,0,22,78.32a2.58,2.58,0,0,0-.2,2.06,1.21,1.21,0,0,0,.81.78c.34.09,1.35.21,1.56-.49a1.38,1.38,0,0,0-.18-1,.63.63,0,0,0-.44-.29c-.22,0-.37,0-.44.1s0,.62.12.77l0,.08-.08,0a1,1,0,0,1-.91-.3c-.19-.23-.35-.69,0-1.54a2.22,2.22,0,0,1,1.37-1,2.17,2.17,0,0,1,1.77.07l.9.62c1,.72,2.27,1.62,3.12,1.58.44,0,2.68-.23,3.39-2.16V75.72a3.55,3.55,0,0,0-3.39-2.16c-.83,0-2.05.83-3,1.53-.36.25-.7.49-1,.67a2.2,2.2,0,0,1-1.78.07,2.2,2.2,0,0,1-1.36-1c-.34-.83-.2-1.28,0-1.51a1,1,0,0,1,.92-.32h.09l0,.08c-.08.15-.25.58-.11.77s.21.13.43.1a.61.61,0,0,0,.42-.31,1.4,1.4,0,0,0,.2-1,.72.72,0,0,0-.32-.41,1.87,1.87,0,0,0-1.24-.08,1.23,1.23,0,0,0-.84.79,2.54,2.54,0,0,0,.23,2c.58,1,2.09,1.2,3.25,1A5.92,5.92,0,0,0,27.43,75a3.12,3.12,0,0,1,1.6-.75h0c.23,0,.4.46.42.71s-.08.32-.14.33a1.66,1.66,0,0,0-1.14.63,1,1,0,0,0-.18.72v0s-.18,1.06,1.32,1.36c.06,0,.16.07.13.3s-.23.76-.46.76a2.88,2.88,0,0,1-1.56-.75,5.36,5.36,0,0,0-2.19-1.08A6.53,6.53,0,0,0,24.56,77.25Z"/><path class="cls-1" d="M40.82,74.58c-.21,1.13-3.07,2.11-3.07,2.11s2.81,1.46,3.19,2.64l-.08,1.37c-.91-3.1-4.39-3.34-4.39-3.34.75,1,1.4,2.5-.38,3.93,0,0,.53-1.34.27-1.65a3.62,3.62,0,0,1-1.25,1.62c-.4.31-1.53.26-2,.57l.43-1.37a2.69,2.69,0,0,1-2,1.24,2.86,2.86,0,0,1,.41-2,3.37,3.37,0,0,0,.67-2.29c-.75,1.65-3.69,1.8-4.25,1.4-.08,0,.64-.76.64-.76a1.55,1.55,0,0,1-1-.63c0-.21.51-.67.6-.81S28,76.16,28,76s.72-.67,1-.62c0,0-.75-.73-.65-.76.55-.41,3.51-.27,4.26,1.39a3.26,3.26,0,0,0-.65-2.28,3.06,3.06,0,0,1-.43-2,2.62,2.62,0,0,1,2,1.25l-.43-1.37c.51.29,1.64.24,2,.57a3.44,3.44,0,0,1,1.24,1.61c.27-.32-.27-1.65-.27-1.65,1.78,1.43,1.13,2.88.39,3.94,0,0,3.5-.25,4.39-3.34l-.07,1.89Z"/><path d="M33,82l.34-1.09a3,3,0,0,1-1.81.88h-.06v0a3,3,0,0,1,.41-2,3.61,3.61,0,0,0,.68-2A3.06,3.06,0,0,1,30.6,78.9a3.56,3.56,0,0,1-2.33,0l0,0v0c0-.08.18-.31.57-.7a2.07,2.07,0,0,1-.75-.44c-.15-.14-.16-.2-.16-.24a1.69,1.69,0,0,1,.44-.64l.14-.16c-.14-.12-.53-.47-.55-.67s0-.12.11-.21a2.23,2.23,0,0,1,.79-.48c-.59-.59-.57-.68-.57-.71a.1.1,0,0,1,0,0,3.56,3.56,0,0,1,2.31,0,3,3,0,0,1,1.93,1.26,3.6,3.6,0,0,0-.66-2,3.27,3.27,0,0,1-.44-2l0,0h.05a3,3,0,0,1,1.81.87L33,71.42l.14.08a3,3,0,0,0,1,.25,2.6,2.6,0,0,1,1.09.33,3.75,3.75,0,0,1,1.2,1.48,3.86,3.86,0,0,0-.32-1.45L36,71.89l.18.15c1.79,1.44,1.17,2.9.48,3.91.65-.09,3.43-.61,4.2-3.28l.12,0-.06,1.9c-.2,1-2.4,1.89-3,2.11.56.3,2.75,1.55,3.09,2.61h0l-.07,1.38H40.8a5,5,0,0,0-4.2-3.27c.69,1,1.31,2.46-.47,3.9l-.19.15.09-.22a3.89,3.89,0,0,0,.33-1.45,3.88,3.88,0,0,1-1.21,1.49,2.58,2.58,0,0,1-1,.3,3.43,3.43,0,0,0-1,.27Zm.48-1.54.12,0-.39,1.23a4.51,4.51,0,0,1,.91-.21,2.49,2.49,0,0,0,1-.28,3.49,3.49,0,0,0,1.22-1.58l0-.12.07.09c.23.26,0,1.08-.17,1.49,1.52-1.36.91-2.68.19-3.69l-.08-.11h.13s3.3.27,4.35,3.07l0-1c-.38-1.14-3.12-2.57-3.15-2.59l-.13-.07.14,0s2.82-1,3-2.06l.05-1.46c-1.07,2.72-4.28,3-4.31,3h-.13l.07-.11c.72-1,1.34-2.34-.18-3.69.14.41.39,1.22.17,1.48l-.08.09,0-.11a3.42,3.42,0,0,0-1.22-1.58,2.47,2.47,0,0,0-1-.3,4.13,4.13,0,0,1-.87-.2l.39,1.23-.12,0a2.55,2.55,0,0,0-1.91-1.2A3.09,3.09,0,0,0,32,73.64,3.3,3.3,0,0,1,32.65,76l0,.18L32.53,76a2.87,2.87,0,0,0-2-1.39,3.6,3.6,0,0,0-2.18,0,5.81,5.81,0,0,0,.62.68l.16.15-.21,0a1.57,1.57,0,0,0-.92.55c0,.14.35.46.55.63l0,0,0,0a1.88,1.88,0,0,1-.18.21c-.15.18-.39.44-.4.57s.11.15.34.31a1.1,1.1,0,0,0,.57.24l.21,0L29,78.1a4.93,4.93,0,0,0-.62.69,3.67,3.67,0,0,0,2.19,0A2.88,2.88,0,0,0,32.5,77.4l.08-.18,0,.19a3.34,3.34,0,0,1-.68,2.33,2.84,2.84,0,0,0-.41,1.89A2.57,2.57,0,0,0,33.44,80.43Zm-5.1-1.66h0Z"/><path class="cls-1" d="M24.28,77.05c-1,0-2.28.7-3.47.54a8.33,8.33,0,0,1-2.4-1.16,14.76,14.76,0,0,1,2.34-1c1.27-.29,2.54.81,3.51.84.2,0,.21.77,0,.77Z"/><path d="M21.2,77.68a2.6,2.6,0,0,1-.4,0,8.09,8.09,0,0,1-2.43-1.17l-.09-.06.1,0a13.44,13.44,0,0,1,2.36-1,3.72,3.72,0,0,1,2.24.44,3.82,3.82,0,0,0,1.28.4c.16,0,.22.25.22.47a1,1,0,0,1,0,.27c-.05.13-.12.16-.17.16a6,6,0,0,0-1.31.25A7.37,7.37,0,0,1,21.2,77.68Zm-2.67-1.24a7.57,7.57,0,0,0,2.28,1.08,5.58,5.58,0,0,0,2.13-.27A6.06,6.06,0,0,1,24.28,77h0s0,0,0-.07a.68.68,0,0,0,0-.23c0-.22-.07-.35-.1-.35a4,4,0,0,1-1.33-.4,3.66,3.66,0,0,0-2.16-.44A13.26,13.26,0,0,0,18.53,76.44Z"/><path class="cls-1" d="M24.31,75.14c.53-.12.43,1.53.43,1.53,0,.22.08,1.44-.43,1.54-.57-.08-.41-1.54-.41-1.54s-.07-1.56.41-1.53Z"/><path d="M24.31,78.27h0c-.63-.08-.47-1.54-.46-1.6s-.06-1.2.26-1.51a.28.28,0,0,1,.2-.09.3.3,0,0,1,.24.07c.33.28.27,1.41.26,1.54v.07c0,.39,0,1.42-.49,1.52Zm0-3.07a.16.16,0,0,0-.11,0c-.23.23-.24,1.1-.22,1.42s-.07,1.4.34,1.47.39-.53.37-1.39v-.08c0-.33,0-1.23-.22-1.44a.17.17,0,0,0-.14,0h0Z"/><path class="cls-1" d="M27.89,76.62l9.94.08m-4.37,3.93,1.42-4m0,0-1.4-3.88"/><polygon points="33.52 80.66 33.4 80.61 34.79 76.74 27.89 76.69 27.89 76.56 34.78 76.61 33.41 72.81 33.53 72.77 34.92 76.61 37.83 76.64 37.83 76.76 34.93 76.74 33.52 80.66"/><path class="cls-1" d="M24.74,63.85s-4.9,10.83-7.08,5.64a1.08,1.08,0,0,0,1.1-.24c.43-.43.38-.84-.11-1.44a1.63,1.63,0,0,0-2.38.41c-.69,1.78,1,4.12,2.48,4,4-.27,4.42-4.53,7.06-8.16.14-.24-1.07-.22-1.07-.22Z"/><path d="M18.64,72.3a2.47,2.47,0,0,1-1.88-1.15,3.17,3.17,0,0,1-.55-3,1.52,1.52,0,0,1,1.2-.78,1.39,1.39,0,0,1,1.29.35c.52.63.55,1.08.11,1.52a1.11,1.11,0,0,1-1,.29c.37.83.84,1.25,1.39,1.25h0c2.31,0,5.48-6.93,5.51-7l0,0h0c.24,0,1,0,1.12.18a.11.11,0,0,1,0,.13,24.86,24.86,0,0,0-2,3.44c-1.25,2.45-2.33,4.57-5.11,4.75Zm-.91-4.78-.3,0a1.39,1.39,0,0,0-1.1.7,3.07,3.07,0,0,0,.53,2.84,2.31,2.31,0,0,0,1.88,1.09c2.71-.18,3.78-2.27,5-4.69a24.63,24.63,0,0,1,2-3.45,2.36,2.36,0,0,0-1-.12,33.63,33.63,0,0,1-1.88,3.51C21.43,69.77,20.18,71,19.17,71h0c-.64,0-1.16-.5-1.56-1.45l-.06-.13.14.05a1,1,0,0,0,1-.23c.4-.4.36-.76-.12-1.35A1.14,1.14,0,0,0,17.73,67.52Z"/><path class="cls-1" d="M24.82,51.4s-4.9-10.83-7.09-5.64a1.09,1.09,0,0,1,1.11.24c.43.44.38.84-.12,1.44A1.62,1.62,0,0,1,16.35,47c-.7-1.77,1-4.1,2.48-4,4,.27,4.41,4.53,7.05,8.16.13.24-1.06.22-1.06.22Z"/><path d="M25,51.46h-.17l0,0c0-.07-3.2-7-5.51-7h0c-.55,0-1,.43-1.39,1.25a1.11,1.11,0,0,1,1,.29c.45.45.42.89-.11,1.52a1.37,1.37,0,0,1-1.28.35,1.48,1.48,0,0,1-1.2-.77,3.15,3.15,0,0,1,.52-2.92,2.51,2.51,0,0,1,2-1.18c2.78.18,3.86,2.3,5.11,4.76a25.28,25.28,0,0,0,2,3.43.12.12,0,0,1,0,.13C25.84,51.44,25.26,51.46,25,51.46Zm-.09-.12a2.26,2.26,0,0,0,1-.12,25,25,0,0,1-2-3.45c-1.24-2.42-2.3-4.5-5-4.69a2.44,2.44,0,0,0-1.91,1.13,3,3,0,0,0-.5,2.8,1.39,1.39,0,0,0,1.1.7,1.23,1.23,0,0,0,1.16-.31c.49-.59.52-.95.12-1.35a1,1,0,0,0-1-.23l-.14.06.05-.14c.41-1,.93-1.44,1.56-1.45h0c1,0,2.26,1.19,3.72,3.54A34.57,34.57,0,0,1,24.86,51.34Z"/><path class="cls-1" d="M41.26,53.94c-.7,1.34-6.47,3.55-6.47,3.55s5.61,2.13,6.39,3.56l.08,2.08c-2.86-3.89-5.72-4.25-7.93-4.37-1.56-.07-1.42.84-1.13,1.21,2.57,3.26-.74,4.2-1.24,6.9,0,.14-.41-.45-.53-1.24a4.58,4.58,0,0,1,.07-1.27c-1.15,1.89-2.59.38-3.47,2.28a3.3,3.3,0,0,0-.3-.38c-.26-.24-1.08-.11-1.2-2.26a4.43,4.43,0,0,0-.94.17c.53-1.78,5.06-3.75,3.88-4.93C27.13,58,27,62,24.94,62.32c-.11,0,.32-1.18.32-1.18-1,0-1.42,1.18-1.51,1.85l-.24-.62c-.94-.54.24-3.19-.19-3.65s-1.46,1.11-1.94,1.35-3.21.24-1.87,1.89c.1.14-.27-.75.36-.86s.67.7.67.76a1.08,1.08,0,0,1-1.61.7c-.05,0-1.87-1.35.5-3.24a2.39,2.39,0,0,1-3-.7,7.83,7.83,0,0,0-1.29-1.1,6.16,6.16,0,0,0,1.24-1.08,2.37,2.37,0,0,1,3-.72c-2.37-1.87-.57-3.19-.5-3.22a1.1,1.1,0,0,1,1.61.7c0,.08,0,.89-.67.76s-.27-1-.36-.86c-1.35,1.65,1.4,1.65,1.89,1.89s1.61,1.7,1.94,1.35-.76-3.13.19-3.65l.22-.62c.11.67.55,1.8,1.54,1.86,0,0-.44-1.21-.32-1.19,2.08.27,2.21,4.37,3.53,3,1.18-1.15-3.37-3.12-3.89-4.9a4.43,4.43,0,0,0,.94.17c.12-2.16.94-2.05,1.18-2.29a2.92,2.92,0,0,0,.27-.38c.89,1.89,2.35.36,3.48,2.26a4.52,4.52,0,0,1-.1-1.27c.11-.79.5-1.37.53-1.24.53,2.71,3.83,3.61,1.27,6.89-.29.36-.43,1.27,1.15,1.21,2.21-.12,5.07-.51,7.9-4.4l.08,2.1Z"/><path d="M30.94,67h0c-.15,0-.47-.67-.58-1.32a4.68,4.68,0,0,1,0-1,2.26,2.26,0,0,1-1.7.92,1.75,1.75,0,0,0-1.61,1.11l0,.1L27,66.68a2.4,2.4,0,0,0-.28-.37.79.79,0,0,0-.19-.11c-.34-.15-.92-.42-1-2.15a7.5,7.5,0,0,0-.87.18l-.1,0,0-.11a6.65,6.65,0,0,1,2.23-2.42c.93-.75,1.81-1.46,1.84-2a.54.54,0,0,0-.17-.42c-.19-.18-.35-.26-.5-.23-.33,0-.59.57-.89,1.17-.45.89-1,2-2.09,2.15h0l0,0s-.08-.09.29-1.14c-.9.12-1.28,1.21-1.36,1.79h-.12l-.23-.6c-.57-.35-.39-1.39-.23-2.31.1-.6.2-1.17,0-1.33a.08.08,0,0,0-.08,0c-.23,0-.69.43-1.06.78a4.22,4.22,0,0,1-.73.62,3.27,3.27,0,0,1-.58.14c-.6.12-1.42.28-1.59.73a.87.87,0,0,0,.21.76c0-.25,0-.65.41-.73a.62.62,0,0,1,.51.12,1,1,0,0,1,.24.7,1,1,0,0,1-.51.75,1.16,1.16,0,0,1-1.19,0,1.78,1.78,0,0,1-.74-1.21,2.26,2.26,0,0,1,.93-1.87,2.56,2.56,0,0,1-2.67-.86,7.76,7.76,0,0,0-1.29-1.1l-.08,0,.09-.06a6.23,6.23,0,0,0,1.23-1.06A2.55,2.55,0,0,1,19,55.5a2.2,2.2,0,0,1-.92-1.9,1.81,1.81,0,0,1,.74-1.16,1.13,1.13,0,0,1,1.13,0,1.11,1.11,0,0,1,.57.76.92.92,0,0,1-.24.72.62.62,0,0,1-.51.11c-.42-.08-.44-.47-.42-.72a.88.88,0,0,0-.2.75c.17.45,1,.61,1.61.73a3.69,3.69,0,0,1,.59.14,4.63,4.63,0,0,1,.73.62c.37.35.83.79,1.06.78a.09.09,0,0,0,.08,0c.15-.16.05-.73-.05-1.33-.16-.92-.34-2,.23-2.31l.21-.6h.12c.13.77.57,1.69,1.38,1.79-.37-1.05-.31-1.11-.28-1.14l0,0h.05c1.06.14,1.63,1.25,2.09,2.14.3.6.57,1.11.89,1.16.15,0,.31,0,.49-.23a.51.51,0,0,0,.18-.41c0-.55-.9-1.25-1.83-2s-2-1.62-2.25-2.43l0-.11.11,0a7.91,7.91,0,0,0,.86.18c.1-1.73.67-2,1-2.18a.61.61,0,0,0,.18-.1,3.4,3.4,0,0,0,.25-.37l.07-.1.05.1a1.71,1.71,0,0,0,1.6,1.09,2.2,2.2,0,0,1,1.7.91,4,4,0,0,1,0-1c.1-.69.43-1.31.58-1.31a.08.08,0,0,1,.08.06,6,6,0,0,0,1.2,2.34c.9,1.26,1.75,2.44.06,4.61a.68.68,0,0,0-.12.7c.1.2.4.44,1.22.4,2.35-.12,5.08-.57,7.85-4.36l.11-.15L41.32,54v0c-.64,1.24-5.4,3.15-6.34,3.52.93.36,5.55,2.22,6.26,3.53h0l.09,2.3-.13-.16c-2.77-3.78-5.51-4.22-7.87-4.35-.63,0-1,.11-1.19.39a.71.71,0,0,0,.11.72c1.7,2.15.85,3.35,0,4.61A5.89,5.89,0,0,0,31,66.88.08.08,0,0,1,30.94,67Zm-.49-2.63.12,0a4.38,4.38,0,0,0-.08,1.25,3.07,3.07,0,0,0,.42,1.16,6.16,6.16,0,0,1,1.19-2.32c.9-1.27,1.69-2.37,0-4.45a.85.85,0,0,1-.12-.86c.12-.23.44-.49,1.31-.45,2.35.12,5.08.56,7.84,4.23l-.06-1.87c-.79-1.38-6.29-3.49-6.35-3.51l-.15-.06.15-.06c.06,0,5.71-2.2,6.42-3.51L41.12,52c-2.76,3.7-5.49,4.15-7.83,4.27-.9,0-1.22-.24-1.34-.47a.81.81,0,0,1,.13-.84c1.64-2.09.85-3.19-.07-4.45a6.2,6.2,0,0,1-1.2-2.31,2.84,2.84,0,0,0-.42,1.16,4.94,4.94,0,0,0,.1,1.25l-.12,0a2.07,2.07,0,0,0-1.78-1.1,1.87,1.87,0,0,1-1.65-1.06c-.06.09-.15.23-.21.3a.91.91,0,0,1-.22.13c-.32.15-.85.41-.94,2.11v0l0,0s-.09.07-.88-.13a7.09,7.09,0,0,0,2.17,2.26c1,.76,1.85,1.49,1.87,2.09a.65.65,0,0,1-.21.51.71.71,0,0,1-.6.27c-.39-.06-.66-.6-1-1.24-.43-.84-1-1.9-1.94-2a8.29,8.29,0,0,0,.34,1.08l0,.09h-.1c-.86-.05-1.36-.89-1.55-1.68l-.14.43h0c-.52.28-.34,1.3-.18,2.19.11.66.21,1.23,0,1.44a.25.25,0,0,1-.17.08c-.28,0-.72-.42-1.15-.82a3.74,3.74,0,0,0-.7-.59,3,3,0,0,0-.55-.14c-.64-.12-1.52-.29-1.7-.81-.11-.28,0-.63.34-1a.07.07,0,0,1,.09,0c.05,0,0,.07,0,.14-.05.31-.07.66.3.73a.42.42,0,0,0,.39-.08.72.72,0,0,0,.2-.61,1,1,0,0,0-.5-.66,1,1,0,0,0-1,0,1.67,1.67,0,0,0-.67,1.13c-.06.65.35,1.31,1.19,2l-.07.1a2.29,2.29,0,0,0-2.89.71,6.36,6.36,0,0,1-1.17,1,8.51,8.51,0,0,1,1.22,1.06,2.36,2.36,0,0,0,2.89.69l.07.1a2.49,2.49,0,0,0-1.19,2A1.68,1.68,0,0,0,19,62.5a1.07,1.07,0,0,0,1.07,0,1,1,0,0,0,.45-.63.85.85,0,0,0-.21-.62.45.45,0,0,0-.39-.08c-.35.06-.35.4-.3.72,0,.08,0,.13,0,.15a.07.07,0,0,1-.09,0c-.33-.41-.45-.76-.35-1,.19-.52,1.06-.69,1.69-.81a3,3,0,0,0,.55-.14,4.09,4.09,0,0,0,.7-.59c.42-.4.85-.82,1.14-.82h0a.3.3,0,0,1,.17.08c.19.21.1.78,0,1.44-.15.89-.32,1.9.19,2.19h0l.17.43c.14-.68.59-1.63,1.53-1.68h.09l0,.09A7.83,7.83,0,0,0,25,62.24c1-.17,1.5-1.22,1.93-2.07.32-.63.6-1.17,1-1.24a.75.75,0,0,1,.62.27.65.65,0,0,1,.21.51c0,.62-.93,1.35-1.89,2.12a7.09,7.09,0,0,0-2.15,2.25c.79-.2.85-.15.87-.13l0,0v0c.1,1.69.62,1.93,1,2.09a.73.73,0,0,1,.23.13,2,2,0,0,1,.24.3,1.84,1.84,0,0,1,1.65-1.09A2.13,2.13,0,0,0,30.45,64.33Zm-5-.32Zm0-13h0Z"/><path d="M26.56,66.22c-1-2,.27-3.3,1.57-4.65,1.08-1.13,2.2-2.3,2.15-4H26.09a2.88,2.88,0,0,1-.91,1.63,5.71,5.71,0,0,0-1.6,3.14l-.12,0a5.72,5.72,0,0,1,1.63-3.2A2.71,2.71,0,0,0,26,57.58H15.14v-.13H26a4,4,0,0,0-1-1.71,6.15,6.15,0,0,1-1.56-3h.12a6.19,6.19,0,0,0,1.54,3,4,4,0,0,1,1,1.79h4.19c-.11-1.5-1.15-2.65-2.17-3.77-1.32-1.46-2.58-2.83-1.56-4.85l.11.06c-1,1.93.25,3.28,1.55,4.71,1,1.13,2.09,2.3,2.2,3.85h4.33v.13H30.4c.06,1.74-1.08,2.92-2.18,4.07C27,63,25.75,64.23,26.68,66.16Z"/><path class="cls-1" d="M24.58,25.86s-4.9,10.83-7.09,5.64a1.08,1.08,0,0,0,1.11-.25c.43-.43.38-.83-.12-1.43a1.61,1.61,0,0,0-2.37.41c-.7,1.77,1,4.12,2.47,4,4-.27,4.42-4.53,7.06-8.17.14-.24-1.06-.21-1.06-.21Z"/><path d="M18.48,34.3a2.5,2.5,0,0,1-1.89-1.14,3.19,3.19,0,0,1-.54-3,1.51,1.51,0,0,1,1.2-.78,1.4,1.4,0,0,1,1.28.36c.53.63.56,1.07.11,1.52a1.11,1.11,0,0,1-1,.29c.37.82.84,1.24,1.39,1.25h0c2.31,0,5.48-6.94,5.51-7v0h0c.24,0,1,0,1.13.18a.15.15,0,0,1,0,.13,24.36,24.36,0,0,0-2,3.43c-1.25,2.46-2.33,4.57-5.11,4.76Zm-.92-4.77a1.42,1.42,0,0,0-.29,0,1.37,1.37,0,0,0-1.1.7,3.07,3.07,0,0,0,.52,2.83,2.34,2.34,0,0,0,1.89,1.09c2.71-.18,3.77-2.27,5-4.69a24.45,24.45,0,0,1,2-3.44,2.13,2.13,0,0,0-1-.12,35.75,35.75,0,0,1-1.89,3.51C21.27,31.78,20,33,19,33h0c-.63,0-1.16-.5-1.56-1.45l-.05-.14.14.06a1,1,0,0,0,1-.23c.4-.4.37-.77-.12-1.35A1.11,1.11,0,0,0,17.56,29.53Z"/><path class="cls-1" d="M24.65,13.41s-4.9-10.83-7.08-5.64a1.08,1.08,0,0,1,1.1.24c.43.43.38.84-.11,1.44A1.64,1.64,0,0,1,16.18,9c-.69-1.78,1-4.13,2.48-4,4,.29,4.42,4.53,7.06,8.19.15.21-1.07.19-1.07.19Z"/><path d="M24.81,13.47h-.2l0,0c0-.07-3.19-7-5.51-7h0c-.55,0-1,.43-1.39,1.25a1.14,1.14,0,0,1,1,.3c.44.44.41.88-.11,1.52a1.38,1.38,0,0,1-1.29.35,1.48,1.48,0,0,1-1.19-.78,3.16,3.16,0,0,1,.54-2.95,2.41,2.41,0,0,1,2-1.15c2.77.21,3.86,2.33,5.12,4.79a25.28,25.28,0,0,0,2,3.43.11.11,0,0,1,0,.12C25.7,13.45,25.16,13.47,24.81,13.47Zm-.12-.13a2.72,2.72,0,0,0,1-.09,24.93,24.93,0,0,1-2-3.44c-1.25-2.42-2.32-4.52-5-4.72a2.31,2.31,0,0,0-1.89,1.09A3.07,3.07,0,0,0,16.24,9a1.41,1.41,0,0,0,1.1.7,1.31,1.31,0,0,0,1.17-.31c.48-.59.52-1,.12-1.35a1,1,0,0,0-1-.23l-.14,0,.06-.13c.4-1,.92-1.44,1.56-1.45h0c1,0,2.27,1.19,3.73,3.54A35.05,35.05,0,0,1,24.69,13.34Z"/><path class="cls-1" d="M41.09,16c-.7,1.34-6.46,3.55-6.46,3.55s5.61,2.13,6.38,3.56l.08,2.08c-2.86-3.89-5.71-4.25-7.92-4.37-1.59-.07-1.42.84-1.13,1.21,2.56,3.26-.75,4.2-1.24,6.9,0,.14-.41-.45-.54-1.24a4.85,4.85,0,0,1,.08-1.27c-1.16,1.89-2.59.38-3.48,2.26a2.93,2.93,0,0,0-.29-.38c-.27-.24-1.08-.12-1.21-2.26,0-.08-.94.16-.94.16.54-1.77,5.07-3.74,3.89-4.92C27,19.94,26.87,24,24.78,24.31c-.12,0,.32-1.18.32-1.18-1,.05-1.43,1.18-1.51,1.85l-.25-.62c-.94-.53.22-3.19-.19-3.64s-1.46,1.1-1.94,1.34S18,22.3,19.35,24c.1.14-.27-.74.35-.86s.67.7.67.76a1.08,1.08,0,0,1-1.61.7c-.05,0-1.86-1.34.51-3.24a2.39,2.39,0,0,1-3-.69A7.55,7.55,0,0,0,15,19.51a5.69,5.69,0,0,0,1.25-1.08,2.42,2.42,0,0,1,3-.72c-2.38-1.87-.57-3.19-.51-3.21a1.08,1.08,0,0,1,1.61.7c0,.07,0,.88-.67.76s-.27-1-.36-.87c-1.34,1.65,1.4,1.65,1.9,1.9s1.61,1.7,1.94,1.34-.75-3.12.19-3.64l.21-.62c.12.67.55,1.8,1.54,1.85,0,0-.43-1.21-.32-1.18,2.08.27,2.21,4.37,3.53,3,1.18-1.16-3.36-3.13-3.88-4.9,0,0,.94.24.94.16.11-2.16.94-2,1.18-2.28a3.27,3.27,0,0,0,.26-.38c.89,1.89,2.35.35,3.48,2.25a4.92,4.92,0,0,1-.1-1.26c.12-.79.51-1.38.53-1.25.54,2.72,3.84,3.62,1.27,6.89-.29.36-.43,1.3,1.16,1.21,2.21-.11,5.06-.51,7.89-4.39L41.09,16Z"/><path d="M30.78,29h0c-.16,0-.48-.67-.58-1.32a3.66,3.66,0,0,1,0-1,2.29,2.29,0,0,1-1.71.92,1.72,1.72,0,0,0-1.6,1.09l-.05.1-.06-.1a2.48,2.48,0,0,0-.28-.36.86.86,0,0,0-.19-.11c-.35-.16-.93-.42-1-2.15a6,6,0,0,0-.86.18l-.11,0,0-.1a6.54,6.54,0,0,1,2.24-2.42c.93-.75,1.81-1.47,1.84-2a.53.53,0,0,0-.18-.42.62.62,0,0,0-.5-.23c-.32.06-.59.58-.89,1.18-.45.89-1,2-2.08,2.14h0l0,0s-.09-.1.28-1.15c-.89.12-1.28,1.21-1.35,1.79l-.12,0-.24-.61c-.57-.35-.39-1.4-.23-2.34.1-.58.19-1.14.05-1.3a.11.11,0,0,0-.08,0c-.23,0-.69.43-1.06.78a4,4,0,0,1-.73.61,2.46,2.46,0,0,1-.58.15c-.6.12-1.43.28-1.59.73a.85.85,0,0,0,.2.75c0-.24,0-.64.42-.72a.59.59,0,0,1,.5.11.94.94,0,0,1,.25.71,1,1,0,0,1-.51.74,1.2,1.2,0,0,1-1.2,0A1.9,1.9,0,0,1,18,23.39a2.3,2.3,0,0,1,.94-1.87,2.55,2.55,0,0,1-2.68-.86A7.31,7.31,0,0,0,15,19.57l-.08-.06.08-.05a6,6,0,0,0,1.23-1.07,2.61,2.61,0,0,1,2.68-.88A2.22,2.22,0,0,1,18,15.59a1.74,1.74,0,0,1,.74-1.15,1.19,1.19,0,0,1,1.14,0,1.14,1.14,0,0,1,.56.76.94.94,0,0,1-.25.73.6.6,0,0,1-.5.1c-.42-.08-.45-.46-.42-.72a.85.85,0,0,0-.2.75c.16.45,1,.61,1.6.73a2.44,2.44,0,0,1,.59.15,3.69,3.69,0,0,1,.73.61c.37.35.82.78,1.06.78h0a.11.11,0,0,0,.08,0c.16-.17.06-.74,0-1.34-.16-.92-.34-2,.23-2.3l.2-.6h.13c.13.77.57,1.68,1.38,1.79-.37-1-.31-1.12-.29-1.15l0,0h.05c1.06.13,1.63,1.24,2.08,2.13.31.6.57,1.12.89,1.17a.64.64,0,0,0,.5-.24.52.52,0,0,0,.17-.41c0-.55-.9-1.25-1.82-2s-2-1.62-2.25-2.43l0-.1.1,0a5.81,5.81,0,0,0,.87.18c.1-1.73.67-2,1-2.17a.7.7,0,0,0,.18-.11,1.83,1.83,0,0,0,.26-.37l.06-.1.05.11a1.73,1.73,0,0,0,1.61,1.09,2.2,2.2,0,0,1,1.69.9,3.94,3.94,0,0,1,0-1c.1-.7.43-1.32.58-1.32a.08.08,0,0,1,.08.07A5.84,5.84,0,0,0,32,12.46c.91,1.25,1.76,2.44.06,4.6a.71.71,0,0,0-.11.72c.1.2.4.43,1.21.39,2.35-.12,5.09-.57,7.85-4.37l.11-.15L41.15,16v0c-.65,1.24-5.41,3.15-6.35,3.52.93.36,5.56,2.22,6.27,3.53h0l.08,2.3L41,25.19c-2.78-3.78-5.52-4.22-7.87-4.35-.64,0-1.06.11-1.2.38a.71.71,0,0,0,.12.73c1.69,2.15.84,3.34-.06,4.61a5.87,5.87,0,0,0-1.17,2.34A.08.08,0,0,1,30.78,29Zm-.5-2.63.12,0a4.52,4.52,0,0,0-.07,1.25,3.07,3.07,0,0,0,.42,1.16,6.14,6.14,0,0,1,1.18-2.32c.91-1.27,1.69-2.37.06-4.45a.86.86,0,0,1-.14-.86c.12-.23.44-.49,1.32-.45,2.35.12,5.08.56,7.85,4.23L41,23.08c-.78-1.38-6.29-3.49-6.34-3.51l-.16-.06.16-.06s5.7-2.2,6.42-3.51L41,14c-2.77,3.71-5.49,4.15-7.84,4.27-.89.05-1.21-.22-1.33-.45a.83.83,0,0,1,.12-.86c1.64-2.09.85-3.18-.06-4.45a6.13,6.13,0,0,1-1.2-2.31,2.73,2.73,0,0,0-.43,1.16,4.94,4.94,0,0,0,.1,1.25l-.11,0a2.09,2.09,0,0,0-1.78-1.11,1.82,1.82,0,0,1-1.65-1.05,2.21,2.21,0,0,1-.22.29.62.62,0,0,1-.21.13c-.32.16-.86.42-1,2.11v0l0,0s-.08.06-.87-.13a7.09,7.09,0,0,0,2.17,2.26c.94.76,1.84,1.48,1.87,2.09a.64.64,0,0,1-.21.5.71.71,0,0,1-.61.27c-.38-.06-.66-.6-1-1.23-.44-.85-1-1.9-1.94-2.06a7.85,7.85,0,0,0,.33,1.09l0,.09h-.09c-.87,0-1.36-.88-1.55-1.67l-.15.42h0c-.51.29-.34,1.3-.19,2.19.12.66.21,1.23,0,1.45a.24.24,0,0,1-.17.07c-.28,0-.72-.41-1.14-.82a5.17,5.17,0,0,0-.7-.59,2.44,2.44,0,0,0-.56-.13c-.64-.13-1.51-.29-1.7-.82-.1-.28,0-.63.35-1a.08.08,0,0,1,.08,0c.05,0,.05.07,0,.15-.05.3-.06.66.3.73a.48.48,0,0,0,.4-.08.81.81,0,0,0,.2-.62,1,1,0,0,0-.49-.66,1.08,1.08,0,0,0-1,0,1.7,1.7,0,0,0-.68,1.14,2.44,2.44,0,0,0,1.2,2l-.07.1a2.36,2.36,0,0,0-2.9.72,5.7,5.7,0,0,1-1.17,1,8,8,0,0,1,1.22,1.06,2.32,2.32,0,0,0,2.9.69l.07.1a2.48,2.48,0,0,0-1.19,2,1.78,1.78,0,0,0,.67,1.17,1.06,1.06,0,0,0,1.07,0,.93.93,0,0,0,.45-.63.87.87,0,0,0-.2-.61.51.51,0,0,0-.4-.09c-.35.07-.34.41-.29.73,0,.08,0,.13,0,.15s-.06,0-.1,0A1.11,1.11,0,0,1,19,23c.19-.52,1.05-.68,1.68-.81a2.2,2.2,0,0,0,.55-.13,4.18,4.18,0,0,0,.7-.59c.43-.41.87-.82,1.15-.82a.24.24,0,0,1,.17.07c.19.21.1.74,0,1.42-.14.85-.32,1.92.2,2.22h0l.16.43c.15-.69.59-1.64,1.53-1.68h.1l0,.09a8.3,8.3,0,0,0-.34,1.09c1-.18,1.51-1.22,1.94-2.07.32-.63.59-1.18,1-1.24a.73.73,0,0,1,.61.26.68.68,0,0,1,.22.52c0,.62-.94,1.35-1.89,2.12a7.23,7.23,0,0,0-2.16,2.24c.79-.19.85-.15.88-.13l0,0v0c.1,1.69.62,1.93,1,2.08a.91.91,0,0,1,.22.13,1.86,1.86,0,0,1,.24.3,1.84,1.84,0,0,1,1.65-1.06A2.13,2.13,0,0,0,30.28,26.35Zm-5-.35h0Zm0-13h0Z"/><path d="M26.41,28.22c-1-2,.26-3.29,1.57-4.65,1.08-1.13,2.2-2.3,2.14-4h-4.2a2.81,2.81,0,0,1-.9,1.63,5.64,5.64,0,0,0-1.6,3.14l-.13,0a5.92,5.92,0,0,1,1.63-3.21c.49-.57.87-1,.87-1.54H15v-.13H25.79a4.09,4.09,0,0,0-1-1.71,6.27,6.27,0,0,1-1.56-3l.13,0a6.08,6.08,0,0,0,1.53,3,4,4,0,0,1,1,1.79h4.21C30,18,29,16.8,28,15.69c-1.33-1.46-2.58-2.84-1.57-4.85l.12.06c-1,1.93.25,3.28,1.55,4.71,1,1.13,2.09,2.29,2.19,3.85h4.34v.13H30.25c.06,1.73-1.08,2.92-2.18,4.07C26.8,25,25.6,26.24,26.52,28.17Z"/><path class="cls-1" d="M32.79,37.55a3.72,3.72,0,0,0-3.45-2.21c-1.16-.05-3,1.54-4.07,2.21a2.58,2.58,0,0,1-3-.89c-.62-1.53.35-1.83.83-1.75,0,0-.57,1.1.39,1,.59-.1.76-1,.64-1.34-.19-.72-1.2-.65-1.61-.53-1.32.38-1.1,2.23-.65,2.93.65,1,2.29,1.2,3.32,1,1.56-.24,2.85-1.85,3.79-1.8.24,0,.51.86.27.91-1.59.3-1.37,1.42-1.37,1.42v0s-.22,1.1,1.37,1.4c.24.05-.08.94-.32.94-.94,0-2.16-1.62-3.74-1.83-1-.14-2.67,0-3.32,1.05-.43.7-.64,2.54.65,2.93.41.12,1.42.19,1.64-.53.1-.35-.05-1.27-.65-1.34-1-.14-.38,1-.38,1-.48.1-1.46-.22-.84-1.75a2.6,2.6,0,0,1,3.05-.89c1.1.67,2.91,2.26,4.06,2.21a3.75,3.75,0,0,0,3.45-2.21V37.56h0Z"/><path d="M23.05,43.17a2.15,2.15,0,0,1-.59-.08,1.33,1.33,0,0,1-.89-.85,2.76,2.76,0,0,1,.21-2.17c.69-1.12,2.45-1.21,3.38-1.08a5.22,5.22,0,0,1,2.25,1.1,2.81,2.81,0,0,0,1.48.72c.11,0,.31-.35.34-.65,0-.09,0-.16,0-.16A1.85,1.85,0,0,1,28,39.32a1.08,1.08,0,0,1-.18-.79v0a1.18,1.18,0,0,1,.2-.8A1.81,1.81,0,0,1,29.2,37s.05-.09,0-.2c0-.28-.2-.59-.3-.59a3.17,3.17,0,0,0-1.55.73A5.77,5.77,0,0,1,25.16,38c-.93.14-2.68.07-3.38-1.08a2.72,2.72,0,0,1-.24-2.16,1.4,1.4,0,0,1,.92-.87,2,2,0,0,1,1.32.09.76.76,0,0,1,.37.49,1.44,1.44,0,0,1-.16,1,.81.81,0,0,1-.53.39c-.27,0-.45,0-.55-.15s0-.65.06-.83a.86.86,0,0,0-.71.29,1.41,1.41,0,0,0,0,1.39,2.17,2.17,0,0,0,1.28.91,2.1,2.1,0,0,0,1.67,0c.29-.18.63-.42,1-.67,1.05-.75,2.23-1.59,3.11-1.55a3.75,3.75,0,0,1,3.5,2.22h0v2a3.77,3.77,0,0,1-3.51,2.25c-.87,0-2.06-.8-3.11-1.55-.36-.25-.7-.49-1-.67a2.08,2.08,0,0,0-1.66-.05,2.15,2.15,0,0,0-1.3.91c-.25.63-.26,1.12,0,1.41a.85.85,0,0,0,.71.27c-.08-.17-.24-.59-.07-.83s.28-.19.55-.15a.71.71,0,0,1,.5.34,1.48,1.48,0,0,1,.2,1.09A1.06,1.06,0,0,1,23.05,43.17Zm1.42-4.1a3,3,0,0,0-2.58,1.06,2.69,2.69,0,0,0-.2,2.07,1.22,1.22,0,0,0,.81.77c.34.1,1.35.21,1.56-.49a1.43,1.43,0,0,0-.18-1,.57.57,0,0,0-.42-.28c-.22,0-.36,0-.43.1s0,.62.12.77l0,.07-.09,0a1,1,0,0,1-.9-.29c-.2-.24-.35-.69,0-1.55a2.28,2.28,0,0,1,1.38-1,2.11,2.11,0,0,1,1.76.07c.29.17.63.41,1,.67,1,.7,2.21,1.56,3,1.52.44,0,2.68-.22,3.39-2.15V37.63h0v-.07a3.54,3.54,0,0,0-3.39-2.16c-.83,0-2,.83-3,1.53-.36.26-.7.5-1,.67a2.16,2.16,0,0,1-1.78.07,2.26,2.26,0,0,1-1.36-1c-.34-.84-.2-1.29,0-1.52a1,1,0,0,1,.91-.32h.09l0,.08c-.08.15-.25.58-.11.78s.21.12.43.09a.66.66,0,0,0,.44-.33,1.3,1.3,0,0,0,.15-.93.65.65,0,0,0-.32-.42,1.76,1.76,0,0,0-1.21-.07,1.21,1.21,0,0,0-.84.79,2.56,2.56,0,0,0,.23,2c.58,1,2.09,1.2,3.25,1a5.61,5.61,0,0,0,2.18-1.06A3.13,3.13,0,0,1,29,36.12h0c.22,0,.39.45.41.7s-.07.32-.14.34a1.65,1.65,0,0,0-1.14.62,1,1,0,0,0-.18.72v0a1.06,1.06,0,0,0,.17.71,1.69,1.69,0,0,0,1.15.62c.06,0,.16.07.13.31s-.22.76-.46.76a3,3,0,0,1-1.56-.75,5.24,5.24,0,0,0-2.19-1.08A4.47,4.47,0,0,0,24.47,39.07Z"/><path class="cls-1" d="M40.75,36.42c-.22,1.13-3.07,2.11-3.07,2.11s2.8,1.46,3.18,2.64l-.07,1.37c-.92-3.1-4.4-3.34-4.4-3.34.75,1,1.4,2.5-.38,3.94,0,0,.54-1.35.27-1.65A3.55,3.55,0,0,1,35,43.1c-.41.33-1.54.26-2,.57l.43-1.37a2.69,2.69,0,0,1-2,1.24,2.76,2.76,0,0,1,.44-2,3.23,3.23,0,0,0,.64-2.29c-.75,1.65-3.69,1.81-4.25,1.4-.07,0,.65-.76.65-.76a1.52,1.52,0,0,1-1-.62c0-.22.51-.68.6-.82s-.55-.45-.58-.67.73-.67,1-.62c0,0-.74-.72-.64-.76.54-.41,3.5-.27,4.25,1.39a3.23,3.23,0,0,0-.67-2.28,2.89,2.89,0,0,1-.41-2,2.66,2.66,0,0,1,2,1.24L33,33.4c.5.29,1.63.24,2,.57a3.44,3.44,0,0,1,1.24,1.61c.27-.31-.26-1.65-.26-1.65,1.78,1.44,1.13,2.88.38,3.94,0,0,3.5-.24,4.39-3.34l-.06,1.89Z"/><path d="M32.88,43.81l.34-1.09a2.88,2.88,0,0,1-1.81.88h-.05l0,0a2.89,2.89,0,0,1,.44-2.05,3.54,3.54,0,0,0,.66-2,3,3,0,0,1-1.91,1.26,3.52,3.52,0,0,1-2.34,0l0,0v0c0-.08.19-.32.57-.71a2,2,0,0,1-.74-.44c-.16-.13-.17-.2-.16-.24a1.53,1.53,0,0,1,.43-.64l.14-.16c-.14-.12-.53-.47-.55-.67q0-.07.12-.21a2.05,2.05,0,0,1,.79-.47c-.6-.59-.58-.68-.57-.71a.06.06,0,0,1,0-.06,3.6,3.6,0,0,1,2.32,0,3,3,0,0,1,1.93,1.27,3.55,3.55,0,0,0-.69-2,3,3,0,0,1-.41-2v0h.06a3,3,0,0,1,1.8.87l-.33-1.07.14.08a3,3,0,0,0,1,.26,2.56,2.56,0,0,1,1.08.32,3.74,3.74,0,0,1,1.21,1.49A3.81,3.81,0,0,0,36,34l-.09-.23.19.15c1.78,1.44,1.16,2.9.47,3.91.65-.09,3.43-.61,4.2-3.28l.12,0-.06,1.9c-.2,1-2.4,1.9-3,2.11.56.3,2.75,1.55,3.09,2.61h0l-.08,1.38-.13,0a4.94,4.94,0,0,0-4.19-3.28c.69,1,1.31,2.47-.48,3.9l-.19.16.09-.23a3.89,3.89,0,0,0,.33-1.45,3.78,3.78,0,0,1-1.21,1.49,2.47,2.47,0,0,1-1.06.31,3.17,3.17,0,0,0-1,.26Zm.49-1.54.11,0-.38,1.22a4.18,4.18,0,0,1,.89-.2,2.59,2.59,0,0,0,1-.29,3.47,3.47,0,0,0,1.22-1.58l0-.11.08.08c.22.26,0,1.08-.17,1.49,1.51-1.36.9-2.68.18-3.69l-.08-.11h.14s3.29.26,4.34,3.06l.06-1c-.39-1.14-3.13-2.58-3.15-2.6l-.14-.06.14-.05s2.82-1,3-2.06l0-1.45c-1.06,2.72-4.27,3-4.31,3h-.13l.08-.11c.72-1,1.33-2.33-.19-3.69.15.41.39,1.22.17,1.48l-.07.09,0-.11A3.42,3.42,0,0,0,35,34a2.63,2.63,0,0,0-1-.3,4.23,4.23,0,0,1-.88-.2l.39,1.23-.12,0a2.51,2.51,0,0,0-1.91-1.2,2.88,2.88,0,0,0,.41,1.88,3.26,3.26,0,0,1,.68,2.34l0,.18-.08-.17a2.9,2.9,0,0,0-1.94-1.39,3.64,3.64,0,0,0-2.19,0,5.28,5.28,0,0,0,.63.68l.15.15-.21,0a1.17,1.17,0,0,0-.61.27c-.22.15-.3.26-.3.29s.34.45.55.63l0,0,0,0s-.1.12-.18.22a1.91,1.91,0,0,0-.41.56,1.14,1.14,0,0,0,.34.31,1.08,1.08,0,0,0,.58.25l.2,0-.15.14a5.69,5.69,0,0,0-.62.69,3.7,3.7,0,0,0,2.2,0,2.9,2.9,0,0,0,1.93-1.38l.07-.18,0,.19a3.31,3.31,0,0,1-.66,2.33,2.8,2.8,0,0,0-.44,1.89A2.6,2.6,0,0,0,33.37,42.27Zm-5.1-1.66Z"/><path class="cls-1" d="M24.22,38.92c-1,0-2.28.7-3.48.53a8.26,8.26,0,0,1-2.4-1.15,14.57,14.57,0,0,1,2.35-1c1.27-.29,2.54.81,3.5.84.17,0,.22.75,0,.77Z"/><path d="M21.13,39.54a2.68,2.68,0,0,1-.4,0,8.39,8.39,0,0,1-2.42-1.17l-.09-.06.09,0a14.2,14.2,0,0,1,2.37-1,3.73,3.73,0,0,1,2.24.44,3.78,3.78,0,0,0,1.28.39c.16,0,.2.32.2.42s0,.46-.17.48h0a6,6,0,0,0-1.31.26A7.53,7.53,0,0,1,21.13,39.54Zm-2.66-1.23a7.57,7.57,0,0,0,2.28,1.08,5.45,5.45,0,0,0,2.13-.28,6.54,6.54,0,0,1,1.33-.25s.05,0,.06-.15a.72.72,0,0,0-.08-.5,3.94,3.94,0,0,1-1.32-.4,3.59,3.59,0,0,0-2.16-.44A13.26,13.26,0,0,0,18.47,38.31Z"/><path class="cls-1" d="M24.25,37c.53-.12.43,1.51.43,1.51,0,.24.07,1.43-.43,1.54-.58-.08-.41-1.54-.41-1.54S23.76,37,24.25,37Z"/><path d="M24.25,40.09h0c-.63-.09-.47-1.55-.46-1.61S23.72,37.31,24,37a.25.25,0,0,1,.21-.08.26.26,0,0,1,.24.06c.33.28.27,1.39.26,1.51v.09c0,.38,0,1.4-.48,1.51Zm0-3.05a.18.18,0,0,0-.11.05,2.82,2.82,0,0,0-.22,1.4c0,.39-.06,1.4.34,1.47.4-.1.38-1.06.37-1.38v-.09c0-.33,0-1.21-.21-1.41a.15.15,0,0,0-.14,0h0Z"/><path class="cls-1" d="M27.81,38.49l9.94.08m-4.39,3.91,1.42-4m0,0L33.4,34.63"/><polygon points="33.42 42.5 33.3 42.45 34.68 38.6 27.81 38.55 27.81 38.43 34.71 38.48 33.34 34.65 33.46 34.61 34.85 38.48 37.75 38.5 37.75 38.63 34.82 38.61 33.42 42.5"/><path class="cls-1" d="M41,88.14c-1-2.64-4.53-2.35-4.53-2.35s3.55,0,4.47-3.07Z"/><path d="M41,88.16c-.84-2.23-3.57-2.33-4.29-2.32h-.18v-.13h.18c.73,0,3.46-.4,4.24-3H41l.06,5.42Zm-3.55-2.41A4.2,4.2,0,0,1,41,87.82l0-4.73A4.5,4.5,0,0,1,37.43,85.75Z"/><path class="cls-1" d="M41,103.91c-1,2.64-4.53,2.35-4.53,2.35s3.55,0,4.47,3.07Z"/><path d="M40.92,109.35c-.78-2.62-3.51-3-4.23-3H36.5v-.13h.18c.72,0,3.45-.09,4.29-2.32l.12,0L41,109.33Zm-3.49-3A4.5,4.5,0,0,1,40.92,109l0-4.73A4.2,4.2,0,0,1,37.43,106.3Z"/><path class="cls-1" d="M32.85,106.34s1.46,1.18,2.45.94c0,0-1.13,1.08-.19,1.94a1.93,1.93,0,0,1,1.64-1.32,1.79,1.79,0,0,0,1.59-1.56v0a1.77,1.77,0,0,0-1.59-1.56,2,2,0,0,1-1.64-1.32c-.94.84.19,1.94.19,1.94-1-.24-2.45.92-2.45.92Z"/><path d="M35.15,109.34l-.08-.07a1.15,1.15,0,0,1-.4-.82,1.81,1.81,0,0,1,.46-1.08,4.31,4.31,0,0,1-2.32-1l-.06,0,.06,0a4.3,4.3,0,0,1,2.32-1,1.75,1.75,0,0,1-.45-1.1,1,1,0,0,1,.39-.8l.08-.06,0,.1a1.9,1.9,0,0,0,1.59,1.27,1.81,1.81,0,0,1,1.64,1.63h0A1.85,1.85,0,0,1,36.76,108a1.9,1.9,0,0,0-1.59,1.28Zm.37-2.18-.17.16a1.87,1.87,0,0,0-.55,1.13.94.94,0,0,0,.28.65,2.06,2.06,0,0,1,1.66-1.26,1.73,1.73,0,0,0,1.53-1.5h0a1.7,1.7,0,0,0-1.53-1.47,2.12,2.12,0,0,1-1.66-1.27.93.93,0,0,0-.28.63,1.86,1.86,0,0,0,.55,1.15l.16.16-.22-.05c-.83-.21-2,.63-2.33.85.29.22,1.49,1.08,2.33.88Z"/><path class="cls-1" d="M40.91,65.31c-1,2.64-4.53,2.35-4.53,2.35s3.56,0,4.47,3.07Z"/><path d="M40.79,70.75c-.78-2.62-3.51-3-4.23-3h-.18V67.6h.18c.72,0,3.46-.08,4.29-2.31l.13,0-.07,5.42Zm-3.49-3a4.47,4.47,0,0,1,3.49,2.66l.06-4.73A4.21,4.21,0,0,1,37.3,67.7Z"/><path class="cls-1" d="M41,50c-1-2.64-4.53-2.35-4.53-2.35s3.55,0,4.47-3.07Z"/><path d="M41,50.05c-.84-2.23-3.57-2.33-4.29-2.31h-.18v-.12h.18c.73,0,3.46-.4,4.24-3l.12,0L41.1,50Zm-3.55-2.41A4.2,4.2,0,0,1,41,49.71l0-4.73A4.5,4.5,0,0,1,37.43,47.64Z"/><path class="cls-1" d="M41,27c-1,2.64-4.53,2.35-4.53,2.35s3.55,0,4.47,3.07Z"/><path d="M40.92,32.4c-.78-2.62-3.51-3-4.23-3H36.5v-.12h.18c.72,0,3.45-.09,4.29-2.32l.12,0L41,32.38Zm-3.49-3A4.5,4.5,0,0,1,40.92,32l0-4.73A4.2,4.2,0,0,1,37.43,29.35Z"/><path class="cls-1" d="M41,11.79c-1-2.64-4.53-2.34-4.53-2.34s3.55,0,4.47-3.08Z"/><path d="M41,11.82c-.84-2.23-3.57-2.33-4.29-2.32h-.18V9.38h.18c.73-.05,3.46-.4,4.24-3H41l.06,5.42ZM37.43,9.4A4.23,4.23,0,0,1,41,11.48l0-4.74A4.46,4.46,0,0,1,37.43,9.4Z"/><rect class="cls-1" x="40.8" y="4.03" width="1.32" height="107.95"/><path d="M42.18,112H40.73V4h1.45Zm-1.32-.13h1.19V4.09H40.86Z"/><path class="cls-1" d="M32.93,85.62s1.46,1.18,2.45.94c0,0-1.13,1.08-.19,1.94a1.93,1.93,0,0,1,1.64-1.32,1.78,1.78,0,0,0,1.58-1.56v0a1.74,1.74,0,0,0-1.58-1.56,2,2,0,0,1-1.64-1.32c-.94.83.19,1.94.19,1.94-1-.24-2.45.91-2.45.91Z"/><path d="M35.22,88.62l-.08-.07a1.12,1.12,0,0,1-.39-.82,1.78,1.78,0,0,1,.46-1.08,4.16,4.16,0,0,1-2.32-1l-.06,0,.06-.05a4.27,4.27,0,0,1,2.32-.95,1.84,1.84,0,0,1-.46-1.11,1.07,1.07,0,0,1,.4-.79l.07-.07,0,.1A1.88,1.88,0,0,0,36.84,84a1.82,1.82,0,0,1,1.64,1.63h0a1.86,1.86,0,0,1-1.64,1.6,1.88,1.88,0,0,0-1.58,1.27Zm.37-2.18-.17.17a1.81,1.81,0,0,0-.54,1.12,1,1,0,0,0,.28.66,2,2,0,0,1,1.66-1.27,1.72,1.72,0,0,0,1.53-1.5h0a1.72,1.72,0,0,0-1.54-1.47,2.06,2.06,0,0,1-1.65-1.27.91.91,0,0,0-.28.64,1.83,1.83,0,0,0,.54,1.14l.17.16-.23,0c-.83-.2-2,.64-2.33.85.29.22,1.5,1.08,2.33.88Z"/><path class="cls-1" d="M32.85,67.7s1.46,1.18,2.45.94c0,0-1.13,1.08-.19,1.94a1.93,1.93,0,0,1,1.64-1.32,1.79,1.79,0,0,0,1.59-1.56v0a1.77,1.77,0,0,0-1.59-1.56,2,2,0,0,1-1.64-1.32c-.94.84.19,1.94.19,1.94-1-.24-2.45.92-2.45.92Z"/><path d="M35.15,70.7l-.08-.07a1.15,1.15,0,0,1-.4-.82,1.81,1.81,0,0,1,.46-1.08,4.31,4.31,0,0,1-2.32-1l-.06,0,.06,0a4.3,4.3,0,0,1,2.32-1,1.75,1.75,0,0,1-.45-1.1,1,1,0,0,1,.39-.8l.08-.06,0,.1a1.9,1.9,0,0,0,1.59,1.27,1.81,1.81,0,0,1,1.64,1.63h0a1.85,1.85,0,0,1-1.64,1.59,1.85,1.85,0,0,0-1.59,1.28Zm.37-2.18-.17.16a1.87,1.87,0,0,0-.55,1.13.94.94,0,0,0,.28.65,2.06,2.06,0,0,1,1.66-1.26,1.73,1.73,0,0,0,1.53-1.5h0a1.71,1.71,0,0,0-1.53-1.48A2.09,2.09,0,0,1,35.08,65a.93.93,0,0,0-.28.63,1.89,1.89,0,0,0,.55,1.15l.16.16-.22-.05c-.83-.21-2,.63-2.33.85.29.22,1.49,1.08,2.33.88Z"/><path class="cls-1" d="M32.93,47.71s1.46,1.18,2.45.93c0,0-1.13,1.08-.19,2a1.93,1.93,0,0,1,1.64-1.32,1.8,1.8,0,0,0,1.58-1.56v0a1.74,1.74,0,0,0-1.58-1.56,2,2,0,0,1-1.64-1.32c-.94.84.19,1.94.19,1.94-1-.24-2.45.92-2.45.92Z"/><path d="M35.22,50.7l-.08-.07a1.1,1.1,0,0,1-.39-.82,1.72,1.72,0,0,1,.46-1.07,4.23,4.23,0,0,1-2.32-1l-.06,0,.06,0a4.18,4.18,0,0,1,2.32-1,1.84,1.84,0,0,1-.46-1.1,1.09,1.09,0,0,1,.4-.8l.07-.07,0,.1a1.89,1.89,0,0,0,1.59,1.28,1.82,1.82,0,0,1,1.64,1.62h0a1.85,1.85,0,0,1-1.64,1.6,1.85,1.85,0,0,0-1.58,1.27Zm.37-2.17-.17.16a1.84,1.84,0,0,0-.54,1.12,1,1,0,0,0,.28.66,2,2,0,0,1,1.66-1.27,1.71,1.71,0,0,0,1.53-1.49h0a1.72,1.72,0,0,0-1.54-1.48A2.06,2.06,0,0,1,35.16,45a.91.91,0,0,0-.28.64,1.9,1.9,0,0,0,.54,1.15l.17.16-.23-.06c-.83-.2-2,.64-2.33.86.29.22,1.5,1.08,2.33.87Z"/><path class="cls-1" d="M32.93,29.32s1.46,1.18,2.45.94c0,0-1.13,1.08-.19,1.95a1.93,1.93,0,0,1,1.64-1.32,1.8,1.8,0,0,0,1.58-1.57v0a1.74,1.74,0,0,0-1.58-1.56,2,2,0,0,1-1.64-1.32c-.94.84.19,1.94.19,1.94-1-.24-2.45.91-2.45.91Z"/><path d="M35.22,32.32l-.08-.07a1.1,1.1,0,0,1-.39-.82,1.72,1.72,0,0,1,.46-1.07,4.23,4.23,0,0,1-2.32-1l-.06-.05.06-.05a4.27,4.27,0,0,1,2.32-.95,1.84,1.84,0,0,1-.46-1.1,1.09,1.09,0,0,1,.4-.8l.07-.07,0,.1a1.89,1.89,0,0,0,1.59,1.28,1.81,1.81,0,0,1,1.64,1.62h0A1.86,1.86,0,0,1,36.83,31a1.85,1.85,0,0,0-1.58,1.27Zm.37-2.17-.17.16a1.81,1.81,0,0,0-.54,1.12,1,1,0,0,0,.28.66,2,2,0,0,1,1.66-1.27,1.72,1.72,0,0,0,1.53-1.5h0a1.69,1.69,0,0,0-1.54-1.47,2.06,2.06,0,0,1-1.65-1.27.91.91,0,0,0-.28.64,1.9,1.9,0,0,0,.54,1.15l.17.16-.23-.06c-.83-.2-2,.64-2.33.85.29.22,1.5,1.08,2.33.88Z"/><path class="cls-1" d="M33,9.39s1.46,1.19,2.45.94c0,0-1.13,1.08-.19,1.95A1.93,1.93,0,0,1,36.91,11,1.8,1.8,0,0,0,38.5,9.39v0a1.74,1.74,0,0,0-1.59-1.56,2,2,0,0,1-1.63-1.32c-.94.84.19,1.94.19,1.94-1-.23-2.45.91-2.45.91Z"/><path d="M35.31,12.39l-.08-.07a1.1,1.1,0,0,1-.39-.82,1.72,1.72,0,0,1,.46-1.07,4.15,4.15,0,0,1-2.32-1l-.07,0L33,9.34a4.39,4.39,0,0,1,2.32-.95,1.81,1.81,0,0,1-.46-1.1,1.12,1.12,0,0,1,.39-.8l.08-.07,0,.1A1.88,1.88,0,0,0,36.92,7.8a1.79,1.79,0,0,1,1.64,1.62h0A1.86,1.86,0,0,1,36.92,11a1.86,1.86,0,0,0-1.58,1.27Zm.37-2.17-.17.16A1.84,1.84,0,0,0,35,11.5a.93.93,0,0,0,.28.66,2,2,0,0,1,1.66-1.27,1.71,1.71,0,0,0,1.53-1.5h0A1.72,1.72,0,0,0,36.9,7.92a2.06,2.06,0,0,1-1.65-1.27.91.91,0,0,0-.28.64,1.9,1.9,0,0,0,.54,1.15l.16.15-.22-.05c-.82-.19-2,.64-2.33.86.29.22,1.5,1.08,2.33.87Z"/><path class="cls-4" d="M49.53,105.81a1.8,1.8,0,1,1-1.8-1.81,1.81,1.81,0,0,1,1.8,1.81Z"/><path d="M47.73,107.67a1.85,1.85,0,0,1-1.87-1.86,1.87,1.87,0,0,1,1.87-1.87,1.85,1.85,0,0,1,1.87,1.87A1.87,1.87,0,0,1,47.73,107.67Zm0-3.6A1.74,1.74,0,0,0,46,105.81a1.71,1.71,0,0,0,1.74,1.73,1.74,1.74,0,1,0,0-3.47Z"/><path class="cls-4" d="M49.53,81.9a1.81,1.81,0,0,1-1.8,1.81,1.81,1.81,0,1,1,1.8-1.81Z"/><path d="M47.73,83.77a1.87,1.87,0,1,1,0-3.73,1.87,1.87,0,1,1,0,3.73Zm0-3.61A1.74,1.74,0,0,0,46,81.9a1.72,1.72,0,0,0,1.74,1.74,1.74,1.74,0,0,0,1.74-1.74A1.76,1.76,0,0,0,47.73,80.16Z"/><path class="cls-4" d="M49.53,58a1.8,1.8,0,1,1-1.8-1.81A1.78,1.78,0,0,1,49.53,58Z"/><path d="M47.73,59.89A1.85,1.85,0,0,1,45.86,58a1.87,1.87,0,0,1,1.87-1.87A1.85,1.85,0,0,1,49.6,58,1.87,1.87,0,0,1,47.73,59.89Zm0-3.6A1.74,1.74,0,0,0,46,58a1.71,1.71,0,0,0,1.74,1.73,1.74,1.74,0,1,0,0-3.47Z"/><path class="cls-4" d="M49.53,34.12a1.81,1.81,0,0,1-1.8,1.81,1.81,1.81,0,1,1,1.8-1.81Z"/><path d="M47.73,36a1.87,1.87,0,1,1,1.87-1.87A1.87,1.87,0,0,1,47.73,36Zm0-3.61A1.74,1.74,0,0,0,46,34.12a1.72,1.72,0,0,0,1.74,1.74,1.74,1.74,0,1,0,0-3.48Z"/><path class="cls-4" d="M49.53,10.25a1.8,1.8,0,1,1-1.8-1.81,1.78,1.78,0,0,1,1.8,1.81Z"/><path d="M47.73,12.11a1.85,1.85,0,0,1-1.87-1.86,1.87,1.87,0,0,1,1.87-1.87,1.85,1.85,0,0,1,1.87,1.87A1.87,1.87,0,0,1,47.73,12.11Zm0-3.6A1.74,1.74,0,0,0,46,10.25,1.71,1.71,0,0,0,47.73,12a1.74,1.74,0,1,0,0-3.47Z"/><polygon class="cls-1" points="44.76 22.29 47.73 19.31 50.71 22.29 47.73 25.24 44.76 22.29"/><path d="M47.73,25.33l-3.06-3,3.06-3.07,3.07,3.07Zm-2.88-3,2.88,2.86,2.89-2.86L47.73,19.4Z"/><polygon class="cls-3" points="44.98 22.29 45.86 23.19 46.8 23.19 46.8 24.13 47.72 25.02 47.76 25.02 48.64 24.13 48.64 23.19 49.58 23.19 50.5 22.29 50.5 22.27 49.58 21.35 48.64 21.35 48.64 20.41 47.76 19.52 47.72 19.52 46.8 20.41 46.8 21.35 45.86 21.35 44.98 22.27 44.98 22.29"/><path d="M47.78,25.08h-.09l-.95-.92v-.9h-.9l-.93-.94v-.08l.93-.95h.9v-.9l.95-.93h.09l.93.93v.9h.9l1,.95v.08l-1,.94h-.9v.9Zm-.91-1,.87.84.84-.84v-1h1l.86-.85-.86-.86h-1v-1l-.84-.84-.87.84v1h-1l-.84.86.84.85h1Z"/><path class="cls-1" d="M46.49,19.91c.13.14,0,.5-.32.78s-.67.46-.79.32,0-.48.32-.79.65-.45.79-.31Z"/><path d="M45.52,21.13h0a.25.25,0,0,1-.17-.08.27.27,0,0,1-.07-.19,1.21,1.21,0,0,1,.39-.68,1,1,0,0,1,.67-.39.25.25,0,0,1,.21.07h0a.25.25,0,0,1,.07.21,1,1,0,0,1-.39.67A1.17,1.17,0,0,1,45.52,21.13Zm.81-1.22h0a.9.9,0,0,0-.57.34,1,1,0,0,0-.36.6.11.11,0,0,0,0,.1.08.08,0,0,0,.07,0,1,1,0,0,0,.62-.35,1,1,0,0,0,.36-.58.15.15,0,0,0,0-.12A.16.16,0,0,0,46.33,19.91Z"/><path class="cls-1" d="M49,19.91c-.14.14,0,.5.31.78s.68.46.79.32,0-.48-.32-.79-.64-.45-.78-.31Z"/><path d="M50,21.13a1.17,1.17,0,0,1-.7-.39,1,1,0,0,1-.39-.67.28.28,0,0,1,.07-.21.24.24,0,0,1,.2-.07,1.05,1.05,0,0,1,.68.39,1.1,1.1,0,0,1,.39.68.27.27,0,0,1-.07.19.25.25,0,0,1-.17.08Zm-.82-1.22A.16.16,0,0,0,49,20a.14.14,0,0,0,0,.12.88.88,0,0,0,.35.57A1,1,0,0,0,50,21,.08.08,0,0,0,50,21a.14.14,0,0,0,0-.11,1,1,0,0,0-.35-.59,1,1,0,0,0-.59-.36Z"/><path class="cls-1" d="M49,24.64c-.14-.14,0-.48.31-.79s.68-.45.79-.31,0,.5-.32.78-.64.43-.78.32Z"/><path d="M49.12,24.74a.23.23,0,0,1-.17,0h0a.27.27,0,0,1-.07-.2A1.47,1.47,0,0,1,50,23.42a.21.21,0,0,1,.17.08.24.24,0,0,1,.07.2,1.05,1.05,0,0,1-.4.67A1.13,1.13,0,0,1,49.12,24.74ZM49,24.59c.1.08.42,0,.7-.31a.9.9,0,0,0,.35-.58.19.19,0,0,0,0-.12.11.11,0,0,0-.08,0,1,1,0,0,0-.62.35,1,1,0,0,0-.35.59A.11.11,0,0,0,49,24.59Z"/><path class="cls-1" d="M46.49,24.64c-.14.14-.51,0-.79-.32s-.46-.67-.32-.78.51,0,.79.31.44.65.32.79Z"/><path d="M46.33,24.76h0a1.05,1.05,0,0,1-.67-.4,1.13,1.13,0,0,1-.39-.71.23.23,0,0,1,.08-.16.28.28,0,0,1,.21-.07,1.1,1.1,0,0,1,.67.39c.28.27.48.68.31.87h0A.32.32,0,0,1,46.33,24.76Zm-.8-1.21a.15.15,0,0,0-.1,0,.09.09,0,0,0,0,.08,1,1,0,0,0,.35.62.92.92,0,0,0,.58.35.19.19,0,0,0,.12,0c.09-.1,0-.43-.32-.7a.9.9,0,0,0-.58-.35Z"/><path class="cls-1" d="M46.8,18.9c0-.14.33-.29.75-.33a.4.4,0,0,0,.19-.1s.12.1.17.1c.43,0,.76.17.76.33s-.43.33-1,.33-.9-.16-.9-.33Z"/><path d="M47.65,19.3a1.36,1.36,0,0,1-.84-.24.21.21,0,0,1-.07-.16c0-.21.41-.36.81-.39a.3.3,0,0,0,.15-.09l0,0,0,0a.33.33,0,0,0,.13.09c.4,0,.82.16.82.39s-.53.4-1,.4Zm.09-.75a.34.34,0,0,1-.19.09c-.44,0-.68.19-.68.26a.13.13,0,0,0,0,.07,1.29,1.29,0,0,0,.8.2c.53,0,.91-.14.91-.27s-.25-.24-.71-.26h0A.38.38,0,0,1,47.74,18.55Z"/><path class="cls-1" d="M48.69,25.64c0,.14-.33.3-.75.33a.46.46,0,0,0-.19.1s-.11-.1-.16-.1c-.43,0-.76-.16-.76-.33s.43-.33,1-.33.9.17.9.33Z"/><path d="M47.75,26.16l0,0a.3.3,0,0,0-.12-.08c-.4,0-.83-.16-.83-.4s.54-.39,1-.39,1,.16,1,.39-.42.36-.81.4a.37.37,0,0,0-.15.08Zm-.16-.25a.33.33,0,0,1,.17.08.37.37,0,0,1,.19-.08c.44,0,.68-.2.68-.27s-.35-.26-.84-.26-.9.14-.9.26.25.24.7.27Z"/><path class="cls-1" d="M44.33,23.22c-.14,0-.29-.33-.33-.75a.4.4,0,0,0-.1-.19s.1-.12.1-.17c0-.43.16-.76.33-.76s.33.43.33.94-.14.93-.33.93Z"/><path d="M44.33,23.28c-.21,0-.36-.41-.4-.8a.4.4,0,0,0-.08-.16l0,0,0,0a.41.41,0,0,0,.08-.13c0-.4.16-.82.4-.82s.39.5.39,1a1.36,1.36,0,0,1-.22.91A.25.25,0,0,1,44.33,23.28Zm-.35-1a.41.41,0,0,1,.08.19c0,.44.2.69.27.69s.06,0,.08-.05a1.28,1.28,0,0,0,.18-.81c0-.51-.14-.88-.26-.88s-.24.24-.27.7A.34.34,0,0,1,44,22.28Z"/><path class="cls-1" d="M51.14,21.33c.14,0,.3.33.33.75,0,.07.11.19.11.19s-.11.11-.11.16c0,.43-.16.76-.33.76s-.33-.43-.33-.94.14-.92.33-.92Z"/><path d="M51.14,23.26c-.25,0-.39-.51-.39-1a1.38,1.38,0,0,1,.23-.91.24.24,0,0,1,.16-.08c.21,0,.36.42.4.81a.37.37,0,0,0,.08.15l0,.05,0,0-.08.12C51.51,22.83,51.38,23.26,51.14,23.26Zm0-1.87s0,0-.07,0a1.33,1.33,0,0,0-.19.82c0,.51.14.88.26.88s.24-.24.27-.7a.3.3,0,0,1,.08-.16.46.46,0,0,1-.08-.19C51.37,21.63,51.21,21.39,51.14,21.39Z"/><path class="cls-1" d="M47.21,50.18a.53.53,0,0,0,.53.53.55.55,0,0,0,.55-.53.54.54,0,0,0-.55-.53.5.5,0,0,0-.53.53Z"/><path d="M47.74,50.78a.59.59,0,0,1-.59-.6.64.64,0,0,1,.19-.46.56.56,0,0,1,.41-.14h0a.6.6,0,0,1,.6.6A.62.62,0,0,1,47.74,50.78Zm0-1.07a.43.43,0,0,0-.28.11.51.51,0,0,0-.15.36.47.47,0,0,0,.47.47.48.48,0,0,0,.48-.47.47.47,0,0,0-.48-.47Z"/><path class="cls-1" d="M47.21,41.75a.53.53,0,0,0,.53.53.55.55,0,0,0,.55-.53.54.54,0,0,0-.55-.53.5.5,0,0,0-.53.53Z"/><path d="M47.74,42.35a.59.59,0,0,1-.59-.6.64.64,0,0,1,.19-.46.51.51,0,0,1,.41-.13h0a.59.59,0,0,1,.6.59A.61.61,0,0,1,47.74,42.35Zm0-1.07a.43.43,0,0,0-.28.11.51.51,0,0,0-.15.36.47.47,0,0,0,.47.47.48.48,0,0,0,.48-.47.47.47,0,0,0-.48-.47Z"/><path class="cls-1" d="M49.72,46c0,1.94-.89,3.53-2,3.53s-2-1.59-2-3.53.88-3.56,2-3.56,2,1.59,2,3.56Z"/><path d="M47.7,49.57c-1.14,0-2.08-1.61-2.08-3.59s.94-3.62,2.08-3.62S49.79,44,49.79,46,48.87,49.57,47.7,49.57Zm0-7.08c-1.07,0-2,1.56-2,3.49s.88,3.46,2,3.46,2-1.55,2-3.46S48.78,42.49,47.7,42.49Z"/><path class="cls-5" d="M49.42,45.93c0-1.68-.68-3-1.51-3.21,0,0-.17.21-.17.21s-.11-.21-.16-.21c-.84.16-1.51,1.53-1.51,3.21v0c0,1.67.67,3.05,1.51,3.21.05,0,.16-.22.16-.22s.12.22.17.22c.83-.16,1.51-1.54,1.51-3.21v0Z"/><path d="M47.58,49.25C46.67,49.08,46,47.67,46,46v0c0-1.69.67-3.1,1.56-3.28,0,0,.09,0,.18.15.1-.15.14-.15.17-.15.9.18,1.57,1.59,1.57,3.28v0c0,1.69-.67,3.1-1.56,3.27,0,0-.08,0-.18-.15C47.65,49.25,47.6,49.25,47.58,49.25Zm.16-.41.06.1a.61.61,0,0,0,.12.18c.8-.16,1.43-1.54,1.43-3.14v0c0-1.59-.63-3-1.43-3.15a1.11,1.11,0,0,0-.12.18l-.06.11L47.69,43l-.12-.18c-.8.17-1.44,1.55-1.44,3.15v0c0,1.59.63,3,1.44,3.14a.9.9,0,0,0,.12-.18Z"/><path class="cls-1" d="M50.37,46a.27.27,0,1,0-.27.27.28.28,0,0,0,.27-.27Z"/><path d="M50.11,46.31a.33.33,0,1,1,.32-.33.35.35,0,0,1-.32.33Zm0-.53a.2.2,0,0,0,0,.4.22.22,0,0,0,.21-.2A.21.21,0,0,0,50.1,45.78Z"/><path class="cls-1" d="M45.62,46a.27.27,0,0,0-.26-.27.26.26,0,0,0-.27.27.27.27,0,1,0,.53,0Z"/><path d="M45.36,46.31A.33.33,0,0,1,45,46a.32.32,0,0,1,.33-.33.33.33,0,1,1,0,.66Zm0-.53a.2.2,0,0,0-.21.2.2.2,0,0,0,.21.2.2.2,0,0,0,0-.4Z"/><path class="cls-1" d="M49.47,49.09a.28.28,0,0,0-.27-.27.26.26,0,0,0-.26.27.27.27,0,1,0,.53,0Z"/><path d="M49.2,49.42a.33.33,0,0,1-.33-.33.32.32,0,0,1,.33-.33.33.33,0,0,1,.33.33A.32.32,0,0,1,49.2,49.42Zm0-.53a.19.19,0,0,0-.2.2.2.2,0,0,0,.2.2.19.19,0,0,0,.2-.2A.2.2,0,0,0,49.2,48.89Z"/><path class="cls-1" d="M46.54,49.09a.27.27,0,1,0-.27.27.28.28,0,0,0,.27-.27Z"/><path d="M46.27,49.42a.33.33,0,1,1,.33-.33A.33.33,0,0,1,46.27,49.42Zm0-.53a.2.2,0,1,0,.2.2A.2.2,0,0,0,46.27,48.89Z"/><path class="cls-1" d="M45.81,47.6a.53.53,0,0,0-.53-.53.55.55,0,0,0-.55.53.54.54,0,1,0,1.08,0Z"/><path d="M45.28,48.2a.6.6,0,1,1,0-1.19.59.59,0,0,1,.6.59A.6.6,0,0,1,45.28,48.2Zm0-1.07a.48.48,0,0,0-.48.47.48.48,0,1,0,.48-.47Z"/><path class="cls-1" d="M50.74,47.58a.54.54,0,1,0-.54.53.54.54,0,0,0,.54-.53Z"/><path d="M50.2,48.17a.59.59,0,0,1-.59-.59.6.6,0,1,1,1.19,0A.59.59,0,0,1,50.2,48.17Zm0-1.06a.47.47,0,0,0,0,.94.47.47,0,0,0,0-.94Z"/><path class="cls-1" d="M46,42.83a.27.27,0,1,0,.54,0,.27.27,0,0,0-.27-.27.26.26,0,0,0-.27.27Z"/><path d="M46.27,43.16a.33.33,0,0,1-.33-.33.34.34,0,0,1,.12-.27.29.29,0,0,1,.22-.06h0a.32.32,0,0,1,.32.33A.33.33,0,0,1,46.27,43.16Zm0-.54a.18.18,0,0,0-.1,0,.21.21,0,0,0-.07.17.2.2,0,0,0,.4,0,.19.19,0,0,0-.2-.2Z"/><path class="cls-1" d="M48.94,42.83a.27.27,0,1,0,.26-.27.24.24,0,0,0-.26.27Z"/><path d="M49.2,43.16a.33.33,0,0,1-.33-.33.33.33,0,0,1,.12-.27.29.29,0,0,1,.22-.06.31.31,0,0,1,.32.33A.32.32,0,0,1,49.2,43.16Zm0-.54a.18.18,0,0,0-.1,0,.21.21,0,0,0-.07.17.2.2,0,0,0,.2.2.2.2,0,0,0,0-.4Z"/><path class="cls-1" d="M49.66,44.32a.53.53,0,1,0,.53-.54.53.53,0,0,0-.53.54Z"/><path d="M50.19,44.91a.6.6,0,0,1,0-1.19.6.6,0,1,1,0,1.19Zm0-1.06a.46.46,0,0,0-.47.47.47.47,0,0,0,.94,0A.47.47,0,0,0,50.19,43.85Z"/><path class="cls-1" d="M44.73,44.32a.54.54,0,1,0,.55-.54.57.57,0,0,0-.55.54Z"/><path d="M45.28,44.91a.6.6,0,0,1-.61-.59.62.62,0,0,1,.61-.6h0a.6.6,0,1,1,0,1.19Zm0-1.06a.48.48,0,0,0-.48.47.48.48,0,0,0,1,0A.47.47,0,0,0,45.28,43.85Z"/><path class="cls-1" d="M47.21,97.57a.53.53,0,0,0,.53.53.54.54,0,1,0,0-1.07.56.56,0,0,0-.53.54Z"/><path d="M47.74,98.16a.58.58,0,0,1-.59-.59.61.61,0,0,1,.59-.6h0a.6.6,0,1,1,0,1.19Zm0-1.06a.49.49,0,0,0-.47.47.47.47,0,0,0,.47.47.48.48,0,0,0,.48-.47A.47.47,0,0,0,47.74,97.1Z"/><path class="cls-1" d="M47.21,89.15a.53.53,0,0,0,.53.53.55.55,0,0,0,.55-.53.54.54,0,0,0-1.08,0Z"/><path d="M47.74,89.75a.6.6,0,0,1,0-1.2.6.6,0,0,1,.61.6A.62.62,0,0,1,47.74,89.75Zm0-1.07a.47.47,0,0,0,0,.94.48.48,0,0,0,.48-.47A.47.47,0,0,0,47.74,88.68Z"/><path class="cls-1" d="M49.72,93.38c0,1.94-.89,3.55-2,3.55s-2-1.58-2-3.55.88-3.53,2-3.53,2,1.57,2,3.53Z"/><path d="M47.7,97c-1.14,0-2.08-1.63-2.08-3.62s.92-3.59,2.08-3.59,2.09,1.57,2.09,3.59S48.85,97,47.7,97Zm0-7.09c-1.07,0-2,1.56-2,3.47s.88,3.49,2,3.49,2-1.57,2-3.49S48.78,89.91,47.7,89.91Z"/><path class="cls-5" d="M49.42,93.35c0-1.67-.68-3-1.51-3.21,0,0-.17.22-.17.22s-.11-.22-.16-.22c-.84.17-1.51,1.54-1.51,3.21v.05c0,1.68.67,3,1.51,3.21.05,0,.16-.21.16-.21s.12.21.17.21c.83-.16,1.51-1.53,1.51-3.21v-.05Z"/><path d="M47.58,96.68C46.67,96.5,46,95.09,46,93.4v-.05c0-1.69.67-3.1,1.56-3.27,0,0,.09,0,.18.15.1-.15.14-.15.17-.15.9.17,1.57,1.58,1.57,3.27v.05c0,1.69-.67,3.1-1.56,3.28,0,0-.08,0-.18-.15C47.65,96.68,47.6,96.68,47.58,96.68Zm.16-.42.06.11a.61.61,0,0,0,.12.18c.8-.17,1.43-1.55,1.43-3.15v-.05c0-1.59-.63-3-1.43-3.14a.61.61,0,0,0-.12.18l-.06.1-.05-.1-.12-.18c-.8.17-1.44,1.54-1.44,3.14v.05c0,1.59.63,3,1.44,3.15a1.36,1.36,0,0,0,.12-.18Zm.18-6.06Z"/><path class="cls-1" d="M50.37,93.38a.27.27,0,1,0-.53,0,.26.26,0,0,0,.26.26.27.27,0,0,0,.27-.26Z"/><path d="M50.11,93.71a.33.33,0,1,1,.32-.33.35.35,0,0,1-.32.33Zm0-.54a.21.21,0,0,0-.2.21.2.2,0,0,0,.2.2.21.21,0,1,0,0-.41Z"/><path class="cls-1" d="M45.62,93.38a.27.27,0,0,0-.26-.27.27.27,0,1,0,0,.53.26.26,0,0,0,.26-.26Z"/><path d="M45.36,93.71a.33.33,0,0,1-.33-.33.32.32,0,0,1,.33-.33.33.33,0,1,1,0,.66Zm0-.54a.21.21,0,0,0-.21.21.2.2,0,0,0,.21.2.2.2,0,0,0,.2-.2A.21.21,0,0,0,45.36,93.17Z"/><path class="cls-1" d="M49.47,96.49a.28.28,0,0,0-.27-.27.26.26,0,0,0-.26.27.25.25,0,0,0,.26.26.26.26,0,0,0,.27-.26Z"/><path d="M49.2,96.82a.33.33,0,1,1,0-.66.33.33,0,0,1,.33.33A.32.32,0,0,1,49.2,96.82Zm0-.54a.2.2,0,0,0-.2.21.2.2,0,1,0,.4,0A.21.21,0,0,0,49.2,96.28Z"/><path class="cls-1" d="M46.54,96.49a.27.27,0,0,0-.54,0,.26.26,0,0,0,.27.26.27.27,0,0,0,.27-.26Z"/><path d="M46.27,96.82a.32.32,0,0,1-.33-.33.33.33,0,1,1,.33.33Zm0-.54a.21.21,0,0,0-.2.21.19.19,0,0,0,.2.2.2.2,0,0,0,.2-.2A.21.21,0,0,0,46.27,96.28Z"/><path class="cls-1" d="M45.81,95a.53.53,0,0,0-.53-.53.54.54,0,1,0,0,1.07.54.54,0,0,0,.53-.54Z"/><path d="M45.28,95.6a.6.6,0,1,1,0-1.19.59.59,0,0,1,.6.59A.6.6,0,0,1,45.28,95.6Zm0-1.07a.48.48,0,0,0-.48.47.48.48,0,1,0,.48-.47Z"/><path class="cls-1" d="M50.74,95a.54.54,0,1,0-1.07,0,.53.53,0,0,0,.53.53.52.52,0,0,0,.54-.53Z"/><path d="M50.2,95.57a.59.59,0,0,1-.59-.59.6.6,0,1,1,1.19,0A.58.58,0,0,1,50.2,95.57Zm0-1.06a.47.47,0,1,0,0,.94.46.46,0,0,0,.47-.47A.47.47,0,0,0,50.2,94.51Z"/><path class="cls-1" d="M46,90.23a.27.27,0,1,0,.27-.27.28.28,0,0,0-.27.27Z"/><path d="M46.27,90.56a.33.33,0,1,1,.33-.33A.33.33,0,0,1,46.27,90.56Zm0-.53a.22.22,0,0,0-.2.2.2.2,0,1,0,.2-.2Z"/><path class="cls-1" d="M48.94,90.23a.27.27,0,1,0,.53,0A.28.28,0,0,0,49.2,90a.27.27,0,0,0-.26.27Z"/><path d="M49.2,90.56a.33.33,0,1,1,.33-.33A.32.32,0,0,1,49.2,90.56Zm0-.53a.2.2,0,0,0,0,.4.19.19,0,0,0,.2-.2A.2.2,0,0,0,49.2,90Z"/><path class="cls-1" d="M49.66,91.72a.53.53,0,1,0,.53-.54.53.53,0,0,0-.53.54Z"/><path d="M50.19,92.31a.6.6,0,0,1,0-1.19.6.6,0,1,1,0,1.19Zm0-1.06a.47.47,0,1,0,.47.47A.47.47,0,0,0,50.19,91.25Z"/><path class="cls-1" d="M44.73,91.74a.54.54,0,1,0,.55-.53.51.51,0,0,0-.55.53Z"/><path d="M45.28,92.34a.6.6,0,0,1-.61-.6.59.59,0,0,1,.18-.44.6.6,0,0,1,.43-.16h0a.6.6,0,1,1,0,1.2Zm0-1.07a.44.44,0,0,0-.32.12.48.48,0,0,0-.14.35.48.48,0,1,0,.48-.47Z"/><polygon class="cls-1" points="50.71 70 47.73 72.98 44.76 70 47.73 67.03 50.71 70"/><path d="M47.73,73.07,44.67,70l3.06-3.06L50.8,70ZM44.85,70l2.88,2.89L50.62,70l-2.89-2.89Z"/><polygon class="cls-3" points="44.98 70.05 45.86 70.94 46.8 70.94 46.8 71.87 47.72 72.76 47.76 72.76 48.64 71.87 48.64 70.94 49.58 70.94 50.5 70.05 50.5 70 49.58 69.11 48.64 69.11 48.64 68.17 47.76 67.27 47.72 67.27 46.8 68.17 46.8 69.11 45.86 69.11 44.98 70 44.98 70.05"/><path d="M47.78,72.83h-.09l-.95-.93V71h-.9l-.93-.93V70l.93-.93h.9v-.9l.95-.94h.09l.93.94V69h.9l1,.93v.1l-1,.93h-.9v.9Zm-.91-1,.87.84.84-.84v-1h1l.87-.85-.87-.85h-1v-1l-.84-.85-.87.85v1h-1L45,70l.85.85h1Z"/><path class="cls-1" d="M46.49,67.67c.13.14,0,.49-.32.79s-.67.46-.79.32,0-.49.32-.79.65-.47.79-.32Z"/><path d="M45.52,68.89h0a.24.24,0,0,1-.17-.07.29.29,0,0,1-.07-.19,1.2,1.2,0,0,1,.39-.69,1.08,1.08,0,0,1,.68-.39.28.28,0,0,1,.2.08.25.25,0,0,1,.07.19,1.12,1.12,0,0,1-.39.69A1.2,1.2,0,0,1,45.52,68.89Zm.81-1.21h0a.92.92,0,0,0-.58.35,1,1,0,0,0-.36.6.12.12,0,0,0,0,.1.08.08,0,0,0,.07,0,1,1,0,0,0,.62-.36,1,1,0,0,0,.36-.59.15.15,0,0,0,0-.1h0A.14.14,0,0,0,46.33,67.68Z"/><path class="cls-1" d="M49,67.65c.14-.14.5,0,.78.31s.46.68.32.79-.51,0-.79-.32-.47-.64-.31-.78Z"/><path d="M49.94,68.87h0a1.05,1.05,0,0,1-.67-.39,1,1,0,0,1-.4-.67.29.29,0,0,1,.08-.21.28.28,0,0,1,.21-.07,1.08,1.08,0,0,1,.67.39,1.18,1.18,0,0,1,.39.71.25.25,0,0,1-.08.17A.27.27,0,0,1,49.94,68.87Zm-.8-1.21a.16.16,0,0,0-.11,0h0a.15.15,0,0,0,0,.11.91.91,0,0,0,.36.59.9.9,0,0,0,.58.35.21.21,0,0,0,.12,0,.11.11,0,0,0,0-.08,1,1,0,0,0-.35-.62.9.9,0,0,0-.58-.35Z"/><path class="cls-1" d="M49,72.37c-.14-.14,0-.48.31-.79s.68-.45.79-.31,0,.48-.32.78-.64.47-.78.32Z"/><path d="M49.13,72.49h0a.26.26,0,0,1-.25-.27,1.1,1.1,0,0,1,.39-.68,1.17,1.17,0,0,1,.72-.39.22.22,0,0,1,.16.07.32.32,0,0,1,.07.2,1.1,1.1,0,0,1-.39.68A1.17,1.17,0,0,1,49.13,72.49ZM50,71.28a1.11,1.11,0,0,0-.61.35,1,1,0,0,0-.35.59.1.1,0,0,0,0,.1h0a.12.12,0,0,0,.09,0,1.08,1.08,0,0,0,.61-.35,1,1,0,0,0,.35-.59.16.16,0,0,0,0-.11.11.11,0,0,0-.08,0Z"/><path class="cls-1" d="M46.49,72.37c-.14.14-.51,0-.82-.32s-.45-.67-.31-.78.5,0,.78.31.47.68.35.79Z"/><path d="M46.33,72.49h0a1.19,1.19,0,0,1-.7-.39,1.13,1.13,0,0,1-.39-.72.18.18,0,0,1,.08-.16.24.24,0,0,1,.2-.07,1,1,0,0,1,.67.39,1.14,1.14,0,0,1,.41.7.25.25,0,0,1-.07.18A.32.32,0,0,1,46.33,72.49Zm-.82-1.22a.16.16,0,0,0-.11,0,.1.1,0,0,0,0,.08,1.34,1.34,0,0,0,1,1,.12.12,0,0,0,.11,0h0a.11.11,0,0,0,0-.08,1.5,1.5,0,0,0-.95-1Z"/><path class="cls-1" d="M46.8,66.63c0-.14.33-.29.75-.33a.4.4,0,0,0,.19-.1s.12.1.17.1c.43,0,.76.17.76.33s-.43.33-1,.33-.9-.13-.9-.33Z"/><path d="M47.64,67a1.3,1.3,0,0,1-.82-.22.25.25,0,0,1-.08-.18c0-.21.41-.36.81-.39a.3.3,0,0,0,.15-.09l0,0,0,0a.5.5,0,0,0,.13.09c.4,0,.82.15.82.39s-.53.4-1,.4Zm.1-.75a.34.34,0,0,1-.19.09c-.44,0-.68.19-.68.26a.12.12,0,0,0,0,.09,1.29,1.29,0,0,0,.79.18c.53,0,.91-.14.91-.27s-.25-.24-.71-.26h0A.38.38,0,0,1,47.74,66.28Z"/><path class="cls-1" d="M48.69,73.41c0,.14-.33.29-.75.33a.46.46,0,0,0-.19.1s-.11-.1-.16-.1c-.43,0-.76-.16-.76-.33s.43-.33,1-.33.9.13.9.33Z"/><path d="M47.75,73.93l0,0a.61.61,0,0,0-.12-.09c-.4,0-.83-.15-.83-.39s.54-.39,1-.39a1.4,1.4,0,0,1,.89.22.25.25,0,0,1,.08.17c0,.21-.42.36-.81.39a.3.3,0,0,0-.15.09Zm-.16-.25a.33.33,0,0,1,.17.08.3.3,0,0,1,.19-.08c.44,0,.68-.2.68-.27a.1.1,0,0,0,0-.08,1.32,1.32,0,0,0-.8-.19c-.53,0-.9.14-.9.27s.25.24.7.27Z"/><path class="cls-1" d="M44.33,71c-.14,0-.29-.33-.33-.75a.46.46,0,0,0-.1-.19s.1-.11.1-.16c0-.44.16-.77.33-.77s.33.44.33.94-.14.93-.33.93Z"/><path d="M44.33,71c-.21,0-.36-.41-.4-.8a.4.4,0,0,0-.08-.16l0,0,0,0a.41.41,0,0,0,.08-.13c0-.39.16-.82.4-.82s.39.51.39,1a1.35,1.35,0,0,1-.22.91A.25.25,0,0,1,44.33,71ZM44,70a.46.46,0,0,1,.08.19c0,.44.2.69.27.69a.15.15,0,0,0,.08-.05,1.24,1.24,0,0,0,.18-.81c0-.51-.14-.88-.26-.88s-.24.24-.27.7A.3.3,0,0,1,44,70Z"/><path class="cls-1" d="M51.14,69.08c.14,0,.3.33.33.75,0,.08.11.19.11.19s-.11.12-.11.17c0,.43-.16.76-.33.76s-.33-.43-.33-.94.14-.93.33-.93Z"/><path d="M51.14,71c-.25,0-.39-.5-.39-1A1.36,1.36,0,0,1,51,69.1a.23.23,0,0,1,.16-.08c.21,0,.36.41.4.81a.44.44,0,0,0,.08.15l0,0,0,0a.41.41,0,0,0-.08.13C51.51,70.59,51.38,71,51.14,71Zm0-1.86a.09.09,0,0,0-.07,0,1.19,1.19,0,0,0-.19.82c0,.5.14.87.26.87s.24-.24.27-.7a.34.34,0,0,1,.08-.16.41.41,0,0,1-.08-.19C51.37,69.39,51.21,69.15,51.14,69.15Z"/></g></svg>