<svg id="Livello_1" data-name="Livello 1" xmlns="http://www.w3.org/2000/svg" viewBox="0 0 320 280"><defs><style>.cls-1{fill:none;stroke:#000;stroke-width:4px;}</style></defs><title>Tavola disegno 1</title><path id="path3052" class="cls-1" d="M43.86,124.1c-2.39-3.47-4.9-12.71,3.59-17.88S64.3,108,67.09,114.4l11.83,27.08s2,6.7,8.41,6.7c9.53,0,7.69-10.44,7.69-10.44S92.38,119,92.73,117.27c.26-1.26,2.72-8.15,18.94-11.37,5.94-1.18,13.52-1.1,23.81-1.18,38.39-.27,129.67-1,135.38-.85s7.53,4.36,7.55,6.55c0,20-52.34-6.93-60,57.14-1.38,20.27-2.25,33.33-2.42,35.06s-.74,5.36-7.14,5.36c-15.42,0-18.37-16.54-18.65-18.9a76.91,76.91,0,0,1,0-8.27s1.51-32.18,1.43-34.77-1-6.62-4.84-6.55-10.45.26-16.1-.15c-7.44,0-14.14-8.19-26.12-8.19s-26.27,5-28.39,26.85c-1.66,15.4-3.12,31-4.31,34.8S105.41,212.14,98,212.14c-5.36,0-7-5.22-7-6.45s1.73-7.46,1.73-10.39c0-2.09-2-4.51-3.21-6.3Z"/></svg>