<?xml version="1.0" encoding="utf-8"?>
<!-- Generator: Adobe Illustrator 21.1.0, SVG Export Plug-In . SVG Version: 6.00 Build 0)  -->
<svg version="1.1" id="Livello_1" xmlns="http://www.w3.org/2000/svg" xmlns:xlink="http://www.w3.org/1999/xlink" x="0px" y="0px"
	 viewBox="0 0 320 280" style="enable-background:new 0 0 320 280;" xml:space="preserve">
<g>
	<path d="M62.6,63.5l24.2,4.6l36.9,6.7l0.5,0.1l33.8,3.4l0.1,0l34.5,2.7c0.4,0.2,0.9,0.4,1,0.6c0,0.1,0,0.6-0.4,1.5
		c-0.8,1.6-9.9,17.8-28.8,20l-1.3,0.3c0,0,0.1-0.1,0.4-0.1c0,0-0.9,0.2-3.2,0.2c-3.9,0-11.3-0.5-24.4-3.1c-2-0.6-11.3-3.4-19.7-3.4
		c-4.1,0-7.4,0.6-10.2,1.9c-2,0.9-15.4,7.3-14.5,23.3l0,0.2c0,0.4,0.4,4.3,2.7,8.9l0.1,0.2l16.8,31.3l0.8,1.1
		c0.7,0.8,7.3,8.1,17.8,8.1c4.6,0,9.1-1.4,13.5-4.2l1.1-0.9l16-16.7c1.5-1,7.5-4.6,14.9-5.1l81.8,0.2l19.6,0c0.3,0,3.7,0.3,5.2,3.3
		l8.9,33.7l0.2,0.5c0,0,0,0.4,0,0.5c0,0.2-0.1,0.6-1.2,1.2l-19,9.1l-1.4,0.3l-77.3,19.6l-52.7,13.1c-0.4,0.1-0.7,0.2-1.1,0.3
		c-0.1,0-0.2,0-0.2,0.1c-0.8-1.5-1.8-3.3-2.6-4.7l-0.1-0.2c-0.2-0.3-4.5-7.4-14.5-20l-10.9-15.4l-38-75.8l-0.8-1.3l-39.2-45
		L62.6,63.5 M63.1,57.5l-35.5,0.9C19.1,60.2,25,66,25,66l41.1,47.2l38.2,76.2l11.3,15.9c10,12.5,14.2,19.5,14.2,19.5
		c1.6,2.9,4.2,7.8,4.2,7.8c0.6,0.3,1.3,0.4,2,0.4c1.4,0,3-0.5,4.3-0.8c17.6-4.4,35.2-8.7,52.8-13.1c26.4-6.7,52.9-13.4,79.3-20.1
		l19.6-9.3c6.4-3.1,4.3-9.1,4.3-9.1l-9.1-34.2c-3-7.1-10.7-7.3-10.7-7.3l-19.7,0l-82-0.2c-10.6,0.7-18.6,6.5-18.6,6.5l-16.4,17.2
		c-3.7,2.4-7.2,3.3-10.2,3.3c-8,0-13.2-6-13.2-6l-16.8-31.3c-1.8-3.8-2.1-6.8-2.1-6.8c-0.7-12.8,11-17.5,11-17.5
		c2.1-1,4.9-1.4,7.7-1.4c8.4,0,18.2,3.3,18.2,3.3c13.7,2.7,21.6,3.3,25.9,3.3c3.6,0,4.8-0.4,4.8-0.4c23.2-2.7,33.5-23.4,33.5-23.4
		c3.8-8.8-5-10.6-5-10.6l-35.1-2.7l-33.8-3.4l-36.9-6.7L63.1,57.5L63.1,57.5z"/>
</g>
</svg>
