<?xml version="1.0" encoding="utf-8"?>
<!-- Generator: Adobe Illustrator 21.1.0, SVG Export Plug-In . SVG Version: 6.00 Build 0)  -->
<svg version="1.1" id="Livello_1" xmlns="http://www.w3.org/2000/svg" xmlns:xlink="http://www.w3.org/1999/xlink" x="0px" y="0px"
	 viewBox="0 0 320 280" style="enable-background:new 0 0 320 280;" xml:space="preserve">
<g>
	<path d="M183.4,80c3.9,0,5.6,0.4,9.7,2.9c4.1,2.5,6.1,5.4,6.4,8.8c0.2,3.5-1.5,6.5-1.9,7.1c-1.6,2.6-5.1,3.2-10.7,3.7
		c-5.7,0.6-12.9,1.4-16.8,7.6c-1.7,2.8-2.6,4.9-2.7,7c-0.3,3.4,1.2,6.4,4.2,8.3c2,1.2,4.4,1.9,7,1.9c4.5,0,9.6-1.8,15.4-3.9
		c7.5-2.7,16.8-6,26.9-6c9,0,17.4,2.5,25.7,7.7c7,4.3,16.8,14.4,25.5,23.2l1,1c15.5,15.8,21.1,24,15.4,33.2
		c-3.5,5.6-7.7,8.4-12.6,8.4c-2.7,0-5.6-0.9-8-2.4c-5.3-3.3-9.8-10.4-14.2-17.3c-4.9-7.7-9.9-15.6-17-20c-3.6-2.2-8.2-4.5-15.5-4.5
		c-4,0-8.4,0.7-13.5,2c-11,2.9-36.6,12.3-68.9,24.2c-9,3.3-18.3,6.7-27.9,10.3c-11.7,4.3-20.9,8-28.3,11c-12.2,5-19.6,7.9-24.7,7.9
		c-2.3,0-4.4-0.6-6.8-2.2c-6.4-4-13.6-16.2-18.3-31.1c-6.1-19.3-4.2-28.9-3.1-30.8c2.2-3.6,5.2-5.2,9.6-5.2c4.6,0,9.6,1.7,13.6,3.1
		c3.4,1.2,5.8,2,8.1,2c2.7,0,5-1.2,6.3-3.3c3.4-5.5,2-12.1,0.6-19.1c-1.4-6.8-2.8-13.9,0.3-19c5.2-8.4,10.6-9.6,15.1-9.6
		c5,0,10.7,1.6,16.8,3.4c7.2,2.1,14.7,4.2,22.6,4.2c1.1,0,2.3,0,3.4-0.1l0.4,0c10.4-1.5,15.7-5.2,19.9-8.2c4.3-3,7.7-5.4,17.5-5.6
		c5.3-0.1,9.5-0.3,12.8-0.5C179.4,80.1,181.6,80,183.4,80 M183.4,74c-4.2,0-10,0.5-19.8,0.7c-21.6,0.5-18.5,11-38,13.8
		c-1,0.1-1.9,0.1-2.9,0.1c-13.7,0-27.4-7.6-39.4-7.6c-7.5,0-14.3,2.9-20.2,12.4c-7.9,12.7,3.9,30.3-0.9,38.1
		c-0.2,0.3-0.6,0.5-1.2,0.5c-3.4,0-12.7-5.1-21.7-5.1c-5.5,0-10.9,1.9-14.7,8.1c-7.6,12.3,6.4,59.7,23.4,70.2
		c3.4,2.1,6.5,3.1,10,3.1c9.8,0,23-7.6,55.1-19.3c43.6-15.9,82.5-30.6,96.3-34.3c4.8-1.3,8.7-1.8,11.9-1.8c5.9,0,9.4,1.7,12.4,3.6
		c12,7.5,18.4,29.3,31.2,37.3c2.9,1.8,6.9,3.3,11.2,3.3c5.9,0,12.5-2.8,17.7-11.2c8.9-14.4-2.9-27-16.2-40.6
		c-9.5-9.7-19.7-20.2-27.6-25.1c-10.3-6.4-20-8.6-28.8-8.6c-18.8,0-33.7,9.8-42.3,9.8c-1.5,0-2.8-0.3-3.9-1c-2.2-1.4-1.8-3.4,0.4-7
		c4.9-7.9,21.3-1.4,27.5-11.4c2.7-4.4,6.8-16-6.4-24.2C191.4,74.7,188.5,74,183.4,74L183.4,74z"/>
</g>
</svg>
