<?xml version="1.0" encoding="utf-8"?>
<!-- Generator: Adobe Illustrator 21.1.0, SVG Export Plug-In . SVG Version: 6.00 Build 0)  -->
<svg version="1.1" id="Livello_1" xmlns="http://www.w3.org/2000/svg" xmlns:xlink="http://www.w3.org/1999/xlink" x="0px" y="0px"
	 viewBox="0 0 320 280" style="enable-background:new 0 0 320 280;" xml:space="preserve">
<g>
	<path d="M106,105c5.9,0,6,5.6,6,6.3c0,2.8-1.7,5.9-4.6,8.4c-3,2.6-6.4,3.8-8.3,3.8c-4.6,0-16,0.1-25.2,0.1c-5.5,0-10,0.1-11.1,0.1
		c-8.4,0-13.8,4.8-13.8,12.3c0,6.6,5.8,10.3,9.3,12.5c0.4,0.3,0.8,0.5,1.1,0.7c2.7,1.8,20.3,12.2,24.6,14.3
		c4.9,2.3,10.2,4.5,15.8,4.6c1.7,0,4.5,0.1,7.4,0.2c6.5,0.2,11.2,0.3,12.5,0.3h0.1c12,0,14.2-9.5,14.5-13.6c0.4-4,0.2-5.9,0.1-7.5
		c0-0.2,0-0.5,0-0.6c0,0,0-0.4,0.5-2c0.4-1.1,2.7-4.4,4.5-7.1c0.5-0.7,0.9-1.4,1.4-2.1c6-9,14.4-20.8,16.5-23.4
		c1.7-2.2,5-3.5,8.8-3.5c5,0,8.8,1.8,14.9,5.5c4.8,3,36.6,22.2,55.6,33.6c7.1,4.3,12.2,7.4,13.2,8c0.6,0.4,1.2,0.8,1.9,1.1
		c4,2.5,6.9,4.3,10,4.3c5.1,0,9.3-4,9.3-8.9c0-0.9,0-3-6.4-20.5c-0.7-2-2.3-6.2-8.7-8.6c-0.4-0.2-0.9-0.3-1.4-0.5
		c-5.5-1.9-6.9-3.1-6.9-6c0-5.4,4.7-7.5,6-7.6c2.2,0.3,10.9,3.4,16.7,5.4l2.7,1c0.9,0.3,1.7,0.6,2.5,0.9c2.6,0.9,6.5,2.2,7.9,3.2
		c-0.2,2.6-1.1,9.3-1.6,13.2c-0.8,5.9-0.9,7.3-0.9,8.2c0,3.9,2.8,7.7,9.1,8c-0.1,4-0.8,13.1-1.2,16.2c-0.2,1-1.9,4.5-5.1,6.5
		c-1.7,1.1-5.2,2.4-12.3,2.4H74.4c-6.6,0-8.2-1.2-8.4-1.4c-0.3-0.3-0.6-1.2-0.6-4.1c0.1-1.9,0.1-9.7-4.6-13.9
		c-4.2-3.8-12.6-7.7-18.4-9.4c-5.3-1.6-8.6-3.8-10.4-7c-2.3-3.9-2.9-7.8-2.9-9.3c0-5.8,3.1-11.7,8.5-16.2c6.1-5.1,14.7-7.9,24.1-7.9
		H106 M253.6,109.3L253.6,109.3L253.6,109.3 M135,144.9L135,144.9L135,144.9 M106,99c-2,0-30.7,0-44.5,0C38.5,99,23,113.6,23,129
		c0,2.1,0.7,7.1,3.7,12.3c3,5.2,8.1,8,13.9,9.7c5.8,1.7,13.1,5.4,16.1,8.1c3,2.7,2.7,9.4,2.7,9.4c0,7.2,1.5,11.7,15,11.7
		c6.8,0,190.3,0,196.8,0c6,0,11.7-0.8,15.6-3.3c5-3.2,7.5-8.5,7.8-10.6c0.6-3.8,1.3-14.9,1.3-18.2c0-3.4-3.5-4.9-5.5-4.9
		c-2,0-3.7-0.5-3.7-2c0-1.5,2.6-18.8,2.6-22.1c0-4.5-6.9-6.3-14.5-8.9c-8.9-3.1-18.9-6.7-21.3-6.7c-4.4,0-12.1,4.8-12.1,13.6
		c0,8.9,8.5,10.7,12.3,12.1c3.8,1.4,4.5,3.3,5.2,5c0.6,1.7,6.1,16.8,6.1,18.5c0,1.7-1.7,2.9-3.3,2.9s-5.1-2.4-8.8-4.6
		c-3.7-2.2-62.1-37.5-68.8-41.6c-6.7-4.1-11.5-6.4-18-6.4c-5,0-10.3,1.7-13.5,5.8c-2.1,2.7-10.5,14.5-16.7,23.8
		c-3.2,4.8-6,8.8-6.6,10.7c-1.7,5.4-0.1,3.1-0.8,11.3c-0.7,8.1-6.5,8.1-8.6,8.1c0,0-0.1,0-0.1,0c-2,0-15-0.4-19.7-0.5
		c-4.7-0.1-9.6-2.3-13.4-4.1c-3.8-1.8-21.1-12-23.8-13.8c-2.7-1.8-7.8-4.4-7.8-8.3c0-5.5,4.9-6.3,7.8-6.3c2.8,0,29-0.2,36.4-0.2
		c7.4,0,18.9-8,18.9-18.2C118.1,105.1,113.9,99,106,99L106,99z"/>
</g>
</svg>
