<?xml version="1.0" encoding="utf-8"?>
<!-- Generator: Adobe Illustrator 21.1.0, SVG Export Plug-In . SVG Version: 6.00 Build 0)  -->
<svg version="1.1" id="Livello_1" xmlns="http://www.w3.org/2000/svg" xmlns:xlink="http://www.w3.org/1999/xlink" x="0px" y="0px"
	 viewBox="0 0 320 280" style="enable-background:new 0 0 320 280;" xml:space="preserve">
<g>
	<path d="M238.6,91.7c3.2,0,4.9,4,4.9,5.4c0,2.4-0.4,4-0.8,5.9c-0.4,2-1,4.2-1,7.1c0,7.7,6.4,15.7,17.1,15.7c5,0,13.8-2.7,24.7-6.1
		c2.4-0.8,5.3-1.7,7.1-2.2c0.7,1.4,1.5,4,1.8,6.2c-0.3,0.2-0.6,0.3-1,0.5c-0.7,0.4-1.5,0.8-2.4,1.3c-1.7,1-10.2,5.7-20,11.3
		c-17.6,9.8-39.4,22.1-42.6,24c-0.4,0.2-1.1,0.6-1.9,1.2c-4.5,2.8-15.1,9.4-28.3,15.3c-16.1,7.2-30.4,10.9-42.4,10.9
		c-6,0-12.1-2.7-17.3-5.3c-3-1.5-6-3.2-8.6-4.7c-6.1-3.5-10.5-6.1-14.6-6.1c-4.3,0-7.1,3-9.1,5.1c-0.9,0.9-2.3,2.5-3,2.6
		c-2-0.4-8.6-4-13.3-6.6c-0.7-0.4-1.5-0.8-2.2-1.2c-5.1-2.8-10.9-6.1-17.3-7.8c-4.4-1.2-8.6-1.8-12.5-1.8c-3,0-8.8-0.3-13.5-2.1
		c-5.4-2.1-6.1-4.8-6.1-7.3c0-4.8,2.1-6.6,3.6-7.5c2.5-1.5,5.4-1.5,5.4-1.5c5.2,0,16,1.7,27.6,5.4c5.1,1.6,9.9,3.6,14,5.3
		c7.3,3,13.6,5.6,19.5,5.6c4.7,0,8.8-2.1,11.5-6c2-2.8,2.9-6.1,2.9-8.1c0-5.7-4.4-14.3-16.8-21.1c-6.8-3.7-14.3-5.3-19.4-6l-0.1,0
		c-9.7-1.2-21.1-2.6-31.2-3.8c-10.3-1.3-18.5-2.3-20.6-2.5c-0.4,0-0.8-0.1-1.2-0.1c-0.9-0.1-2.5-0.2-3.3-0.5c0-3,0.4-4.1,0.6-4.4
		c0.1,0,0.2,0,0.5-0.1c1.6-0.1,3.8-0.1,6.7-0.1c3.1,0,6.4,0,9.1,0.1c1.8,0,3.3,0,4.3,0c2.3,0.1,21.6,2.6,40.2,5
		c41.5,5.3,71.3,9,76,9c10.4,0,12.5-6.6,13.7-10.2c1-3.2,1.6-5.2,8.2-6.7c7.5-1.8,16.4-4.2,25.1-6.5C223,95.3,235.9,91.8,238.6,91.7
		 M29.1,107.5L29.1,107.5L29.1,107.5 M238.6,85.7c-5.6,0-33.9,8.7-52.4,13c-18.4,4.3-7.5,16.8-20.5,16.8c-7.8,0-112.5-14-116.1-14
		c-2.4,0-8.2-0.1-13.4-0.1c-2.6,0-5.1,0-7,0.1c-5.6,0.3-6.8,4.9-6.8,10.8c0,5.8,5.8,5.8,9.9,6.3c4.1,0.4,32,4,51.7,6.3
		c5.1,0.7,11.7,2.2,17.3,5.3c7.6,4.2,13.7,10.6,13.7,15.9c0,1.5-2,8.1-8.5,8.1c-7.7,0-17.9-6.2-31.7-10.7c-11.4-3.7-23-5.7-29.4-5.7
		c-2.5,0-15,1.2-15,15s17.9,15.3,25.6,15.3c3.7,0,7.3,0.6,10.9,1.6c6.5,1.8,12.8,5.6,18.2,8.5c7.5,4.1,13.4,7.3,16.1,7.3
		c5.8,0,8.5-7.8,12.3-7.8c3.8,0,11.3,5.5,20.5,10.1c6.1,3.1,12.9,6,20,6c33,0,70.7-25.2,75.6-28.1c4.9-2.9,58-32.6,62.5-35.2
		c4.3-2.5,6.4-2.9,6.4-5.8c0-4.5-2.5-13.8-6.9-13.8c-2.7,0-25.5,8.6-32.7,8.6c-7.2,0-11.1-5.1-11.1-9.7c0-4.6,1.8-7.2,1.8-13
		C249.5,92.8,245.6,85.7,238.6,85.7L238.6,85.7z"/>
</g>
</svg>
