<?xml version="1.0" encoding="utf-8"?>
<!-- Generator: Adobe Illustrator 21.1.0, SVG Export Plug-In . SVG Version: 6.00 Build 0)  -->
<svg version="1.1" id="Livello_1" xmlns="http://www.w3.org/2000/svg" xmlns:xlink="http://www.w3.org/1999/xlink" x="0px" y="0px"
	 viewBox="0 0 320 280" style="enable-background:new 0 0 320 280;" xml:space="preserve">
<g>
	<path d="M232.4,91.4c3.4,0,11.3,3.5,15.6,5.4c1.5,0.6,2.7,1.2,3.8,1.6l0.4,0.1c5.6,1.8,11.6,4.2,12.9,5.3c1,1.1,3.7,5.5,5.3,8.2
		c2,3.4,3.9,6.5,5.5,8.7c0.2,0.2,0.4,0.5,0.6,0.8c3.8,4.9,15.4,20,15.5,38.4c-0.1,1-1.9,6.9-23.8,26.3c-1.5,1.3-3,2.7-4.5,4
		C248.8,203.5,234.8,216,219,216c-6.9,0-18.2-5-26.3-14.5c-2.1-2.5-3.5-5.7-4.9-9.1c-0.5-1.1-1-2.3-1.5-3.4l-0.3-0.6
		c-2.1-4.6-4.8-10.3-4.8-12.4c0-7.5,14.9-15.7,18.8-15.7c1.3,0,6.7,1.8,12.5,6c5.3,3.8,8.5,8.2,8.6,11.6c-0.2,1.8-0.8,9.7-0.8,12.4
		c0,6.6,8.1,12.7,14.5,12.7c5.4,0,12.1-5.8,13.3-6.9c5.6-5,8.7-10.7,8.7-16c0-5.9-4.6-12.2-11.7-16c-2.4-1.3-4.8-2.1-7.1-2.8
		c-2.5-0.8-4.9-1.6-6.7-2.9c-2.5-1.8-5.5-8.9-5.5-13.1c0-9.6,4.2-14.2,8.2-18.7c3.3-3.7,7.1-7.9,7.1-14c0-9.1-6.5-15.5-15.7-15.5
		c-5,0-8.7,2.5-11.1,4.2c-0.3,0.2-0.7,0.5-1,0.6c-2.4,1.5-63,40.9-75.5,49.8c-3.5,2.5-10.6,7.5-18.9,13.5
		c-20.8,14.8-49.2,35.1-52.4,37.4c-0.5,0.3-1,0.7-1.5,1.1c-3.5,2.5-10.7,7.6-14.5,7.6c-0.8,0-3.1-1.4-6.2-13.9
		c-1.3-5.5-3.7-15.4-6.2-25.8c-2.4-10.1-4.9-20.5-6.8-28.3c-0.8-3.4-1.7-9-1.7-13.1c0-12.4,14.3-16.5,20.8-16.5
		c5.4,0,12.9,1.1,21.6,2.4c11.7,1.7,26.1,3.8,42.2,4.3c5.9,0.2,58.1,2.1,61.4,2.1c3.5,0,7.7-2.6,22.8-12.6c5.1-3.4,10.4-7,13.8-8.9
		C219.7,96.3,228.2,91.4,232.4,91.4 M232.4,85.4c-5.8,0-14.2,4.8-23.3,10.1c-9.1,5.3-30.2,20.7-33.5,20.7c-3.3,0-61.2-2.1-61.2-2.1
		c-27.9-0.8-50.7-6.6-64-6.6c-10.2,0-26.8,6.6-26.8,22.5c0,4.4,0.8,10.4,1.8,14.5c3.9,16,10.4,43.3,13,54.1
		c2.6,10.7,5.6,18.5,12,18.5c6.4,0,14.9-6.5,19.4-9.7c4.6-3.2,59-42.1,71.4-50.9c12.3-8.8,73.1-48.3,75.2-49.6
		c2.2-1.4,5.1-3.9,8.9-3.9c6.6,0,9.7,4.5,9.7,9.5c0,9.4-15.3,12.7-15.3,32.7c0,5.5,3.4,14.7,8,18c4.4,3.1,9.9,3.7,14.4,6.1
		c4.9,2.6,8.6,7.1,8.6,10.7c0,8.2-12.5,16.9-16,16.9c-3.5,0-8.5-4-8.5-6.7c0-2.7,0.8-12.2,0.8-12.2c0-12.9-20.8-23.8-27.1-23.8
		c-6.3,0-24.8,9.9-24.8,21.7c0,3.5,2.6,9,5.6,15.6c2.1,4.5,3.8,9.8,7.3,14c8.5,10,21.3,16.6,30.9,16.6c19.8,0,36-16.2,53.1-31.3
		c13.2-11.7,25.8-24.4,25.8-30.8c0-21.6-13.9-38.5-17.3-42.9c-3.3-4.3-8.8-15.2-11.5-17.7c-2.7-2.5-15.1-6.5-15.1-6.5
		C249.2,90.8,238.3,85.4,232.4,85.4L232.4,85.4z"/>
</g>
</svg>
