<?xml version="1.0" encoding="utf-8"?>
<!-- Generator: Adobe Illustrator 21.1.0, SVG Export Plug-In . SVG Version: 6.00 Build 0)  -->
<svg version="1.1" id="Livello_1" xmlns="http://www.w3.org/2000/svg" xmlns:xlink="http://www.w3.org/1999/xlink" x="0px" y="0px"
	 viewBox="0 0 320 280" style="enable-background:new 0 0 320 280;" xml:space="preserve">
<g>
	<path d="M107.4,49.5c11.2,0,16.7,4.5,21.9,11.9c6.4,9,19.8,27.9,21.3,30.4c3.2,5.1,11.9,13.7,24.1,13.7c4.6,0,8.6-2,12.5-3.8
		c3.8-1.9,7.5-3.7,11.7-3.7c1.9,0.2,7.7,1.5,7.7,11.3c0,12-0.2,23.8-0.2,30.1c0,2.7-0.1,4.4-0.1,5.2l0,0.3c0,2.6,0,8.6,4.1,12.7
		c1.6,1.6,4.5,3.5,9,3.5c6.8,0,11.5-5.6,16.1-10.9l0.6-0.7c2-2.3,9.3-10.6,17-19.5c9.3-10.6,18.9-21.7,20.6-23.7l0.3-0.3
		c2.6-3.1,7.9-9.4,13-9.4c3,0,3.6,0.8,3.7,1.6c-0.9,2.1-5.1,8-11,14.9c-3.4,4-62,74.4-75.6,90.8c-2.7,3.3-5.3,6.6-7.8,9.8
		c-7.8,9.9-15.8,20.1-21.4,20.1c-5.6,0-9.7-7.3-12.3-12.8c-0.1-0.3-0.3-0.6-0.5-1c-2.8-6-8.5-18.4-20.3-22.1l-0.5-0.1
		c-10.6-3.3-16.4-5.1-20.5-5.1c-9.8,0-10.4,7.2-10.4,8.6l0,0.1c0,1.5,0.2,2.7,0.4,3.8c-1.7-1.1-3.8-2.9-6-6L32.6,99.8
		c-1.4-1.8-3.3-5.6-3.3-7.5c0-1.4,2.2-11.7,10.6-11.7c3.1,0,5.6,2.6,7,4.2c0.3,0.3,0.5,0.5,0.7,0.7l71.9,79.3l0.1,0.1
		c10.6,11,15.1,11,16.5,11c1.4,0,5.6,0,12.2-9c2.2-3.1,6-9,6-14.2c0-3.9-1.2-9.2-15.4-22.4l-0.2-0.2c-4.4-4.1-75.9-64.4-76.6-65
		c-2.2-1.8-4.4-4-4.4-6c0,0,0.1-1.1,2.5-1.5c2.8-0.4,9.4-1.6,17-3C87.5,52.8,104.8,49.6,107.4,49.5 M107.3,43.5
		c-3.6,0-40.5,7.1-48.1,8.3c-7.5,1.2-7.5,7.4-7.5,7.4c0,4.8,3.8,8.3,6.5,10.6c2.8,2.3,72.2,60.8,76.4,64.8
		c4.2,3.9,13.6,12.6,13.6,18.1S139.4,170,136,170c-3.3,0-12.2-9.1-12.2-9.1l-72-79.4c-1.5-1.5-5.5-6.8-12.1-6.8
		c-11.9,0-16.6,12.8-16.6,17.7c0,4.9,4.5,11,4.5,11l72.3,99.2c5.3,7,10.8,9.8,14.3,9.8c2.3,0,3.8-1.2,3.8-3.2c0-2.9-1.6-4-1.6-8
		c0-1.6,1-2.7,4.4-2.7c3.3,0,9.3,1.9,19.2,4.9c9.9,3,14.8,15,17.1,19.9c2.3,4.9,7.8,16.3,17.7,16.3c10.7,0,20.6-16.1,33.8-32.1
		c13.2-16,72.2-86.8,75.5-90.7c3.3-3.9,12.5-15.1,12.5-18.3s-1.6-8.1-9.7-8.1s-14.8,8.3-17.9,11.9c-3,3.6-33.2,38-37.6,43.1
		c-4.4,5.1-8,9.6-12.2,9.6c-7.4,0-7.1-7.8-7.1-10.5s0.3-18.4,0.3-35.3c0-16.8-13.5-17.3-13.5-17.3c-10.5,0-17.3,7.5-24.4,7.5
		c-10.3,0-17.3-8.1-19-10.9s-16.1-23.1-21.5-30.6C128.8,50.3,122,43.5,107.3,43.5L107.3,43.5z"/>
</g>
</svg>
