<?xml version="1.0" encoding="utf-8"?>
<!-- Generator: Adobe Illustrator 27.0.0, SVG Export Plug-In . SVG Version: 6.00 Build 0)  -->
<svg version="1.1" id="Livello_2" xmlns="http://www.w3.org/2000/svg" xmlns:xlink="http://www.w3.org/1999/xlink" x="0px" y="0px"
	 viewBox="0 0 320 280" style="enable-background:new 0 0 320 280;" xml:space="preserve">
<g>
	<path d="M59.8,235.5c-3.8,0-7-2.1-8.5-5.6c-1.5-3.5-0.8-7.4,1.8-10.1c42.6-44.2,65.6-68.1,68.2-70.8c3.7-3.8,4.1-7.2,1.3-11.9
		c-0.5-0.8-1-1.7-1.4-2.5c-1.7-3-4.6-8.2-6-8.8c-1.7-0.3-3.7,0.3-4.6,0.8c-0.1,0-0.1,0.1-0.2,0.1c-2.2,1.5-4.7,1.8-11.7-0.6
		c-6.1-2.1-16.8-6-21.9-7.9c-1.4-0.5-2.4-0.9-2.8-1c-3.5-1.3-5.3-6-5.8-9.7c0-0.4-0.1-0.8-0.1-1.2c-0.4-3.9-0.9-5.6-3.3-6.3
		c-0.5-0.1-44-13.6-50.7-15.7c-3-0.9-5.3-3.4-6.6-7.1c-2-5.9-1.3-14.5,1.7-18.8c4-5.8,8.5-11.2,20-13.3c11.7-2.1,18.6,0.6,22.4,8.6
		c0.3,0.7,0.7,1.4,1,2.1C55.5,61.9,59,69.5,64.9,76c7.7,8.5,19.2,19.5,21.1,20.6c0.2,0.1,0.5,0.3,0.7,0.4c2.4,1.4,5.4,3.1,10.7,0.2
		c1-0.5,1.9-1,2.7-1.5c5.7-3.3,10.6-6.1,19.9-2.8c5.8,2,25.1,9.3,40.3,15c3.9,1.5,6.8,4.8,7.8,8.9c0.9,4.1-0.3,8.4-3.2,11.4
		L120,174.3c-1.1,1.1-0.6,2.4-0.5,2.8c0.2,0.4,0.9,1.5,2.4,1.4c59.1-5.1,130.5-11.2,135.2-11.6l0.3,0c3.8-0.3,7.6-0.7,10.1,2.1
		c2.2,2.5,2.5,6.6,1,13.8c-2.8,13.4,11.3,23,15.7,25.6c2.3,1.4,8.5,4.3,24.8,10.6c3,1.2,4.8,4.2,4.2,7.4c-0.6,3.2-3.2,5.5-6.5,5.5
		l-247,3.8C59.9,235.5,59.8,235.5,59.8,235.5z M114.2,119.7c0.8,0,1.6,0.1,2.4,0.2c3.5,0.7,6.1,4.9,9.9,11.6
		c0.5,0.8,0.9,1.7,1.4,2.5c4.1,7.1,3.4,13.3-2.2,19.1c-1.8,1.9-15.1,15.7-68.2,70.8c-1.4,1.5-0.9,3.1-0.6,3.6c0.2,0.5,1,2,3,2
		c0,0,0,0,0.1,0l247-3.8c0.2,0,0.6,0,0.6-0.5c0.1-0.5-0.3-0.7-0.4-0.7c-13.4-5.1-22.1-8.8-25.8-11c-5.3-3.1-22.1-14.7-18.5-32
		c1.4-6.9,0.5-8.3,0.3-8.5c-0.5-0.6-3.2-0.3-5.1-0.1l-0.3,0c-4.7,0.4-76.1,6.5-135.2,11.6c-3.5,0.3-6.8-1.6-8.4-4.8
		c-1.5-3.2-0.9-7,1.6-9.5l44.8-46.2c1.5-1.6,2.1-3.7,1.7-5.9c-0.5-2.2-1.9-3.8-4-4.6c-12.4-4.7-34.1-12.8-40.2-15
		c-6.7-2.4-9.4-0.8-14.9,2.4c-0.9,0.5-1.8,1-2.8,1.6c-8.2,4.5-13.6,1.4-16.5-0.2c-0.2-0.1-0.4-0.2-0.6-0.3
		C79.8,100,66.3,86.5,60.4,80c-6.5-7.2-10.3-15.2-13.3-21.6c-0.3-0.7-0.7-1.4-1-2.1c-2.2-4.6-5.6-7.1-15.9-5.3
		c-9.2,1.6-12.6,5.7-16.1,10.7c-1.7,2.5-2.5,9-1,13.5c0.4,1.3,1.3,2.9,2.7,3.4c6.7,2.1,50.2,15.5,50.7,15.7
		c6.6,1.9,7.2,8.1,7.5,11.5c0,0.4,0.1,0.7,0.1,1c0.3,2.6,1.4,4.5,1.9,4.8c0.4,0.1,1.4,0.5,2.8,1c5.1,1.9,15.7,5.8,21.8,7.9
		c5,1.7,6.1,1.5,6.2,1.4c0.1,0,0.1-0.1,0.2-0.1c0.2-0.1,0.4-0.2,0.5-0.3C109.2,120.5,111.6,119.7,114.2,119.7z"/>
</g>
</svg>
