<?xml version="1.0" encoding="utf-8"?>
<!-- Generator: Adobe Illustrator 24.3.0, SVG Export Plug-In . SVG Version: 6.00 Build 0)  -->
<svg version="1.1" id="Livello_1" xmlns="http://www.w3.org/2000/svg" xmlns:xlink="http://www.w3.org/1999/xlink" x="0px" y="0px"
	 viewBox="0 0 320 280" style="enable-background:new 0 0 320 280;" xml:space="preserve">
<path d="M84.3,250.9c-4.9,0-8.9-1.6-11.4-4.5c-2.1-2.4-2.9-5.6-2.4-9c1.1-7,3.8-15.4,6.5-23.5c1.6-4.9,3.1-9.5,4.2-13.7
	c2.1-7.8,6.4-12.3,12.7-13.5l0.1,0c3.9-0.7,6.9-0.9,9.6-1.1c3.7-0.2,6.6-0.4,10.9-2c5.4-2,8.1-3.8,8.5-5.6c4.5-20.4,6-34,6.5-40.3
	c0.3-3.6-1.3-6-2-6.3c-0.9-0.4-2-0.8-3.5-1.2c-2.4-0.7-5.6-1.7-9.8-3.6c-9-4.2-13.6-12.6-21.2-29.4c-7.7-17-10.9-27.9-10.7-36.4
	c0.2-8.9,4.8-21.7,12.1-27.7c3.2-2.7,6.6-4,9.9-4c3.1,0,6,1.2,8.1,3.4c2.1,2.1,3.2,4.9,3.2,7.6c-0.1,3.6-1.8,7.7-4.1,13.5
	c-0.7,1.7-2,5-2.8,7.2c-0.4,1,0.4,2.1,1.5,2.1c17.5-0.5,101.3-2.8,121.3-3.3l0.3,0c0.5,0,1.1,0,1.8,0c4.7,0,8,0.8,10.5,2.6
	c1.4,1,4.6,4,5.6,10.9c1.2,8.5-7.3,37.7-7.4,37.9c-2.3,7.7-7.1,9.3-9.7,9.6c-0.2,0-0.5,0-0.8,0c-1.7,0-3.3-0.5-5.1-1
	c-1.5-0.5-3.2-1-4.5-1l-0.2,0c-1,0-1.3,0.1-2.5,3.3c-0.4,1.1-0.5,2.2,0.4,3.9c4,8.4,6.9,11.8,12.1,18.1c0.9,1.1,1.8,2.2,2.9,3.4
	c4.3,5.2,4,9,3.4,12.2l0,0.2c-0.9,4.7-1.6,9.1-2.2,13.1c-1.7,10.8-3,18.6-6.3,23.5c-2.7,4-26.6,21.7-35.1,25.3
	c-1.4,0.6-2.9,0.9-4.6,0.9c-2.6,0-5.1-0.8-7.5-1.6c-2.4-0.8-5-1.6-7.6-1.6c-0.4,0-0.7,0-1.1,0c-7.5,0.6-9.4,2.7-12.2,5.8
	c-1.7,1.9-3.9,4.3-7.3,6.3c-6.3,3.7-23.8,8.3-47.7,14.5c-6,1.5-11.7,3-16.5,4.3C88.2,250.6,86.2,250.9,84.3,250.9z M102.2,60.5
	c3.4-9.4,7.2-16.7,7.2-20.5c0.1-2.8-4.2-8.1-11.4-2.2c-5.4,4.4-9.7,15.3-9.9,23.2c-0.2,7.8,3.1,18.2,10.2,33.8
	c7.2,15.8,11.2,23.1,18.3,26.4c6.6,3.1,10.3,3.3,13.4,4.9c3.2,1.6,5.7,6.4,5.3,12.1c-0.6,7.3-2.2,21.1-6.6,41.2
	c-1.1,5-6.2,7.7-12.3,9.9c-8.5,3.1-12.6,1.7-21.4,3.4c-1.3,0.2-5.8,0.7-8.1,9.2c-3.1,11.6-8.9,26.1-10.6,36.6c-1,6.1,6.6,7.5,12,6
	c19.6-5.3,54.7-13.5,62.8-18.2c7.7-4.5,7-11.6,22-12.8c8.6-0.7,14.5,4.6,18.9,2.7c8.4-3.6,30.9-20.8,32.5-23.2
	c3.6-5.3,4.4-17.6,7.5-34.3c0.4-2,0.9-4-2.1-7.5c-7.1-8.5-10.8-12.2-15.8-22.7c-1.6-3.3-1.5-6-0.6-8.5c1.5-4.2,3.2-7.2,7.9-7.4
	c4-0.2,8.3,2.2,10.2,2c1.7-0.2,3.4-1.6,4.5-5.3c2.5-8.4,7.9-30,7.2-35.4c-0.6-4.7-2.6-6.4-3.1-6.8c-2.5-1.8-7.1-1.5-9-1.5
	C209.1,66.1,107,68.9,107,68.9S99.2,69.1,102.2,60.5z"/>
</svg>
