<?xml version="1.0" encoding="utf-8"?>
<!-- Generator: Adobe Illustrator 21.1.0, SVG Export Plug-In . SVG Version: 6.00 Build 0)  -->
<svg version="1.1" id="Livello_1" xmlns="http://www.w3.org/2000/svg" xmlns:xlink="http://www.w3.org/1999/xlink" x="0px" y="0px"
	 viewBox="0 0 320 280" style="enable-background:new 0 0 320 280;" xml:space="preserve">
<g>
	<path d="M84,68.1c3.1,0,7.8,2.5,14.2,5.9l0.4,0.2l6.6,3.5c10.6,5.7,28.5,15.1,32.1,17c0.8,0.4,1.6,0.8,2.5,1.3
		c6.4,3.4,11,5.7,14.7,5.7c5.1,0,9.5-3.1,13.7-6.1c2.5-1.8,6-4.2,7.7-4.2c1.9,0,7.5,3.9,14.6,8.8c2.6,1.8,5.5,3.9,8.9,6.2
		c7,4.8,20.4,13.8,29,19.4c0.4,0.5,1.8,2.7,1.9,8c0.4,10.4,1,27.8,16.4,31c10.7,2.3,28.9,6.5,33.9,7.8c1.1,0.3,10.5,3,10.5,15.3
		c0,4.9-1.4,10.2-3.1,15.5c-2.5,8.2-5,13.7-6,15c-2.9,2.3-5.5,3.8-8.6,3.8c-2.5,0-15.2-0.6-26.4-1.2c-12.2-0.6-23.8-1.2-26.5-1.2
		c-4,0-6.3-0.3-7.3-6.3c-0.3-1.8-0.5-3.5-0.7-5.2c-0.8-7.6-1.8-17-15.4-19.4c-5.4-0.9-18.6-2.8-31.4-4.6
		c-13.5-1.9-28.8-4.1-31.7-4.7c-3.1-0.7-5.8-4.3-5.8-7.7c0-3.1,2.7-7.4,7.8-7.4c6.9,0,12,3.7,17.4,7.7c5.1,3.8,10.4,7.7,17.1,7.7
		c3.6,0,6.6-0.6,9.3-1.2c1.9-0.4,3.5-0.8,4.9-0.8c2.6,0,5.7,1.6,13.6,6.4c3.5,2.1,11.6,7,20.2,12.2c13.8,8.3,28,17,30.5,18.4
		c4.2,2.4,10,5.7,15.7,5.7c9.4,0,19.6-7.7,19.6-20.2c0-4.9-2.1-17-21.7-24c-5.9-2.1-51.3-16-84.5-26.1c-13.2-4-23.7-7.2-26.9-8.3
		c-4.3-1.4-17-6.5-30.5-11.9c-19.8-8-42.3-17.1-51.2-19.5c-4.7-1.3-9.6-2.5-14.4-3.7c-8.7-2.1-18.6-4.6-21.6-6.3
		c-2.9-1.7-3.8-5.3-4-6.1c0.1-0.8,1.3-5.2,9.3-5.2c6.2,0,8.7,0.6,11.4,1.3c2.5,0.6,5.3,1.4,10.1,1.4c10.3,0,14.2-9.1,16.7-15.2
		C80,69.6,81.2,68.1,84,68.1 M84,62.1c-14.2,0-10.7,23.8-23.7,23.8c-8.9,0-8.7-2.7-21.5-2.7c-12.8,0-15.3,8.9-15.3,11.1
		c0,2.2,1.6,8.3,7,11.4c5.4,3.1,22.6,6.5,37.4,10.5c14.7,4,70.5,28,81.5,31.4c11,3.4,103,31.4,111.2,34.3
		c14.7,5.3,17.7,13.5,17.7,18.3c0,8.9-7.3,14.2-13.6,14.2c-4,0-8.8-2.7-12.8-4.9c-3.9-2.2-41.8-25.3-50.6-30.5
		c-8.7-5.2-12.5-7.2-16.7-7.2c-4.2,0-8.7,2-14.1,2c-10.6,0-18.4-15.4-34.5-15.4c-8.6,0-13.8,7.1-13.8,13.4c0,6.3,4.7,12.3,10.5,13.6
		c5.8,1.3,52,7.4,63.3,9.4c11.3,1.9,9.5,9.3,11.2,19.7c1.7,10.4,8.1,11.3,13.3,11.3c5.1,0,47.7,2.4,52.9,2.4c5.3,0,9.3-2.6,12.6-5.3
		c2-1.6,5.2-9.3,7.8-17.8c1.7-5.8,3.3-11.5,3.3-17.3c0-14.3-10.1-19.9-15-21.1c-4.9-1.3-23.3-5.6-34.2-7.9
		c-10.9-2.3-11.3-15.4-11.7-25.4c-0.3-9.9-4.2-12.6-4.2-12.6c-8.3-5.4-22.2-14.7-29.4-19.7c-16.1-11-22.1-16.1-26.9-16.1
		c-7.1,0-14.9,10.3-21.4,10.3c-3,0-9.9-4-14.4-6.3c-4.5-2.3-30.9-16.3-38.6-20.4C93.7,64.8,88.6,62.1,84,62.1L84,62.1z"/>
</g>
</svg>
