<?xml version="1.0" encoding="utf-8"?>
<!-- Generator: Adobe Illustrator 27.0.0, SVG Export Plug-In . SVG Version: 6.00 Build 0)  -->
<svg version="1.1" id="Livello_2" xmlns="http://www.w3.org/2000/svg" xmlns:xlink="http://www.w3.org/1999/xlink" x="0px" y="0px"
	 viewBox="0 0 320 280" style="enable-background:new 0 0 320 280;" xml:space="preserve">
<g>
	<path d="M291.9,228.5h-262c-7.8,0-14.4-4.1-18.5-11.5c-5.5-9.8-5.6-23.3-0.3-32c6-9.8,31.1-54,41.6-72.6c1.9-3.4,5.5-5.5,9.4-5.4
		c4,0,7.5,2.1,9.3,5.6c14.6,26.9,14.4,29.1,14.3,30.5c-0.3,3.8-2.8,7.1-7.1,9.5c-1.4,0.8-6.8,5.4-10.2,10.8
		c-0.8,1.2-4.1,6.7-9.3,15.5c-1.2,1.9-1.2,4.3-0.1,6.3s3.1,3.2,5.4,3.2h183.8c1.3-0.2,11.2-2.1,13.8-13.6
		c2.3-10.2-2.1-16.2-14.5-20.1c-2.1-0.7-4.2-1.2-6.5-1.7c-8.9-2.1-18.9-4.5-24.2-15.8c-2.7-5.7-2.8-9.9-3-13.5
		c-0.2-4.7-0.3-8.1-6.5-14.7c-13.8-14.5-33.5,1.9-39.2,7.2c-11.7,11-22.4,12.9-27.4,10.1c-2.5-1.5-3.7-4.2-3-7
		c1.5-6.4,28-54.6,31-60.1c0.7-1.2,4.3-7,9.2-7.5c5.1-0.4,8.9,3.5,17.2,12.1c3.3,3.4,20.1,20.2,39.5,39.5
		c27.1,27,57.8,57.6,61.6,61.8c6.9,7.5,8.7,17.7,4.6,25.3l-0.5,0.9c-2.8,5.1-4.1,7.4,1.9,14.3c1,1.1,2,2.2,3.1,3.3
		c4.6,4.8,9,9.4,7.1,14C310.6,226.8,304.7,228.5,291.9,228.5z M62,112.9c-1.7,0-3.3,0.9-4.1,2.4c-13.1,23.1-35.8,63.3-41.7,72.8
		c-4.2,6.8-4,18.2,0.4,26c2.2,3.9,6.2,8.5,13.3,8.5h262c12.4,0,14.6-1.8,14.9-2.1c0-1.4-3.8-5.3-5.9-7.5c-1.1-1.1-2.2-2.3-3.2-3.4
		c-8.9-10-5.9-15.4-2.7-21.2l0.5-0.9c3.4-6.2,0.4-13.8-3.7-18.4c-3.7-4.1-34.4-34.7-61.4-61.6c-19.4-19.4-36.2-36.1-39.6-39.6
		c-6.8-7.1-10.2-10.5-12.4-10.3c-1.1,0.1-3.3,2.5-4.4,4.4c-11.2,20.4-29.4,54.3-30.4,58.6c-0.1,0.2,0,0.3,0,0.3
		c0,0.1,0.5,0.4,1.5,0.5c3.6,0.4,10.7-1.9,19-9.6c17.7-16.6,35.9-19.3,47.7-7c7.8,8.2,8,13.5,8.2,18.6c0.1,3.4,0.2,6.5,2.4,11.2
		c4.1,8.7,11.9,10.6,20.2,12.5c2.3,0.5,4.7,1.1,7,1.8c5.7,1.8,23,7.2,18.6,27.1c-2.9,13.1-13.8,17.7-19.1,18.3l-0.3,0h-184
		c-4.5,0-8.4-2.3-10.6-6.2s-2.1-8.5,0.1-12.3c3.7-6.2,8.4-14,9.4-15.6c3.7-5.8,9.6-11.3,12.3-12.8c1.4-0.8,3.8-2.5,4.1-4.6
		c-0.2-0.9-1.8-5.6-13.6-27.3C65.4,113.8,63.8,112.9,62,112.9C62.1,112.9,62,112.9,62,112.9z M79.8,142.8
		C79.8,142.8,79.8,142.8,79.8,142.8C79.8,142.8,79.8,142.8,79.8,142.8z"/>
</g>
</svg>
