<?xml version="1.0" encoding="utf-8"?>
<!-- Generator: Adobe Illustrator 21.1.0, SVG Export Plug-In . SVG Version: 6.00 Build 0)  -->
<svg version="1.1" id="Livello_1" xmlns="http://www.w3.org/2000/svg" xmlns:xlink="http://www.w3.org/1999/xlink" x="0px" y="0px"
	 viewBox="0 0 320 280" style="enable-background:new 0 0 320 280;" xml:space="preserve">
<g>
	<path d="M152.8,46.4c0.2,0.4,0.4,1.1,0.6,2.2c0.7,4.5,1.4,9,2,13.3c2,13.8,3.7,25.6,8,34.8c5.4,11.4,14.1,16.9,26.7,16.9
		c12.2,0,18-6.1,22.7-11c4.1-4.3,6.8-7.1,13.4-7.1c7,0,10.3,4.1,13.9,8.4c0.5,0.6,1,1.3,1.5,1.8c4,4.7,29,33.7,30.9,35.9
		c0.3,0.3,0.6,0.6,0.8,1c0.8,0.9,2.1,2.4,2.6,3.3c-0.5,1.5-2,4.6-2.9,6.3c-1,1.9-1.9,3.8-2.5,5.3c-0.2,0.5-0.4,1-0.5,1.4
		c-0.2,0.5-0.4,1.2-0.6,1.5c-0.2,0.1-1.1,0.5-3.4,0.6c-0.6,0-68,4.3-88.6,8.6c-6.8,1.4-9.2,5.5-9.2,8.8c0,6.1,5.4,8.9,9.8,11.1
		c7.4,3.8,12.2,7,12.2,15.9c0,8.3-1.7,15.8-4.8,21.4c-2.8,4.9-5.4,6.1-5.9,6.1c-2.1,0-4.8-2.7-8.2-6.1c-2.3-2.3-5-5-8.2-7.6
		c-3.4-3-22.7-19.3-25.9-21.7c-0.2-0.2-0.5-0.4-0.7-0.5c-2.8-2-6.5-4.8-13.1-4.8c-6.1,0-10.7,2.9-14.8,5.4
		c-4.5,2.8-8.8,5.4-15.8,5.4c-12.9,0-22.6-7.6-22.7-14.5c0.3-0.3,1.4-1.2,3.5-1.5c0.4-0.1,2.5-0.4,6-1c13.8-2.4,46.2-8,78.8-13.8
		c27.6-4.9,55.1-10,69.9-12.7c6.2-1.1,11.1-2,11.6-2.1c6.7-1,13.5-5.8,13.5-13c0-4.7-1.8-12.6-13.6-12.6c-3.9,0-124.3,9.3-125.4,9.4
		c-1.9,0.2-7.4,0.7-14.9,1.5C83.8,144,55,147,48.9,147.2c-0.2-0.1-0.6-0.2-0.9-0.4c-0.3-0.2-1-0.6-1-2.5c0-1.4,0.6-2.2,1.9-2.5
		c1.1,0.2,3.4,1.1,4.6,1.7c2.6,1.1,4.5,1.9,6.5,1.9c5.3,0,9.4-5.1,9.4-9.4c0-4.4-2.6-7.9-5.1-11.3c-3-4-6.1-8.2-6.1-14.5
		c0-25.6,11.6-31.7,28.1-37.4l2.8-1c8.7-3,20.6-7.2,31.2-11.4c7.1-2.8,13.6-5.8,18.4-7.9c2.5-1.1,4.4-2,5.7-2.5l0.3-0.1
		C147.7,48.4,150.9,47,152.8,46.4 M153.6,40c-2.1,0-11.3,4.3-11.3,4.3c-3.9,1.6-13.3,6.1-24,10.4c-11.7,4.7-24.8,9.2-33.8,12.3
		c-17.2,6-32.1,13.3-32.1,43.1c0,13.8,11.2,19.7,11.2,25.8c0,1.2-1.5,3.4-3.4,3.4c-1.9,0-8-3.5-11.3-3.5c-1.1,0-7.8,1.4-7.8,8.5
		c0,8.2,7.4,8.9,7.4,8.9c7.4,0,59.9-5.8,66.4-6.3c6.5-0.6,121.8-9.4,124.9-9.4c6.1,0,7.6,2.4,7.6,6.6c0,4.2-5.1,6.6-8.4,7.1
		c-1.6,0.2-41.4,7.7-81.7,14.9c-41.1,7.3-82.6,14.4-84.7,14.8c-4.2,0.7-8.5,3.2-8.5,7.4c0,10.2,12,20.5,28.7,20.5
		c15.8,0,20.7-10.8,30.6-10.8c5.1,0,7.6,2.2,10.3,4.2c2.7,2,20.8,17.4,25.6,21.4c8.9,7.1,13.3,15.1,20.3,15.1
		c7,0,16.7-12.6,16.7-33.5c0-20.7-22-20.3-22-27c0-0.7,0.8-2.2,4.4-2.9c19.6-4.1,84.3-8.3,87.7-8.5c8.2-0.4,8.3-3.7,9.7-7.3
		c1.4-3.7,5.9-11.1,5.9-13.8c0-2.8-2.9-5.6-5-8.1c-2.1-2.4-26.9-31.2-30.9-35.9c-4-4.7-8.7-12.3-19.9-12.3
		c-18.5,0-17.1,18.2-36.1,18.2c-25.8,0-25.5-27.7-30.8-60C158.3,41.8,155.7,40,153.6,40L153.6,40z"/>
</g>
</svg>
