<?xml version="1.0" encoding="utf-8"?>
<!-- Generator: Adobe Illustrator 21.1.0, SVG Export Plug-In . SVG Version: 6.00 Build 0)  -->
<svg version="1.1" id="Livello_1" xmlns="http://www.w3.org/2000/svg" xmlns:xlink="http://www.w3.org/1999/xlink" x="0px" y="0px"
	 viewBox="0 0 320 280" style="enable-background:new 0 0 320 280;" xml:space="preserve">
<g>
	<path d="M57.2,76.5L57.2,76.5c1.7,0,5,2,5.3,6c0.2,2.8-0.2,5.1-1.1,6.6c-0.6,0.9-1.8,2.2-5.3,2.5c-0.9,0-2.7-0.5-4-0.8
		c-1.8-0.5-3.3-0.9-4.8-0.9c-0.2,0-0.4,0-0.6,0c-1.4,0.1-3.1,0.7-4.5,1.6c-2.6,1.7-4.1,4.4-3.9,7.2c0.4,5.4,6.3,6.6,11.1,7.5
		c3,0.6,7.4,1.2,9.6,1.2c0.3,0,0.6,0,0.8,0c1.3-0.1,3.3-0.4,5.7-0.9c2.4-0.4,5.2-0.9,6.9-1.1c2.8,0,16.6,2.3,25.7,3.8
		c4.5,0.8,8.8,1.5,11.8,1.9c9.8,1.5,48.9,11.5,49.3,11.6l0.4,0.1l-0.1,0c1.1,0.2,4.5,1.4,5.5,3.6c3.7,8.4,10.1,13.1,17.4,13.1
		c0.4,0,0.9,0,1.3-0.1c6.7-0.5,13.9-3.6,20.8-6.5c5-2.1,10.1-4.3,13.1-4.5c0.3,0,0.6,0,0.9,0c2.9,0,3.7,0.8,6.4,6.7l0.2,0.5
		c2.1,4.5,4.6,9.5,6.2,12.8c0.5,1,0.9,1.8,1.2,2.5c2.7,5.5,11.6,25.8,13.4,31.2c3.5,10.6,10,11.5,11.9,11.5c0.2,0,0.4,0,0.6,0
		c1-0.1,2.3-0.4,10.1-2.3c4.9-1.2,14.1-3.5,15.9-3.7c0.6,0.1,4.1,1.1,4.4,4.7c0.9,11.1-7.3,17.8-15.4,18.4l0.1,0
		c-2.4,0-12.2-1.6-19.3-2.7c-3-0.5-5.9-0.9-8.4-1.3c-7.7-1.2-10-3.2-13.3-6.1l-0.7-0.6c-3.8-3.3-19.6-17.5-23.2-20.7
		c-6.2-5.8-8-9.2-9.7-12.5c-2-3.9-4.1-7.9-11.2-13.3c-0.9-0.7-1.9-1.5-2.9-2.4c-5.5-4.6-11.7-9.9-18.7-9.9c-0.3,0-0.7,0-1,0
		c-5.1,0.4-14.2,4.1-27.5,9.8c-5.5,2.3-12.8,5.4-15.8,6.3c-0.4-0.2-0.8-0.5-1.2-0.7c0-0.1,0-0.2,0-0.3c-0.2-2.8-2.5-5.7-6.5-5.7
		c-1.1,0-2.3,0.2-3.7,0.5c-0.6,0.1-1.2,0.2-1.7,0.3c-2.2-0.4-9.3-3.1-12.4-4.7c-1.3-0.7-11.2-5.9-22.6-12
		c-29.3-15.5-42.6-22.6-44.1-23.3c-0.3-0.2-0.8-0.8-1.1-1.3c0.1-0.9,0.5-3.3,1.9-9.4l0,0c0.5-2.2,2.7-9.4,3.6-11.8
		c1.8-1.3,7-4.1,9.1-5.2l1.3-0.7c1.1-0.6,2.3-1.3,3.7-2.1c2.3-1.4,7.1-4.2,8.7-4.4C57.1,76.5,57.2,76.5,57.2,76.5 M34.6,88.4
		L34.6,88.4L34.6,88.4 M284.9,187.7L284.9,187.7L284.9,187.7 M57.2,70.5c-0.2,0-0.4,0-0.6,0c-3.7,0.3-10.8,5.1-14.7,7.2
		c-3.9,2.1-11.6,6-12.6,7.8c-1,1.8-3.9,11.5-4.4,13.8c-0.5,2.3-2.2,9.7-2.1,11.5c0.1,1.8,2,5,4.6,6.1c2.6,1.2,62.9,33.3,66.5,35.1
		c3.5,1.8,12.8,5.4,15.1,5.4c0.1,0,0.1,0,0.1,0c1.6-0.1,4.2-0.8,5.3-0.8c0.3,0,0.5,0.1,0.5,0.2c0,0.6-1,1.4,0,2.7
		c1,1.3,5.2,4.1,6.8,4.1c0,0,0.1,0,0.1,0c5.6-0.4,35.9-15.7,44.1-16.3c0.2,0,0.4,0,0.6,0c5.9,0,12.7,6.9,17.9,11
		c12.1,9.3,6.5,12.4,20.5,25.5c3.7,3.4,19.4,17.5,23.3,20.9c3.9,3.4,7.1,6.6,17,8.1c9.6,1.5,24.8,4.1,28.6,4.1c0.2,0,0.3,0,0.4,0
		c11.5-0.9,22-10.5,20.9-24.8c-0.6-7-7-10.3-10.4-10.3c-0.1,0-0.3,0-0.4,0c-3.3,0.3-24.5,5.9-26.1,6c-0.1,0-0.1,0-0.2,0
		c-1.6,0-4.4-1.7-6.2-7.3c-1.9-5.8-11-26.4-13.7-32c-1.3-2.7-4.7-9.4-7.4-15.2c-2.7-5.7-4.8-10.6-12.1-10.6c-0.5,0-0.9,0-1.4,0.1
		c-8.5,0.7-23.1,10.2-33.9,11c-0.3,0-0.6,0-0.9,0c-5.5,0-9.5-4.2-11.9-9.6c-2.5-5.7-9.8-7-9.8-7S121.2,107,111,105.4
		c-9.9-1.5-33.7-5.9-38.4-5.9c-0.1,0-0.3,0-0.4,0c-3.6,0.3-10.3,1.8-12.7,1.9c-0.1,0-0.2,0-0.4,0c-3.1,0-14.6-1.9-14.7-3.2
		c-0.1-1.4,2.1-2.3,2.8-2.3c0.1,0,0.1,0,0.2,0c1.7,0,5.9,1.7,8.8,1.7c0.2,0,0.3,0,0.5,0c9.8-0.8,12.4-8.1,11.9-15.6
		C67.9,74.9,62.1,70.5,57.2,70.5L57.2,70.5z"/>
</g>
</svg>
