<?xml version="1.0" encoding="utf-8"?>
<!-- Generator: Adobe Illustrator 21.1.0, SVG Export Plug-In . SVG Version: 6.00 Build 0)  -->
<svg version="1.1" id="Livello_1" xmlns="http://www.w3.org/2000/svg" xmlns:xlink="http://www.w3.org/1999/xlink" x="0px" y="0px"
	 viewBox="0 0 320 280" style="enable-background:new 0 0 320 280;" xml:space="preserve">
<style type="text/css">
	.st0{fill:none;stroke:#000000;stroke-width:6;stroke-miterlimit:10;}
</style>
<path class="st0" d="M285.5,181.9c-2.4,2.7-5.3,6.1-8.7,8.1c-5.9,3.6-12.3,5.2-22.1,5.2c-6.4,0-203-0.8-209.1-0.8
	c-6.1,0-7.9-2.6-9.3-8.7c-1.3-6.1-5.5-21.6-6.1-24.1c-0.5-2.4-2-6.5,0.7-11.1C33.9,146,43,130,47.8,130c4.7,0,6.4,3.1,7,5.6
	c0.6,2.5,3.7,14.5,4.8,16.7c1.1,2.3,4.6,6.2,8.7,6.3c4.1,0,105.8,0.9,108.9,0.9c3,0,7.3,0,7.4-2c0-2-0.9-3.1-4.9-4.3
	c-4-1.2-27.6-10.4-31.1-11.7c-3.5-1.3-5.3-2-9.1-2.1c-9.8,0-31.3,7.3-41,7.3c-7.7,0-9.5-1.7-13-6.2c-3.5-4.5-11.8-14.4-11.7-18.5
	c0.1-4.1,1-9.4,9.9-9.4c4,0,16,2.3,29.1,4.3c15.5,2.4,32.4,4.6,36.8,4.6c10,0,11-4.6,23.7-16.2c12.7-11.6,17.3-18.6,30.4-18.6
	c8.3,0,13.6,2.4,13.5,10.3c-0.2,7.9-1,29.3-0.7,31.7c0.2,2.4,3.3,10.1,9,12.4c5.8,2.3,20.1,8.5,23.3,10c3.2,1.5,5.1,1.6,7-0.1
	c1.9-1.7,2.7-2.3,0.3-5.6c-2.4-3.3-18.4-25.7-18.3-30c0.1-4.2,7-12,18.4-12c9.3,0,12.9,6.5,15.6,10.3c2.6,3.8,15.8,21.3,19,27.6
	c3.2,6.2,5.5,9.6,5.3,19.1C295.9,165.4,292.6,174,285.5,181.9z"/>
</svg>
