<?xml version="1.0" encoding="utf-8"?>
<!-- Generator: Adobe Illustrator 21.1.0, SVG Export Plug-In . SVG Version: 6.00 Build 0)  -->
<svg version="1.1" id="Livello_1" xmlns="http://www.w3.org/2000/svg" xmlns:xlink="http://www.w3.org/1999/xlink" x="0px" y="0px"
	 viewBox="0 0 320 280" style="enable-background:new 0 0 320 280;" xml:space="preserve">
<style type="text/css">
	.st0{fill:#161616;}
</style>
<g id="Livello_2">
	<g>
		<path class="st0" d="M111.3,48L111.3,48L111.3,48 M111.3,48c2.8,0,5.1,1.5,5.9,2.3c2,2,2.6,4.5,3.5,9.1c0.9,4.4,2.1,9.9,5.6,16.1
			c4.6,8,10,12.5,14.4,16.1c4.9,4,6.5,5.6,6.6,8.7c-0.3,1.8-2.4,9.2-4,14.6c-3.7,12.7-5.3,18.5-5.3,21.3c0,7.6,6.4,13.4,14.8,13.4
			c7.6,0,17.8-3.5,27.4-9.2c10.9-6.6,19.9-15.6,25.4-25.3c5.1-9,8.7-19.1,11.8-28c6.3-17.9,10.7-28.9,19.9-28.9H252
			c1.2,0,2.4,0,3.5,0c1,0,2,0,2.9,0c1.2,0,2.9,0,4.1,0.2c1.1,0.2,1.7,0.6,2.7,1.3l0.3,0.2c0.8,0.5,0.8,0.5,2.1,2.9
			c0.6,1.2,1.4,2.6,2.4,4.5l3.6,6.4c3,5.4,6.5,11.5,7.1,12.6c0.3,0.5,0.6,1,0.8,1.4c0.7,1,1.3,2,1.3,5.7c0,1-0.7,1.8-2.3,3.6
			c-0.2,0.3-0.4,0.5-0.7,0.8c-0.7,0.8-3.9,4.6-7.9,9.3c-7.1,8.4-19,22.4-20.2,23.7l-0.1,0.2c-2.3,2.4-8.4,8.9-8.4,17
			c0,3.8,2.8,8.2,9.6,18.8c0.8,1.2,1.5,2.4,2.3,3.7c7,11,16.7,26.1,21.2,32.9c2.2,3.3,4,6,5.7,8.3c1.6,2.3,3,4.4,4.4,6.5
			c0.6,0.9,1.1,1.6,1.6,2.2c1.3,1.8,2,2.6,2,5.9c-0.1,0.5-0.6,2.5-2.4,4.4c-1.3,1.3-2.5,1.5-7,1.5H169.3H65
			c-12.2,0-14.8-4.6-14.8-8.4c0-1.6,0.4-3,1.4-4.5c1.1-1.6,2.1-2.1,5.7-4c1.4-0.7,3.1-1.6,5.1-2.7c3.5-1.9,6.7-3.6,9.5-5
			c13.1-6.8,21.7-11.3,21.7-22.1c0-11.9-9.9-16.6-17.8-20.4c-1-0.5-1.9-0.9-2.9-1.4c-5.3-2.6-15.2-7.5-18.5-11
			c-2.2-2.4-6.7-16.2-9.9-26.3c-1-3.1-2-6.3-3.1-9.5c-1.6-4.7-3.1-9.2-4.6-13.6c-3-8.6-6.7-19.4-6.9-21.8c0-4.1,2.9-6.2,12.6-9.5
			l1.7-0.6c3-1,7-2.4,8.2-2.4c2,0,5.7,2,7.8,6.4c2.4,4.9,6.4,17.9,9.3,27.3c3,9.7,3.8,12.3,4.6,13.7c2.6,4.6,6.7,7.4,10.7,7.4
			c3.3,0,7.9-1.6,10.2-6c0.8-1.5,0.9-1.8,6.7-44.7c1.3-9.8,2.5-18.2,2.8-20.3C105,50.8,109.4,48.2,111.3,48 M111.2,42
			c-3,0-11.5,3.8-12.4,9.8c-1,6-8.3,61.9-8.9,63.2c-1,1.9-3.2,2.8-4.9,2.8c-1.8,0-4-1.7-5.5-4.3c-1.5-2.6-9.5-32-13.8-40.7
			c-3.1-6.3-8.7-9.7-13.2-9.7c-2.4,0-6.8,1.6-11.8,3.3C32.6,69.1,24,72.3,24,81.7c0,3.8,6.1,20.1,11.8,37.3
			c5.5,16.6,10.6,34.1,14.4,38c3.7,3.9,11.9,8.1,20.2,12.2c8.7,4.3,17.4,7.2,17.4,16.4c0,8.8-9.5,11.7-28.1,21.8
			c-7.2,3.9-10.2,4.5-12.9,8.6c-1.5,2.3-2.4,4.8-2.4,7.8c0,4.3,2.1,14.4,20.8,14.4s54.6,0,104.4,0c53.6,0,108.3,0,111.3,0
			c4.7,0,8.1-0.2,11.3-3.3c3.1-3.1,4.2-6.9,4.2-8.5c0-6.8-2.5-8.3-4.5-11.4c-2.8-4.4-5.8-8.3-10.1-14.8
			c-4.3-6.5-13.4-20.8-21.1-32.8c-5.7-9-11-16.7-11-19.2c0-5.8,5.1-11,6.9-13c1.9-2,26.3-30.9,28.3-33.2c2-2.3,4.4-4.6,4.4-8.3
			c0-6.7-2.1-8.3-2.9-9.9s-6.9-12.3-10.7-19c-3.8-6.8-3.6-7.6-6.4-9.5c-1.3-0.9-2.8-2-5.4-2.5c-1.4-0.2-3.2-0.3-5.1-0.3
			c-2,0-4.2,0.1-6.5,0.1c-3.9,0-14,0-14.7,0c-21,0-22.6,34.6-37,59.9C189.4,132.2,165.5,144,153,144c-5.2,0-8.8-3.2-8.8-7.4
			s9.3-32.5,9.3-35.8c0-11.5-12.9-12.6-21.7-28c-6.4-11.2-3.7-20-10.1-26.4C119.7,44.3,115.9,42,111.2,42L111.2,42z"/>
	</g>
</g>
</svg>
