<?xml version="1.0" encoding="utf-8"?>
<!-- Generator: Adobe Illustrator 21.1.0, SVG Export Plug-In . SVG Version: 6.00 Build 0)  -->
<svg version="1.1" id="Livello_1" xmlns="http://www.w3.org/2000/svg" xmlns:xlink="http://www.w3.org/1999/xlink" x="0px" y="0px"
	 viewBox="0 0 320 280" style="enable-background:new 0 0 320 280;" xml:space="preserve">
<g>
	<path d="M110.7,90.9c11.8,0,45.5,0.4,72.6,0.8c17.7,0.2,31.6,0.4,34.8,0.4c8.9,0,13.7,3.4,22.5,9.7c1.7,1.2,3.4,2.4,5.3,3.7
		c5.8,4,13.3,8.7,19.3,12.5c4.3,2.7,9.1,5.8,10.3,6.6c3.1,3.5,13.2,26.2,14.7,32.1c-1.2,2.8-7.2,10.1-10.8,14.5l-0.8,0.9
		c-0.9,1.1-1.8,2.2-2.6,3.2c-1.8,2.3-4.8,6-6.1,6.6c-1.2,0-1.4-0.4-1.6-0.7c-0.4-0.7-0.6-1.6-0.6-1.9c0-2.8,3.5-15.5,5.4-22.3
		c2.6-9.3,3.2-11.7,3.2-13.3c0-6.8-7.1-12.5-16-19.7c-2.2-1.8-4.5-3.6-6.6-5.4c-2-1.7-4.1-3.5-6.1-5.3
		c-13.4-11.7-16.9-14.4-20.8-14.4c-3.6,0-6,2.4-10.1,6.5l-0.3,0.3c-1.9,2-25.2,23.3-43.9,40.5c-15,13.8-28,25.7-30.2,27.8
		c-1.2,1.1-2.3,2.3-3.4,3.5c-4.1,4.3-7,7.2-10.6,7.2c-3,0-6.6-2-9.8-3.8c-3.4-1.9-6.6-3.8-10.2-3.8c-4.7,0-9.4,3.7-18.1,10.9
		c-6.1,5-16.3,13.5-20.8,13.5c-2.3,0-9.9-4.3-14.5-6.9c-2.8-1.6-5.6-3.2-8.5-4.7c-2.1-1.1-4.2-2.1-6.2-3.1c-3.9-2-9-4.5-11.3-6.2
		c0.8-0.8,2.3-1.9,4.8-3.2c3-1.5,5.8-2.3,6.9-2.5c1.7,0.7,5.4,4.5,7.4,6.6c4.5,4.6,8,8.3,12.5,8.3c4.6,0,13.3-4.1,30.6-12.8
		c4.5-2.3,8.7-4.4,11.6-5.7c9.8-4,32.7-13.5,36.3-15.9c1.4-0.9,33.4-22.6,39.3-26.9c1.4-1,2.9-2,4.3-2.9c4.5-2.9,9.6-6.2,9.6-12.3
		c0-11.3-10.2-12.1-25.7-12.1c-18.8,0-28.5,1.3-35.5,2.3l-0.6,0.1c-8.1,1.1-19.1,2.3-23.3,2.3c-1.2,0-5.6-1-9.8-3
		c-5.1-2.4-6.4-4.5-6.5-4.9c0-3.7,1-4.2,2.1-4.8C97.1,91.1,105,90.9,110.7,90.9 M41.3,174.8L41.3,174.8L41.3,174.8 M110.7,84.9
		c-19.4,0-25.3,2.8-25.3,12.8c0,8.1,17.2,13.9,22.3,13.9c5,0,17-1.4,24.1-2.3c7.1-1,16.4-2.3,35.3-2.3c18.9,0,19.7,2.2,19.7,6.1
		c0,3.9-5.5,6-11.4,10.3c-5.9,4.3-39.1,26.8-39.1,26.8c-3.4,2.3-35.3,15.4-35.3,15.4c-10.2,4.7-34.6,18.1-39.8,18.1
		c-4.3,0-13.6-14.9-19.8-14.9c-3.7,0-18.6,5.7-18.6,12.2c0,4.3,10.1,8.4,21.4,14.3c9.7,5.1,20.4,12.3,25.7,12.3
		c11.6,0,32.5-24.3,38.9-24.3c4.5,0,11.8,7.6,19.9,7.6c8.1,0,13-7.5,18.1-12.3c5-4.8,70.6-64.8,74.1-68.4c2.8-2.8,5-5,6.1-5
		c2.5,0,13.6,10.3,23,18.3c9.3,8,20.5,15.4,20.5,20.5c0,2.6-8.6,29.6-8.6,35.7c0,2.1,1.2,8.6,8.4,8.6c4.4,0,8.3-6.1,13.2-12.1
		c6.2-7.6,13-15.7,13-19.2c0-3.3-12.5-32.8-16.7-36.6c-2-1.8-19.2-12-30.2-19.7c-12.2-8.4-18.4-14.5-31.2-14.5
		C210,86.1,130.1,84.9,110.7,84.9L110.7,84.9z"/>
</g>
</svg>
