<?xml version="1.0" encoding="utf-8"?>
<!-- Generator: Adobe Illustrator 21.1.0, SVG Export Plug-In . SVG Version: 6.00 Build 0)  -->
<svg version="1.1" id="Livello_1" xmlns="http://www.w3.org/2000/svg" xmlns:xlink="http://www.w3.org/1999/xlink" x="0px" y="0px"
	 viewBox="0 0 320 280" style="enable-background:new 0 0 320 280;" xml:space="preserve">
<g>
	<path d="M84.9,46c4.7,0,11.8,1.1,21.5,2.6c23.1,3.6,61.6,9.6,124.4,9.6c2.9,0,7.1,0.1,9.2,1.1c0.7,0.3,1.2,0.6,1.2,2.5
		c0,1.6,0,2.9-13,7.9c-12.7,4.9-27.2,10.7-32.3,12.8c-4.7,1.9-15.6,6.4-18.6,20.6c-2.3,11-4.8,38.4-5,44.3
		c-0.1,1.4-0.3,13.6,7.9,22.1c4.9,5.2,11.7,7.8,20.1,7.8l0.2,0c12.2,0,23.9-6.3,35.3-12.3c9-4.8,17.5-9.3,24-9.3
		c1.4,0,3.9,0,5.6,5.9c1.5,5.1,1.5,11.8,1.5,15.8c0,4.3-0.5,5-4.5,6.3c-8.5,2.7-43.1,13.6-52.8,16.3c-1.1-3.4-3.7-9.6-13.9-9.6
		c-1.8,0-4.4,0.1-7,0.2c-2,0.1-4,0.1-5,0.1c-1-0.2-3.6-3.3-5.1-5.2c-1-1.2-2.1-2.6-3.3-3.9c-0.4-0.4-0.8-0.9-1.2-1.3
		c-3.9-4.3-7.2-8-7.2-11.4c0-6.2,2.3-30.3,4-47.9c1.4-14.7,1.9-20.4,1.9-22c0-7.5-5.7-13.4-12.9-13.4c-8.8,0-11,6-13.1,11.9
		c-0.8,2.1-1.6,4.4-2.9,7.3l-0.1,0.1l-0.6,1.4c-3.9,9.7-14.2,35.3-26.9,65.3c-5.8,13.6-10.1,27.1-13.7,38c-1,3.2-2,6.2-2.9,8.9
		c-0.5,1.4-0.9,2.8-1.3,4.1c-3,9.4-3.8,10.3-6.3,10.3c-2.1,0-4.1-1.6-8.1-4.8c-0.7-0.5-1.4-1.1-2.1-1.7
		c-1.4-1.2-18.6-15.8-22.5-19.1c-4.5-3.8-4.8-5.1-4.8-5.3c0-0.5,0.9-1.8,1.8-1.8c1.5,0,3.9,0.2,6.4,0.4c3.2,0.3,6.5,0.5,9.3,0.5
		c1.5,0,2.8-0.1,3.8-0.3c0.3-0.1,0.6-0.1,0.9-0.1c4.1-0.6,8.7-1.4,14.6-7.7c0.5-0.5,1.2-1.2,2-2.1c12.5-12.9,25.4-27.8,25.4-40.9
		c0-14.2-8.7-23.8-14-29.5c-0.8-0.9-1.5-1.6-2-2.2c-1.9-2.3-7.4-9-13.1-16.2c-6.9-8.6-14-17.5-16.9-20.9c-4.8-5.7-7.1-9-7.1-15.3
		C65.7,62.2,69.1,46,84.9,46 M84.9,40c-18.6,0-25.2,17.8-25.2,26.2c0,8.4,3.3,13.1,8.5,19.2c5.2,6.1,25.6,32,30,37.1
		c4.3,5.1,14.5,14,14.5,27.9c0,13.9-20.9,33.6-25.7,38.8c-4.9,5.2-8.1,5.3-12.1,6c-0.7,0.1-1.7,0.2-2.8,0.2c-4.7,0-12-1-15.7-1
		c-4.6,0-7.8,4.3-7.8,7.8c0,3.4,3,6.5,7,9.9c4,3.3,22.5,19.1,22.5,19.1c5.5,4.4,9,7.9,14,7.9c8.5,0,9.8-7.9,13.3-18.5
		c4.2-12.6,9.1-29.3,16.4-46.5c13.4-31.6,24.2-58.6,27.5-66.8c5-11.5,4.2-15.5,10.4-15.5c4.1,0,6.9,3.6,6.9,7.4
		c0,3.9-5.9,59.4-5.9,69.8c0,6.2,5,11.2,10,16.8c5,5.5,8.2,11.1,12.9,11.1c2.4,0,8.8-0.3,12-0.3c11.5,0,5.8,10.1,12.4,10.1
		c1.9,0,49.5-15,56-17.1c6.5-2.1,8.7-5,8.7-12c0-9.7-0.2-27.6-13.1-27.6c-16.8,0-38.8,21.6-59.2,21.6c-0.1,0-0.1,0-0.2,0
		c-22,0-22.1-21.4-22-23.6c0.2-5.4,2.7-32.6,4.9-43.3c2.2-10.7,9.9-14.2,15-16.3c5.1-2.1,19.5-7.9,32.2-12.8
		c12.7-4.9,16.9-7.4,16.9-13.5c0-8.3-6.9-9.7-16.4-9.7C141.4,52.2,101.9,40,84.9,40L84.9,40z"/>
</g>
</svg>
