<svg id="Livello_1" data-name="Livello 1" xmlns="http://www.w3.org/2000/svg" viewBox="0 0 320 280"><title>Tavola disegno 1</title><path d="M269.15,74.6c-1.73.31-76.93,9.13-81.5,9.13H72.33c-11.64-.16-12.43,7.08-13.22,11.33S35.83,201.41,35.83,204.24a5.39,5.39,0,0,0,6.29,5.19c3.78-.47,72.61-23.91,84.8-25.49,5.43-.79,9.36-4.48,13.53-8.73s10.46-13,23.6-13c12.19,0,14.71,9.91,25.72,9.91,7.71,0,12.35-7.39,12.35-12.59,0-2.55-9.72-27.15-11.64-30.84-3.78-7.24-10.86-6.29-14.63-6s-43.66,4.59-51.92,5.51-14.24,6-16.91,8.81-4.09,14.71-7.71,24.78-12.51,12.67-18.17,12c-1.48-.16-16-.63-16-8.81,0-4.25,3.93-7.37,7.71-13.77,6.23-10.54,14-24,17.07-28.4a26.07,26.07,0,0,1,20.3-11.17c4.25-.31,155.13-13.37,158-13.69S283,98,283,86.09,270.89,74.29,269.15,74.6Zm2.28,20.45c-7.55.79-157.25,13.85-161.42,14.08s-14.16.63-21.63,11.64-23.6,36.5-24.46,37.92a12.48,12.48,0,0,0-1.73,6.53,10.26,10.26,0,0,0,7.16,9,63.74,63.74,0,0,0,14.4,2.52c3.07,0,15.58-1.57,18.64-14.08s4.88-20.3,5.27-21.4a9.55,9.55,0,0,1,3.15-3.7c1.42-1,4.48-3.46,5.43-4.09a23.57,23.57,0,0,1,7.55-2.2c2.67-.24,53-6.06,55.77-6.06s6.06.55,8.26,5,10,23.44,10.7,25.25c2.52,4.41-.87,14.08-9,14.08s-12.27-9.91-25.8-9.91-17.46,5.82-19,7.32-8.1,8.26-9.75,9.83-7.95,4-13.85,5.51-74.65,22.18-76,22.58-5.51,1.57-5.51-.71a26.07,26.07,0,0,1,1.26-6.45c.47-1.81,22.1-104.39,22.5-105.8a4.71,4.71,0,0,1,4.56-3.78c3,0,98.25.39,101.56.39s21.71-1.1,27.53-1.81,74.5-6.84,77.49-6.84,5.43,1.26,5.43,6C279.93,87.43,279,94.27,271.44,95.06Z"/></svg>