<?xml version="1.0" encoding="utf-8"?>
<!-- Generator: Adobe Illustrator 21.1.0, SVG Export Plug-In . SVG Version: 6.00 Build 0)  -->
<svg version="1.1" id="Livello_1" xmlns="http://www.w3.org/2000/svg" xmlns:xlink="http://www.w3.org/1999/xlink" x="0px" y="0px"
	 viewBox="0 0 320 280" style="enable-background:new 0 0 320 280;" xml:space="preserve">
<g>
	<path d="M162.8,63.1c5.8,1.2,7.5,4,10.3,8.7c2.1,3.5,4.5,7.5,8.9,10.9c2.9,2.4,7.1,4.4,11.5,6.6c1.3,0.6,2.5,1.2,3.7,1.9
		c11.1,5.7,15.8,8,19.3,9.7c4.3,2.1,6.1,3,16.2,8.4c3,1.6,6.5,3.4,10.6,5.4c15.1,7.6,38,19,45.9,29.4c1.2,1.6,1.7,3.4,1.7,6.4
		c0,4.5-6.2,8.6-11.3,11.3c-9,4.6-15.1,8.8-19.4,13.2c-3.7,3.9-12.6,12.1-14.3,13.4c-0.5,0.3-1.1,0.7-1.8,1.1
		c-2.5,1.5-6.2,3.8-6.2,8.2c0,2.8,1.7,4.7,3.1,6.3c1,1.1,2.3,2.6,2.3,3.6c0,2.6-8.3,9.5-17.1,9.6c-1.7-0.3-6.5-3.9-9.6-6.4l-0.4-0.3
		c-3.3-2.5-40.1-30.3-46.6-34.7c-6.6-4.5-8.9-7.6-8.9-12.6c0-3.5,0.7-6,1.6-8.9c0.9-3.1,1.9-6.6,1.9-11.2c0-11.8-9.3-21.4-16.7-29.1
		c-2.9-3-7.3-7.6-7.7-9.3c0-0.1,0-0.1,0-0.1l0,0c0.6-1.3,6.5-2.8,8.4-3.2c4.6-1.1,11-2.7,11-8.9c0-5.6-5.9-8.2-11.7-10
		c-3.9-1.2-9.8-2.5-14.5-2.5c-6.1,0-9.8,3.9-10.9,5.2L83.7,128l-0.1,0.1l-25.8,30c-0.9,1-4.4,5.3-4.4,10.5c0,4.8,2.4,8.6,6.7,10.5
		c2.8,1.3,6.1,1.6,9.2,1.9c2.8,0.3,5.7,0.6,7.3,1.5c0.6,0.3,1.4,0.8,1.5,3.5c-0.1,0.6-0.3,1.9-1,2.9c-0.7,1.1-1.5,1.9-3.6,1.9
		c-5,0-13.8-5.1-20.2-8.8c-0.9-0.5-1.8-1.1-2.7-1.6c-7-4-14.5-9.9-16.6-29.5c-2-18.9-5.3-49.9-5.3-52.7v-0.1c0-3.5,0-11.6,13-15.3
		c20.2-5.6,34.7-8.1,46.9-8.1c18.8,0,24.6-3.3,29.2-7c1.4-1.1,1.5-1.2,3-1.2c2.2,0,6.7,1.7,10.3,3c4.7,1.8,8.8,3.3,12.3,3.3
		c6,0,9.9-3.3,13-6C159,64.6,160.7,63.3,162.8,63.1 M163.3,57.1c-9.1,0-12,9.7-19.8,9.7c-5.1,0-16.4-6.3-22.7-6.3
		c-9.7,0-3.3,8.2-32.2,8.2c-14.6,0-31,3.5-48.5,8.3c-17.5,4.9-17.4,17.5-17.4,21.1c0,3.6,5.4,53.4,5.4,53.4
		c2.3,22,11.5,29.4,19.6,34c8.1,4.6,18.6,11.2,25.9,11.2c9.9,0,10.6-10.6,10.6-10.6c0-17.8-24.7-5.6-24.7-17.7
		c0-3.3,2.9-6.5,2.9-6.5L88.2,132l38.6-42.9c0,0,2.2-3.1,6.3-3.1c7,0,20.2,3.8,20.2,6.5c0,3.8-19.5,2.4-19.5,12.3
		c0,8.7,24.4,22.1,24.4,38.4c0,7.8-3.5,11.5-3.5,20.1c0,8.6,5.2,13.3,11.5,17.5c6.3,4.2,42.7,31.7,46.3,34.5
		c5.5,4.2,10.2,7.9,13.5,7.9c11,0,23.2-8.4,23.2-15.6c0-5.1-5.4-8.3-5.4-9.9c0-1.5,3.2-2.8,5.5-4.5c2.3-1.7,11.5-10.4,15.1-14.1
		c3.6-3.7,9.1-7.6,17.8-12c8.7-4.5,14.6-9.9,14.6-16.6c0-3.5-0.6-6.9-3-10c-11-14.3-43.8-28.6-58.5-36.5c-17.9-9.6-10-5.1-35.6-18.2
		c-5.1-2.6-11.2-5.2-14.2-7.8C176.4,70.7,177.7,59.7,163.3,57.1L163.3,57.1z"/>
</g>
</svg>
