<?xml version="1.0" encoding="utf-8"?>
<!-- Generator: Adobe Illustrator 21.1.0, SVG Export Plug-In . SVG Version: 6.00 Build 0)  -->
<svg version="1.1" id="Livello_1" xmlns="http://www.w3.org/2000/svg" xmlns:xlink="http://www.w3.org/1999/xlink" x="0px" y="0px"
	 viewBox="0 0 320 280" style="enable-background:new 0 0 320 280;" xml:space="preserve">
<style type="text/css">
	.st0{fill:none;stroke:#000000;stroke-width:4;}
</style>
<g>
	<path class="st0" d="M247.6,41.3L247.6,41.3C248.2,40.7,247.6,41.3,247.6,41.3z"/>
	<path class="st0" d="M252.7,39.9c-0.6-0.3-1.4-0.4-2.1-0.3c-1.1,0.1-2,0.7-3,1.7l0,0c0,0,0,0,0,0c-5.7,6.2-22.2,21.9-27.8,26.4
		c-3.2,2.5-8.4,7-13.8,11.4c-5.4,4.4-10.9,8.7-14.2,11.2c-4.3,3.3-7.2,6-24.2,17.2c0,0,0,0,0,0c-4.2,2.9-9,6-14,9.1c0,0,0,0,0,0l0,0
		l-17.4,10.8l-7.9,5c-0.7,0.3-3,2-3.4,2.4c-0.4,0.4-0.7,0.8-0.6,1.4c0.1,0.6,0.2,1.2,0.7,1.5c0.5,0.3,0.4,0.3,1.1,0.6
		c0.3,0.1,1.5,0.6,1.5,0.6c8.4,4.3,12.8,6.6,20,11.5c0.1,0.1,0.1,0.1,0.3,0.2c0.9,0.6,1.1,1.4,1.1,2.1c0,0.4-0.5,1.3-1.2,1.6
		c0,0-0.2,0.1-0.2,0.1l-6.3,2.6c0,0,0,0,0,0c-1.1,0.4-1.8,0.4-2.4,0.1c-0.7-0.3-1.4-0.9-2-1.5c0,0,0,0,0,0l-1.3-1.3
		c-0.4-0.4-0.8-0.8-0.8-0.8c-1.2-1-1.6-1.1-2.9-1.9c0,0-0.1,0-0.1-0.1l-4.6-1.9c0,0,0,0-0.1,0c-1-0.3-2.4-0.9-3.9-0.8
		c-0.1,0-0.9,0.2-0.9,0.2l-3.9,1.3c0,0-0.8,0.5-0.9,0.5c-0.9,0.5-1.2,1.6-1.2,2.5c0,0.9,0.9,1.9,1.7,2.4l0,0
		c6.5,4.4,12.3,8.4,18,12.3c-0.1,0,0,0,0,0c2.1,1.4,3.3,3.6,4,5.7c0.6,2.2,0.9,5.1,0.8,6.7c-0.2,1.6-0.8,2.9-1.6,4c0,0,0,0,0,0
		l-4.7,5.8l0,0c-1,1.2-1.6,2.2-2.8,2.8c0,0,0,0,0,0c-1.7,0.8-4.3,1.7-7.2,2c-2.9,0.3-6.3,0.1-8.4-1c0,0,0,0,0,0l-4.4-2.6
		c0,0,0,0,0,0c-5.1-2.8-11.1-5.9-17.4-8.8c0,0,0,0,0,0c-1.4-0.5-2.3-0.8-3.6-0.6c-1.6,0.5-1.9,0.8-3.8,2.6
		c-6.5,7.2-11.9,14.5-19.9,23.4l-0.6,0.7c-1.1,1.4-1.9,1.9-1.9,3.5c0,1.2,1,2.3,2,2.6c0.3,0.1,3,0.7,3.4,0.8
		c35.5,7.6,61.4,14.4,94,21.1c0.5,0.1,3.7,0.9,4.1,0.8c1.8,0.1,3.3-1.3,3.7-2.2c0.6-1.2,0.6-2.8-0.9-4.5c-0.4-0.5-1.5-1.5-1.8-1.8
		l-6.5-6.2l0,0l-7.2-7.1c-2.6-2.6-4.6-10.2-0.6-16.6l11.4-17.9c0,0,0,0,0-0.1c0.5-1,1.1-1.9,1.6-3.4c0.5-1.5,0.6-3.6,0.1-7
		c0,0,0,0,0,0c-0.6-3.4,0.1-5.7,1.1-7.3c0.4-0.6,1.4-1.7,2.2-2.7l0,0c0.6-0.7,1.1-1.2,1.2-1.2c1.4-1.5,2.3-3.8,2.5-4.6
		c0.5-2.3-0.1-4.9-1.3-7.9c0,0,0,0,0,0c-0.9-3-2-5.5,0.9-11.3c0,0,0,0,0,0c1.2-2.2,2.8-4.2,4.3-5.4c1.4-1.2,3-1.7,5.6-2l9-0.2
		c0.8,0,2.7-0.1,3.4-0.1c1,0,1.2,0,2.4-0.2c0,0,0,0,0,0c0.8-0.3,1.7-0.9,2.6-2.5c2.9-4.7,4-9.2,4.2-11.5c0.1-2.5,1.8-4.9,4-5.7
		c2.6-1.1,5.6-0.2,6.7,1c1,1,1.9,1.4,3,1.6c1.2,0.2,2.2-0.2,3.3-1.1l0,0c5.8-4.2,11.5-8.7,17.1-13.4c0.2-0.2,0.7-0.6,1.1-1
		c1-1,1.6-1.9,2-3.3c0,0,0,0,0,0c2.5-11.3,5.6-24.4,8.9-36.6l2.9-10.9c0,0,0,0,0,0C255,42.3,254.1,40.6,252.7,39.9z M251.5,42.3
		c-0.1,0.8-0.8,7.3-1.1,10l-2.1,9.5c-3.2,12.2-4.1,17.1-7,29.5c0,0,0,0,0,0c-0.3,1.1-0.6,1.6-1.5,2.5c-5.9,4.9-11.9,9.7-18.1,14.3
		c0,0,0,0,0,0c-0.8,0.7-1.5,0.8-2.3,0.7c-0.5-0.1-0.9-0.2-1.8-1c-2.5-2.1-5.6-2.6-8.6-1.4c-3.7,1.9-4.8,4.8-4.9,6.9
		c-0.6,4.5-2.3,8.9-4.4,11.7c-0.4,0.5-0.9,1-1.3,1.1c0,0,0,0,0,0c-0.5,0.2-1.1,0.1-1.5,0.2c-0.2,0-0.9,0.1-1,0.1l-7.4,0.1
		c0,0-2.1,0-4.5,0.1c-3.7,0-6.8,2.2-7.9,3.5c-0.9,1.1-2.3,2.7-3.2,4.6c0,0,0,0,0,0c-3.3,5.8-2.3,9.4-1.1,12.7c0,0,0,0,0,0
		c1.6,4.3,1.6,6,1.3,7.1c-0.3,1.4-0.8,2.1-3.2,4.9c0,0,0,0,0,0c-0.1,0.1-0.5,0.4-0.9,0.9c-0.5,0.5-1,1.2-1.5,2.1
		c-1.1,1.6-1.8,4.4-1.3,8.3c0,0,0,0,0,0c0.4,3.3,0.4,4.3-0.1,6.4c-0.3,1.2-0.9,1.9-1.5,3c0,0,0,0,0,0l-11.4,17.9c0,0,0,0,0,0
		c-2.1,3.1-2.7,6.9-2.5,10.1c0.3,3.6,1.8,6.9,3.7,8.9c2.4,2.5,3.1,3.2,5,5.1c0.7,0.6,1.4,1.5,2,2.1l5,4.9c1.5,1.5,3.2,3.3,2.9,3.9
		c-0.3,0.5-5.3-0.1-11.1-0.5l-12.3-2.1c-25.7-5.8-51.2-11.7-77.1-17.3c-1.5-0.6-1.5-1.1-1.6-1.7c-0.1-0.7,0.4-1.7,0.8-2.1
		c0,0,0,0,0,0c7.4-8.6,11.9-14.5,18.4-21.7c0.9-1.1,1.5-1.8,2.3-2.5c1.1-1.2,1.6-1.4,2.4-1.6c0.8-0.2,1.4-0.1,2.6,0.3c0,0,0,0,0,0
		c6,2.6,12,5.7,17.3,8.7l4.4,2.6c0,0,0,0,0,0c2.7,1.4,6,1.6,9.1,1.2s6.1-1.2,8-2.1c0,0,0,0,0,0c1.4-0.7,2-1.5,3-2.7
		c0.3-0.3,0.8-0.9,1.1-1.2l1.5-1.9l2.3-2.8c1.1-1.5,1.8-2.6,2.1-5c0-2.5,0-4.3-0.4-6.9c-0.7-4.7-2.1-5.2-5.3-7.7l-17.7-12
		c0,0,0,0,0,0c-0.4-0.3-0.6-0.7-0.6-1c0-0.3,0.1-0.6,0.5-0.8l5.3-1.9c1-0.2,1.4,0.1,2.5,0.4c0,0,0,0,0,0l4.6,1.9
		c1.4,0.7,2.3,1.5,3.3,2.5l0,0l1.4,1.3c0,0,0,0,0,0c0.6,0.6,1.5,1.6,2.6,2c1,0.5,2.3,0.5,3.7,0l2-0.8l2.3-0.9
		c0.8-0.3,1.2-0.5,2.1-0.9c1.3-0.6,2.4-1.8,2.6-3.1c0.2-1.3-0.3-2.9-1.6-3.9c-3-2.8-20.5-12.2-21.6-12.4c-0.5-0.3-0.6-0.7-0.1-1
		c1.1-0.8,1.5-1.1,3-2.1c2-1.3,3.6-2.5,4.6-3.2c4-2.6,9-5.9,11.6-7.5c2.6-1.6,5.2-3.2,7.7-4.7c0,0,0,0,0,0c5-3.2,9.8-6.4,14.1-9.3
		c0,0,0,0,0,0c8.5-5.7,15.5-10.7,21.7-15.3s15.1-11.9,16.5-13c5.1-4.1,9.9-8.3,15.1-12.7c5.1-4.4,10.3-9.3,16.6-15
		c0.7-0.7,6.5-6.4,9.3-9.1c0.5-0.5,2.3-1.8,2.6-2.1c0.2-0.1,0.6-0.5,0.8-0.3C251.5,41.8,251.5,42,251.5,42.3z"/>
	<polygon class="st0" points="198.2,126.2 198.2,126.2 198.2,126.2 	"/>
</g>
</svg>
