<?xml version="1.0" encoding="utf-8"?>
<!-- Generator: Adobe Illustrator 21.1.0, SVG Export Plug-In . SVG Version: 6.00 Build 0)  -->
<svg version="1.1" id="Livello_1" xmlns="http://www.w3.org/2000/svg" xmlns:xlink="http://www.w3.org/1999/xlink" x="0px" y="0px"
	 viewBox="0 0 320 280" style="enable-background:new 0 0 320 280;" xml:space="preserve">
<g>
	<path d="M274.8,59c2.1,0,4.6,0.5,7,6.7c2.3,6.2,3.4,15.7,4.4,24.9c1.2,11.5,3.1,34.1,3.1,55.3c0,11-3.8,18.8-11.6,24
		c-6.7,4.4-14.6,5.8-19.4,6.6l-0.3,0.1c-9.6,1.7-187.4,35.4-196.1,37.2c-1.2,0.2-2.6,0.5-4,0.8c-7,1.5-18.6,3.9-22.7,3.9
		c-5.6,0-6.7-2.7-6.8-4.4c0.1-4.7,3.4-18.2,13.5-31c8.1-10.2,22.8-22.4,46.9-22.4c14.2,0,20.3,4.1,25.2,7.5
		c3.5,2.4,7.1,4.8,12.2,4.8c2.2,0,5.5-0.7,18.2-8.5c7.4-4.5,16.6-10.7,25.9-17.3c28.5-20.2,37.2-28.7,37.2-36.6
		c0-7.6-6.3-15.7-15.8-15.7c-10,0-27.7,3.8-35.9,12.1c-4.1,4.2-6.8,9-9.3,13.6c-2.3,4.1-4.4,8-7.3,10.7c-2.8,2.7-11.6,4.2-15.9,4.9
		c-0.9,0.1-1.8,0.3-2.7,0.5c-4.7,0.8-9.6,1.7-13.7,1.7c-9.8,0-14-9-14-13.6c0-5.4,3.8-11.9,11.3-19.2c12.5-12.2,18.7-17.7,35.2-21.3
		c32.2-7.1,82.8-17.5,89.3-17.5c4.9,0,7.9,5.6,7.9,8.5c0,7.2-6.1,20.4-11.4,32.1c-6.3,13.7-12.2,26.7-12.2,36.1
		c0,9.7,8.1,15,15.7,15c3.5,0,19.7-2.9,26.5-4.4l0.5-0.1c4.4-1,7.6-1.6,10.2-2.9c5.2-2.5,6.3-6.6,6.3-9.6c0-3.6-2.7-12.1-8.6-29.3
		c-2.3-6.8-5.2-15.3-5.6-17.5c0.1-2.4,1.6-11.2,3.8-19.9C265.2,61.6,269.2,59,274.8,59 M274.8,53c-11.7,0-16,9.4-18.8,20.3
		c-2.2,8.6-4,18.8-4,21.6c0,3.6,14.2,41,14.2,46.5c0,4.2-4,5-12.3,6.8c-8.3,1.8-22.9,4.3-25.3,4.3c-4.3,0-9.7-2.8-9.7-9
		c0-16.3,23.6-51.4,23.6-68.2c0-5.8-5.4-14.5-13.9-14.5c-8.6,0-72.3,13.7-90.6,17.7c-18.2,4-25.5,10.7-38.1,22.9
		c-7.2,7-13.1,15.2-13.1,23.5c0,8,6.9,19.6,20,19.6c5.5,0,11.6-1.2,17.4-2.2c8-1.4,15.3-2.9,19.1-6.5c6.9-6.7,9.6-17.2,16.7-24.4
		c6.6-6.7,22.2-10.4,31.7-10.4c4.4,0,9.8,3.7,9.8,9.7c0,6.5-16.8,19-34.7,31.7C148.9,155,129.9,167,126.1,167
		c-8.7,0-12-12.3-37.4-12.3c-49,0-66.4,46-66.4,59.5c0,1,0.8,10.3,12.8,10.3c5.5,0,19.9-3.2,27.9-4.9c8-1.7,186.4-35.5,195.9-37.1
		c9.5-1.7,36.3-5.9,36.3-36.6c0-18.1-1.4-38.7-3.2-55.9C289.9,68.9,287.4,53,274.8,53L274.8,53z"/>
</g>
</svg>
