<?xml version="1.0" encoding="utf-8"?>
<!-- Generator: Adobe Illustrator 27.2.0, SVG Export Plug-In . SVG Version: 6.00 Build 0)  -->
<svg version="1.1" id="Livello_1" xmlns="http://www.w3.org/2000/svg" xmlns:xlink="http://www.w3.org/1999/xlink" x="0px" y="0px"
	 viewBox="0 0 183.74 776.2" style="enable-background:new 0 0 183.74 776.2;" xml:space="preserve">
<style type="text/css">
	.st0{clip-path:url(#SVGID_00000101810285397339272080000009022867787502682270_);}
	.st1{clip-path:url(#SVGID_00000101810285397339272080000009022867787502682270_);fill:#FFFFFF;}
</style>
<g>
	<defs>
		
			<rect id="SVGID_1_" x="-318.51" y="265.26" transform="matrix(-1.836970e-16 1 -1 -1.836970e-16 477.027 272.1483)" width="841.89" height="218.66"/>
	</defs>
	<clipPath id="SVGID_00000099629594208178858650000009502855453940360622_">
		<use xlink:href="#SVGID_1_"  style="overflow:visible;"/>
	</clipPath>
	<path style="clip-path:url(#SVGID_00000099629594208178858650000009502855453940360622_);" d="M422.63,748.4
		c-9.8,0.23-19.6,0.69-29.39,0.5c-2.25-0.04-5.39-1.77-6.51-3.67c-3.64-6.2-6.53-12.84-10.42-20.76c11.03,0,20.7-0.3,30.32,0.24
		c2.01,0.11,4.28,3.01,5.68,5.12c3.66,5.48,6.9,11.24,10.31,16.89C422.63,747.28,422.63,747.84,422.63,748.4z"/>
	<path style="clip-path:url(#SVGID_00000099629594208178858650000009502855453940360622_);" d="M28.76,199.39
		c-9.59,0.02-19.18,0.03-28.76,0.05c0-8.42,0-16.84,0-25.26c9.63,0.13,19.25,0.26,28.88,0.39c0,0-0.2-0.23-0.2-0.23
		c-0.03,8.41-0.06,16.83-0.09,25.24L28.76,199.39z"/>
	<path style="clip-path:url(#SVGID_00000099629594208178858650000009502855453940360622_);" d="M69.72,23.36
		c-2.72,8.41-5.43,16.81-8.46,26.18c10.46,0,20.36,0,31.5,0c-3.28,8.59-6.11,16.03-9.43,24.73c10.96,0,20.82,0,32.01,0
		c-3.25,8.81-6.01,16.29-9.16,24.84c10.45,0,19.84,0,30.67,0c-2.89,8.15-5.14,15.2-8.02,22c-0.61,1.45-3.48,2.71-5.33,2.74
		c-8.66,0.13-17.33-0.21-26-0.37l0.24,0.31c2.42-7.66,4.84-15.32,7.76-24.6c-10.71,0-20.21,0-30.66,0
		c2.99-8.85,5.46-16.16,8.26-24.45c-11.66,0-22.2,0-32.74,0L50.64,75c2.98-8.02,5.96-16.05,9.44-25.39c-11.29,0-21.15,0-32.48,0
		c3.19-8.29,5.53-15.41,8.78-22.08c0.82-1.68,4.51-2.56,6.97-2.75c8.81-0.68,17.66-0.9,26.49-1.29
		C69.83,23.49,69.72,23.36,69.72,23.36z"/>
	<path style="clip-path:url(#SVGID_00000099629594208178858650000009502855453940360622_);" d="M325.22,501.07
		c1.59-7.92,3.19-15.84,5.01-24.92c-8.5,0-16.42,0-25.5,0c2.81-8.68,5.19-16.05,8.03-24.86c-8.61,0-16.46,0-25.87,0
		c3.8-9,6.9-16.33,10.58-25.03c-8.91,0-16.3,0-25.15,0c4.14-8.3,7.35-15.37,11.23-22.04c0.94-1.61,4.1-2.53,6.31-2.68
		c6.42-0.44,12.88-0.33,19.32-0.43l-0.23-0.15c-3.27,7.93-6.54,15.86-10.38,25.17c8.17,0,15.72,0,24.45,0
		c-3.49,8.75-6.36,15.95-9.79,24.55c8.77,0,16.61,0,25.76,0c-2.88,9.03-5.28,16.59-8.01,25.16c9.01,0,16.77,0,25.7,0
		c-1.84,8.73-3.48,16.5-5.28,24.99c-9.14,0-17.79,0-26.44,0C324.98,500.83,325.22,501.07,325.22,501.07z"/>
	<path style="clip-path:url(#SVGID_00000099629594208178858650000009502855453940360622_);" d="M353.62,674.34
		c8.96,0.07,17.92-0.02,26.86,0.32c2.22,0.08,5.55,0.91,6.39,2.47c3.67,6.8,6.61,13.99,10.32,22.14c-11.11,0-20.79,0-32.23,0
		c3.86,8.6,7.19,16.03,11.07,24.67c-11.11,0-21.25,0-33.1,0c3.83,8.89,7.04,16.33,10.79,25.03c-10.98,0-20.94,0.1-30.9-0.12
		c-1.3-0.03-3.15-1.45-3.76-2.71c-3.27-6.73-6.23-13.61-9.84-21.65c11.5,0,21.69,0,33.25,0c-3.52-8.79-6.55-16.36-9.96-24.88
		c10.98,0,20.7,0,31.74,0c-3.71-9.17-7.03-17.36-10.36-25.55C353.89,674.06,353.62,674.34,353.62,674.34z"/>
	<path style="clip-path:url(#SVGID_00000099629594208178858650000009502855453940360622_);" d="M69.83,23.49
		c3.01-5.9,6.35-11.67,8.93-17.76c1.77-4.17,3.94-6.12,8.72-5.91c8.63,0.38,17.29,0.11,27.56,0.11c-3.73,8.59-6.95,16.01-10.7,24.65
		c11.24,0,21.39,0,33.04,0c-3.88,8.85-7.17,16.36-10.88,24.84c10.84,0,20.52,0,32.22,0c-3.92,8.45-7.09,15.71-10.72,22.74
		c-0.66,1.28-3.16,2.21-4.84,2.25c-8.66,0.22-17.33,0.1-27.49,0.1c3.26-8.39,6.21-15.95,9.65-24.79c-10.87,0-20.7,0-31.91,0
		c3.67-8.75,6.75-16.1,10.16-24.24c-11.92-0.73-22.86-1.4-33.82-2.09C69.72,23.36,69.83,23.49,69.83,23.49z"/>
	<path style="clip-path:url(#SVGID_00000099629594208178858650000009502855453940360622_);" d="M297.18,501.57
		c9.35-0.17,18.69-0.34,28.04-0.51c0,0-0.24-0.23-0.24-0.23c-0.74,7.97-1.48,15.93-2.31,24.92c9.28,0,17.53,0,26.52,0
		c0,8.34,0,15.75,0,24.3c-8.25,0-16.73,0-26.44,0c0.76,9.12,1.42,17.04,2.08,24.97l0.23-0.19c-9.62,0-19.23,0-28.85-0.01l0.24,0.23
		c-0.56-8.51-1.12-17.02-1.69-25.53l-0.23,0.26c8.85,0,17.71,0,27.03,0c0-7.85,0-15.28,0-23.7c-8.39,0-16.62,0-25.65,0
		c0.53-8.91,1-16.82,1.47-24.72L297.18,501.57z"/>
	<path style="clip-path:url(#SVGID_00000099629594208178858650000009502855453940360622_);" d="M383.84,277.05
		c-2.38,7.65-4.75,15.31-7.42,23.9c6.6,0.33,12.05,0.6,18.54,0.92c-1.96,7.98-3.79,15.41-5.93,24.12c6.76,0,12.95,0,20.27,0
		c-2.09,8.1-3.59,14.87-5.71,21.44c-0.5,1.54-3.01,3.3-4.71,3.43c-5.8,0.42-11.64,0.16-18.34,0.16c2.63-8.53,4.97-16.13,7.64-24.76
		c-6.99,0-12.76,0-19.93,0c2.73-8.57,5.12-16.06,7.76-24.32c-6.25-0.35-11.68-0.65-18.14-1.01c2.85-8.1,5.4-15.37,8.35-23.75
		c-5.57-0.35-10.34-0.65-16.17-1.02c2.98-7.66,4.6-15.42,8.84-21.29c2.24-3.1,9.03-2.91,15.8-4.77
		c-2.89,10.04-5.07,17.64-7.45,25.91c6.01,0.48,11.45,0.91,16.89,1.34L383.84,277.05z"/>
	<path style="clip-path:url(#SVGID_00000099629594208178858650000009502855453940360622_);" d="M320.92,673.57
		c3.43,8.16,6.86,16.31,10.83,25.75c-11.35,0-21.25,0-32.44,0c3.4,8.61,6.32,16.02,9.85,24.95c-10.93,0-20.55,0.14-30.17-0.14
		c-1.49-0.04-3.65-1.67-4.26-3.1c-2.82-6.6-5.21-13.39-8.26-21.46c11.3,0,21.16,0,32.13,0c-2.96-8.74-5.51-16.25-8.74-25.77
		c11.47,0,21.4,0,31.34,0C321.18,673.81,320.92,673.57,320.92,673.57z"/>
	<path style="clip-path:url(#SVGID_00000099629594208178858650000009502855453940360622_);" d="M370.6,376.17
		c-7.47,0-14.95,0-23.56,0c3.57-8.48,6.77-16.09,10.43-24.77c-7.42,0-13.94,0-22.17,0c3.92-8.75,7.24-16.16,11.15-24.9
		c-6.94,0-12.63,0-18.49,0c3.81-21.58,10.66-27.27,29.01-23.99c-3.11,7.53-6.15,14.89-9.75,23.61c7.14,0,13.08,0,20.28,0
		c-3.4,8.81-6.27,16.26-9.63,24.98c7.42,0,13.9,0,22.46,0c-3.73,9.47-6.82,17.35-9.92,25.22L370.6,376.17z"/>
	<path style="clip-path:url(#SVGID_00000099629594208178858650000009502855453940360622_);" d="M37.2,123.71
		c1.72-7.59,3.44-15.18,5.47-24.16c-10.17,0-19.68,0-30.61,0c2.35-8.2,3.98-14.92,6.35-21.38c0.6-1.64,3.52-3.4,5.42-3.44
		C32.76,74.5,41.7,74.85,50.64,75c0,0-0.26-0.27-0.26-0.27C48.34,82.66,46.3,90.6,44,99.55c10.43,0,19.85,0,30.22,0
		c-2.52,8.74-4.75,16.47-6.98,24.2l0.24-0.2c-10.17-0.01-20.34-0.01-30.52-0.02C36.95,123.52,37.2,123.71,37.2,123.71z"/>
	<path style="clip-path:url(#SVGID_00000099629594208178858650000009502855453940360622_);" d="M306.37,625.43
		c2,7.55,4.01,15.11,6.36,23.99c-10.13,0-19.68,0-30.52,0c2.69,8.88,4.92,16.26,7.58,25.04c-10.14,0-19.49,0.19-28.81-0.19
		c-1.48-0.06-3.59-2.4-4.17-4.1c-2.07-6.08-3.6-12.34-5.73-19.94c10.15,0,19.7,0,30.32,0c-1.9-9.25-3.5-17.03-5.1-24.81l-0.24,0.17
		c10.18,0,20.36,0.01,30.54,0.01L306.37,625.43z"/>
	<path style="clip-path:url(#SVGID_00000099629594208178858650000009502855453940360622_);" d="M321.18,673.81
		c-2.25-7.44-4.49-14.88-7.19-23.82c10.14,0,19.66,0,30.27,0c-2.78-9-5.06-16.39-7.68-24.9c9.51,0,18.11-0.14,26.7,0.13
		c1.53,0.05,3.81,1.51,4.38,2.89c2.77,6.66,5.07,13.51,8,21.58c-10.64,0-20.01,0-30.53,0c3.11,9.05,5.79,16.86,8.47,24.66
		c0.01,0,0.28-0.29,0.28-0.29c-10.98-0.15-21.96-0.3-32.96-0.47C320.92,673.57,321.18,673.81,321.18,673.81z"/>
	<path style="clip-path:url(#SVGID_00000099629594208178858650000009502855453940360622_);" d="M146.54,546.16
		c-8.1,2.74-12.63,0.23-13.73-8.62c-0.57-4.65-2.26-9.15-3.63-14.45c4.29-0.51,7.99-0.95,12.53-1.49
		c-1.93-7.96-3.74-15.46-5.71-23.58c5.02-0.4,9.34-0.74,14.62-1.15c-1.94-8.61-3.77-16.72-5.59-24.82l-0.33,0.31
		c5.47,0,10.94,0,16.95,0c-1.79-9.24-3.37-17.4-4.95-25.55l-0.2,0.26c0.27,0.08,0.53,0.2,0.8,0.22c20.48,1.54,21.3,2.49,20.68,24.94
		c-4.79,0-9.65,0-15.93,0c1.66,9.26,3.11,17.32,4.55,25.39l0.23-0.23c-4.95,0-9.9,0-15.46,0c1.22,9.18,2.3,17.36,3.38,25.53
		l0.23-0.28c-3.99,0-7.97,0-12.35,0c1.35,8.62,2.54,16.2,3.72,23.77L146.54,546.16z"/>
	<path style="clip-path:url(#SVGID_00000099629594208178858650000009502855453940360622_);" d="M276.31,625.43
		c-8.38-0.13-16.76-0.48-25.14-0.31c-4.55,0.1-6.6-1.49-7.04-6.06c-0.59-6.02-1.68-11.99-2.68-18.85c9.75,0,18.6,0,28.52,0
		c-0.75-9.03-1.43-17.23-2.11-25.43c0,0-0.25,0.26-0.25,0.26c9.62,0,19.24,0,28.86,0c0,0-0.24-0.23-0.24-0.23
		c1.16,8.15,2.32,16.3,3.61,25.4c-10.07,0-19.16,0-29.06,0c1.9,9.11,3.6,17.25,5.3,25.39L276.31,625.43z"/>
	<path style="clip-path:url(#SVGID_00000099629594208178858650000009502855453940360622_);" d="M145.03,472.04
		c-5.75,0.03-11.49,0.06-17.24,0.09l0.18,0.15c-2.93-7.74-5.87-15.49-9.17-24.2c6.66-0.34,12.08-0.61,18.58-0.94
		c-2.71-8.17-5.15-15.49-7.97-23.98c6.84,0,12.8,0,20.13,0c-2.74-8.86-5.09-16.44-7.77-25.11c6.79,0,12.6-0.26,18.36,0.16
		c1.68,0.12,4.17,1.86,4.66,3.38c2.12,6.56,3.64,13.31,5.68,21.14c-7.04,0-13.04,0-20.31,0c2.32,8.91,4.33,16.61,6.34,24.32
		c0,0,0.2-0.26,0.2-0.26c-5.95,0.43-11.9,0.86-18.7,1.36c2.34,8.44,4.52,16.32,6.7,24.19C144.7,472.35,145.03,472.04,145.03,472.04z
		"/>
	<path style="clip-path:url(#SVGID_00000099629594208178858650000009502855453940360622_);" d="M267.86,574.79
		c-9.17,0-18.33,0-28.2,0c0-7.84,0-15.48,0-24.12c8.43,0,16.96,0,27.2,0c0-8.54,0-16.15,0-23.77l-0.19,0.13
		c9.02-0.61,18.04-1.21,27.89-1.88c0,9.15,0,16.89,0,24.62c0,0,0.23-0.26,0.23-0.26c-9.11,0.49-18.22,0.98-27.17,1.46
		c0,8.47,0,16.27,0,24.08L267.86,574.79z"/>
	<path style="clip-path:url(#SVGID_00000099629594208178858650000009502855453940360622_);" d="M85.69,248.41
		c8.65,0,17.31,0,26.92,0c1.74,7.91,3.45,15.66,5.42,24.61c-8.8,0-16.73,0-25.91,0c2.81,8.64,5.19,15.97,7.92,24.4
		c-9.22,0.48-17.69,0.92-26.16,1.36c0,0,0.2,0.17,0.2,0.17c-2.73-8.5-5.46-17-8.18-25.5c0,0-0.33,0.23-0.33,0.23
		c8.3,0,16.59,0,26.29,0c-2.18-9.45-4.03-17.49-5.89-25.53L85.69,248.41z"/>
	<path style="clip-path:url(#SVGID_00000099629594208178858650000009502855453940360622_);" d="M297.4,501.37c-8.05,0-16.1,0-25.5,0
		c2.06-9.13,3.79-16.82,5.72-25.39c-8.59,0-16.33,0-25.45,0c2.88-8.06,5.21-15.09,7.99-21.94c0.55-1.36,2.83-2.78,4.37-2.85
		c6.93-0.3,13.88-0.13,22.18-0.13c-2.8,8.51-5.27,16-8.11,24.62c8.78,0,16.46,0,25.88,0c-2.66,9.46-4.97,17.67-7.29,25.88
		C297.18,501.57,297.4,501.37,297.4,501.37z"/>
	<path style="clip-path:url(#SVGID_00000099629594208178858650000009502855453940360622_);" d="M65.9,273.45c-8.34,0-16.68,0-26.1,0
		c2.81,8.26,5.3,15.58,8.34,24.54c-8.35,0-15.75,0.19-23.12-0.17c-1.41-0.07-3.33-2.04-3.95-3.56c-2.62-6.43-4.85-13.02-7.63-20.68
		c8.76,0,16.45,0,25.5,0c-1.99-8.8-3.74-16.5-5.71-25.18c9.07,0,17.39,0,25.7,0l-0.18-0.23c2.27,8.5,4.54,17.01,6.82,25.51
		L65.9,273.45z"/>
	<path style="clip-path:url(#SVGID_00000099629594208178858650000009502855453940360622_);" d="M28.58,199.58
		c8.58-0.38,17.15-0.76,26.54-1.18c0,8.69,0,16.33,0,25c-8.24,0-16.47,0-25.54,0c1.08,8.51,2.03,15.92,3.16,24.77
		c-8.25,0-15.91,0.18-23.54-0.18c-1.23-0.06-3.08-2.33-3.4-3.85c-1.39-6.5-2.31-13.09-3.58-20.72c9.11,0,17.35,0,26.54,0
		c0-8.64,0-16.34,0-24.04C28.76,199.39,28.58,199.58,28.58,199.58z"/>
	<path style="clip-path:url(#SVGID_00000099629594208178858650000009502855453940360622_);" d="M69.64,348.33
		c-1.36-0.22-2.72-0.6-4.09-0.64c-21.81-0.54-23.91-2.15-30.89-24.67c7.62,0,15.01,0,23.93,0c-3.52-8.65-6.51-15.99-9.81-24.09
		c8.97,0,17.14,0,25.3,0c0,0-0.2-0.17-0.2-0.17c3.39,7.56,6.78,15.12,10.8,24.07c-9.02,0-16.41,0-24.35,0
		c3.28,9.22,6.19,17.4,9.14,25.56C69.51,348.39,69.64,348.33,69.64,348.33z"/>
	<path style="clip-path:url(#SVGID_00000099629594208178858650000009502855453940360622_);" d="M96.03,347.72
		c-3.46-7.83-6.92-15.66-10.92-24.71c8.6,0,15.98,0,24.82,0c-3.26-8.63-6.05-16-9.37-24.79c8.34,0,15.71-0.14,23.06,0.13
		c1.28,0.05,3.12,1.52,3.66,2.78c2.83,6.61,5.33,13.36,8.5,21.47c-8.79,0-16.35,0-25.08,0c3.82,9.31,7.07,17.23,10.31,25.15
		c0,0,0.32-0.26,0.32-0.26c-8.49,0.02-16.98,0.04-25.48,0.06C95.86,347.55,96.03,347.72,96.03,347.72z"/>
	<path style="clip-path:url(#SVGID_00000099629594208178858650000009502855453940360622_);" d="M334.85,401.65
		c7.79,0,15.57,0,24.59,0c-3.28,8.16-6.24,15.54-9.76,24.3c8.33,0,15.9,0,25.12,0c-3.42,8.57-6.06,15.55-9.05,22.37
		c-0.52,1.19-2.51,2.39-3.86,2.44c-7.15,0.24-14.31,0.11-22.62,0.11c3.27-8.5,6.04-15.71,9.25-24.03c-8.12,0-15.46,0-25.21,0
		c4.42-9.55,8.08-17.45,11.74-25.35C335.04,401.48,334.85,401.65,334.85,401.65z"/>
	<path style="clip-path:url(#SVGID_00000099629594208178858650000009502855453940360622_);" d="M107.84,372.72
		c-7.46,0-14.91,0-23.66,0c4.06,8.43,7.54,15.66,11.02,22.9c-16.81,6.29-24.78,1.13-34.15-22.54c7.08,0,13.84,0,23.39,0
		c-5.65-9.53-10.17-17.17-14.74-24.78c-0.05,0.03-0.18,0.08-0.22,0.1c8.83-0.22,17.69-0.45,26.56-0.69c0,0-0.17-0.17-0.17-0.17
		c3.94,8.49,7.89,16.98,11.83,25.47L107.84,372.72z"/>
	<path style="clip-path:url(#SVGID_00000099629594208178858650000009502855453940360622_);" d="M120.17,398.75
		c-4.11-8.67-8.22-17.35-12.33-26.02c0,0-0.15,0.3-0.15,0.3c7.57,0,15.13,0,23.9,0c-3.92-9.75-7.08-17.64-10.25-25.53
		c0,0-0.32,0.26-0.32,0.26c2.23-0.03,4.46-0.07,6.69-0.08c20.18-0.09,23.31,2.76,26.59,24.86c-6.95,0-13.81,0-22.19,0
		c3.13,8.5,5.85,15.89,8.86,24.05c-7.57,0.7-14.31,1.32-21.05,1.95C119.91,398.52,120.17,398.75,120.17,398.75z"/>
	<path style="clip-path:url(#SVGID_00000099629594208178858650000009502855453940360622_);" d="M309.2,401.11
		c4.19-7.75,8.39-15.49,13.35-24.67c-8.62,0-15.44,0-23.97,0c4.71-8.39,8.22-15.69,12.83-22.2c1.41-1.98,5.85-2.19,8.97-2.49
		c4.11-0.4,8.28-0.1,14.1-0.1c-4.01,8.65-7.45,16.05-11.36,24.48c7.73,0,14.55,0,22.94,0c-4.1,9.34-7.66,17.43-11.21,25.51
		c0,0,0.19-0.17,0.19-0.16c-8.67-0.16-17.35-0.32-26.04-0.51C308.97,400.96,309.2,401.11,309.2,401.11z"/>
	<path style="clip-path:url(#SVGID_00000099629594208178858650000009502855453940360622_);" d="M119.91,398.52
		c2.64,7.58,5.27,15.17,8.3,23.88c-6.35,0.33-12.26,0.64-19.39,1.02c3.21,8,6.15,15.36,9.12,22.77
		c-17.13,4.22-22.97-0.42-29.04-23.15c5.95,0,11.68,0,18.94,0c-2.17-4.93-3.78-8.64-5.45-12.32c-1.69-3.74-3.44-7.46-5.53-11.98
		c8.54,0,15.91,0,23.3,0.01C120.17,398.75,119.91,398.52,119.91,398.52z"/>
	<path style="clip-path:url(#SVGID_00000099629594208178858650000009502855453940360622_);" d="M183.74-0.02
		c-4.4,8.37-7.85,15.29-11.7,21.97c-0.77,1.35-3.05,2.53-4.66,2.57c-9.45,0.24-18.9,0.12-29.75,0.12
		c3.91-8.01,7.13-15.02,10.78-21.8c0.74-1.38,3.02-2.7,4.62-2.74C162.69-0.15,172.36-0.02,183.74-0.02z"/>
	<path style="clip-path:url(#SVGID_00000099629594208178858650000009502855453940360622_);" d="M384.11,277.34
		c1.66-8.16,3.32-16.32,5.11-25.1c-4.92-0.39-9.26-0.73-14.25-1.12c1.91-8.58,3.72-16.72,5.53-24.85l-0.18,0.16
		c4.59,0.02,9.18,0.04,13.77,0.06l-0.21-0.28c-1.25,8.17-2.49,16.34-3.9,25.55c5.38,0,9.79,0,14.21,0l-0.3-0.26
		c-1.15,8.58-2.29,17.17-3.44,25.75l0.22-0.21c-5.61,0-11.22-0.01-16.83-0.01C383.84,277.05,384.11,277.34,384.11,277.34z"/>
	<path style="clip-path:url(#SVGID_00000099629594208178858650000009502855453940360622_);" d="M97.52,123.46
		c-2.22,8.51-4.44,17.03-6.66,25.54c0,0,0.16-0.16,0.16-0.16c-9.44,0-18.88,0-29.2,0c2.03-9.06,3.84-17.18,5.65-25.3l-0.24,0.2
		c10.18,0.01,20.35,0.02,30.53,0.03L97.52,123.46z"/>
	<path style="clip-path:url(#SVGID_00000099629594208178858650000009502855453940360622_);" d="M32.1,148.82
		c-9.39,0-18.79,0-29.49,0c1.19-7.59,1.89-14.42,3.55-21c0.42-1.67,3.88-3.49,6.05-3.62c8.31-0.52,16.66-0.38,24.99-0.49
		c0,0-0.25-0.19-0.25-0.19c-1.69,8.49-3.38,16.99-5.06,25.48L32.1,148.82z"/>
	<path style="clip-path:url(#SVGID_00000099629594208178858650000009502855453940360622_);" d="M329.97,600.14
		c2.02,7.94,4.05,15.88,6.45,25.3c-10.84,0-20.45,0-30.05,0c0,0,0.24,0.18,0.24,0.18c-1.99-8.18-3.97-16.36-6.15-25.32
		c10.9,0,20.28,0,29.67,0C330.13,600.29,329.97,600.14,329.97,600.14z"/>
	<path style="clip-path:url(#SVGID_00000099629594208178858650000009502855453940360622_);" d="M324.84,575.02
		c7.85,0.06,15.73-0.24,23.53,0.4c2.23,0.18,5.44,2.68,6.13,4.8c1.99,6.05,2.91,12.46,4.51,19.91c-10.2,0-19.62,0-29.04,0
		c0,0,0.16,0.15,0.16,0.15c-1.69-8.49-3.37-16.98-5.06-25.47C325.07,574.83,324.84,575.02,324.84,575.02z"/>
	<path style="clip-path:url(#SVGID_00000099629594208178858650000009502855453940360622_);" d="M28.88,174.56
		c1.07-8.58,2.15-17.16,3.22-25.74c0,0-0.21,0.18-0.21,0.18c9.39,0,18.77,0,29.38,0c-1.49,9.08-2.83,17.2-4.17,25.31
		c0,0,0.21-0.24,0.21-0.24c-9.55,0.08-19.1,0.17-28.65,0.26C28.67,174.33,28.88,174.56,28.88,174.56z"/>
	<path style="clip-path:url(#SVGID_00000099629594208178858650000009502855453940360622_);" d="M90.86,149c9.45,0,18.89,0,29.35,0
		c-1.67,7.73-2.77,14.6-4.83,21.16c-0.54,1.73-3.99,3.45-6.21,3.59c-7.79,0.48-15.63,0.28-23.45,0.33l0.23,0.23
		c1.68-8.49,3.37-16.98,5.05-25.47L90.86,149z"/>
	<path style="clip-path:url(#SVGID_00000099629594208178858650000009502855453940360622_);" d="M85.73,174.07
		c-0.52,8.5-1.05,17-1.57,25.5c0,0,0.18-0.19,0.18-0.19c-9.12,0-18.23,0-28.22,0c0.44-9.44,0.82-17.38,1.19-25.32
		c0,0-0.21,0.24-0.21,0.24c9.62,0,19.24,0,28.86-0.01C85.96,174.3,85.73,174.07,85.73,174.07z"/>
	<path style="clip-path:url(#SVGID_00000099629594208178858650000009502855453940360622_);" d="M266.86,526.91
		c-8.22-0.63-16.45-1.26-25.74-1.98c1.14-6.93,2.02-13.74,3.53-20.4c0.34-1.51,2.85-3.49,4.45-3.57c7.19-0.39,14.41-0.17,23.12-0.17
		c-2,9.51-3.75,17.86-5.53,26.23C266.66,527.04,266.86,526.91,266.86,526.91z"/>
	<path style="clip-path:url(#SVGID_00000099629594208178858650000009502855453940360622_);" d="M58.93,248.4
		c-0.62-8.01-1.23-16.02-1.94-25.31c9.59,0,18.49,0,27.4,0l-0.18-0.16c0.5,8.49,0.99,16.99,1.49,25.48c0,0,0.27-0.27,0.27-0.27
		c-9.07,0.01-18.14,0.02-27.21,0.02L58.93,248.4z"/>
	<path style="clip-path:url(#SVGID_00000099629594208178858650000009502855453940360622_);" d="M84.38,223.09
		c-0.01-7.9-0.03-15.81-0.04-23.71c0,0-0.18,0.19-0.18,0.19c8.58-0.4,17.16-0.81,26.35-1.24c0,8.63,0,16.25,0,24.6
		c-9.19,0-17.75,0-26.31,0C84.2,222.93,84.38,223.09,84.38,223.09z"/>
	<path style="clip-path:url(#SVGID_00000099629594208178858650000009502855453940360622_);" d="M370.4,376.32
		c7.53,0,15.05,0,24.03,0c-3.09,8.06-5.55,15.1-8.57,21.89c-0.67,1.5-3.24,2.93-5.01,3.03c-6.4,0.36-12.83,0.14-20.92,0.14
		c3.83-9.06,7.25-17.14,10.67-25.22C370.6,376.17,370.4,376.32,370.4,376.32z"/>
	<path style="clip-path:url(#SVGID_00000099629594208178858650000009502855453940360622_);" d="M153.08,670.72
		c0.25-5.56,0.57-11.11,0.71-16.67c0.08-3.35,1.66-7.34-4.06-8.35c-1.01-0.18-1.68-4.22-1.92-6.54c-0.54-5.23-0.72-10.5-1.08-16.33
		c5.9-0.64,7.73-3.75,6.95-9.45c-0.75-5.46-0.25-11.09-0.29-16.64l-0.26,0.22c2.88,0,5.76,0,8.64,0l-0.24-0.24
		c0.01,8.5,0.02,17,0.02,25.5l0.21-0.21c-2.48,0.9-6.98,1.57-7.11,2.74c-0.69,6.04-0.54,12.24,0.02,18.32
		c0.1,1.06,3.52,1.81,5.4,2.71c0,0-0.26-0.29-0.26-0.29c-0.55,8.51-1.11,17.03-1.66,25.54l0.22-0.24c-1.85-0.12-3.7-0.25-5.54-0.36
		C152.83,670.45,153.08,670.72,153.08,670.72z"/>
	<path style="clip-path:url(#SVGID_00000099629594208178858650000009502855453940360622_);" d="M153.39,596.74
		c-2.76,0-5.52,0-9.07,0c-1.23-8.2-2.36-15.82-3.56-23.84c3.34-0.71,5.95-1.26,9.58-2.03c-1.28-8.36-2.54-16.54-3.8-24.72
		c0,0-0.17,0.25-0.17,0.25c4.01,0,8.01,0,12.02,0.01c0,0-0.25-0.25-0.25-0.25c0.56,8.51,1.12,17.01,1.68,25.52
		c0,0,0.21-0.23,0.21-0.23c-2.89,0.34-5.79,0.69-9.32,1.1c0.84,8.57,1.62,16.49,2.4,24.41L153.39,596.74z"/>
	<path style="clip-path:url(#SVGID_00000099629594208178858650000009502855453940360622_);" d="M169.94,546.4
		c3.56,0.33,7.13,0.66,11.91,1.11c-0.39,7.91-0.77,15.55-1.17,23.51c-3.31,0.48-6,0.87-10.74,1.56c0,7.92,0,16.15,0,24.39l0.23-0.23
		c-2.88,0-5.76,0-8.64-0.01c0,0,0.24,0.24,0.24,0.24c-0.58-8.5-1.15-17.01-1.73-25.51l-0.21,0.23c3.24,0,6.49,0,10.34,0
		c0-9.02,0-17.26,0-25.5C170.16,546.18,169.94,546.4,169.94,546.4z"/>
	<path style="clip-path:url(#SVGID_00000099629594208178858650000009502855453940360622_);" d="M400.45,277.25
		c5.45,0,10.9,0,17.08,0c-0.98,7.02-1.6,13.61-2.99,20.04c-0.36,1.65-3.01,3.72-4.83,3.96c-4.33,0.58-8.78,0.19-14.35,0.19
		c1.93-8.84,3.62-16.62,5.31-24.4C400.67,277.05,400.45,277.25,400.45,277.25z"/>
	<path style="clip-path:url(#SVGID_00000099629594208178858650000009502855453940360622_);" d="M127.79,472.13
		c2.52,7.89,5.04,15.78,7.57,23.69c-12.75,3.59-14.21,2.92-18.5-8.22c-1.77-4.6-3.39-9.27-5.6-15.32c6.35,0,11.53,0,16.72,0
		C127.97,472.28,127.79,472.13,127.79,472.13z"/>
	<path style="clip-path:url(#SVGID_00000099629594208178858650000009502855453940360622_);" d="M166.6,497.61c4.43,0,8.86,0,14.24,0
		c0,8.05,0,15.7,0,24.14c-3.87,0.29-8.23,0.62-12.58,0.94l0.19,0.15c-0.54-8.49-1.08-16.98-1.62-25.47L166.6,497.61z"/>
	<path style="clip-path:url(#SVGID_00000099629594208178858650000009502855453940360622_);" d="M407.38,226.46
		c4.12,0.26,8.25,0.52,13.46,0.84c-0.41,8.22-0.79,15.87-1.2,24.19c-5.8,0-10.78,0-15.75,0c0,0,0.3,0.26,0.3,0.26
		c1.14-8.5,2.27-17.01,3.41-25.51C407.6,226.25,407.38,226.46,407.38,226.46z"/>
	<path style="clip-path:url(#SVGID_00000099629594208178858650000009502855453940360622_);" d="M392.39,126.89
		c-4.26,1.11-7.83,0.56-6.56-4.91c1.6-6.93-3.62-15.82,6.09-20.76c1.33-0.68,0.5-5.77,0.54-8.83c0.06-4.76,0.02-9.51,0.01-14.27
		c0,0-0.25,0.19-0.25,0.19c1.76,0,3.51,0,5.27,0l-0.24-0.23c0.56,8.51,1.12,17.02,1.68,25.53l0.23-0.26
		c-4.13-1.31-6.36-0.27-6.36,4.53c0,6.4-0.39,12.81-0.61,19.21L392.39,126.89z"/>
	<path style="clip-path:url(#SVGID_00000099629594208178858650000009502855453940360622_);" d="M380.5,226.27
		c-3.82,0-7.64,0-12.64,0c2.02-7.56,3.12-14.79,6.09-21.15c1.1-2.36,6.57-2.68,12.33-4.75c-2.43,10.61-4.19,18.33-5.96,26.05
		C380.32,226.43,380.5,226.27,380.5,226.27z"/>
	<path style="clip-path:url(#SVGID_00000099629594208178858650000009502855453940360622_);" d="M394.09,226.49
		c1.13-7.9,2.27-15.8,3.4-23.69c0,0-0.23,0.15-0.23,0.15c4.01,0.01,8.02,0.02,12.02,0.04l-0.26-0.16
		c-0.55,7.88-1.11,15.76-1.66,23.64c0,0,0.22-0.22,0.22-0.22c-4.57-0.01-9.14-0.02-13.71-0.03
		C393.88,226.21,394.09,226.49,394.09,226.49z"/>
	<path style="clip-path:url(#SVGID_00000099629594208178858650000009502855453940360622_);" d="M168.26,522.7
		c0.56,7.9,1.12,15.81,1.68,23.71c0,0,0.22-0.22,0.22-0.22c-4.01-0.01-8.01-0.01-12.02-0.02l0.25,0.25
		c-1.13-7.93-2.27-15.85-3.4-23.78l-0.23,0.28c4.57-0.02,9.13-0.04,13.7-0.07C168.45,522.85,168.26,522.7,168.26,522.7z"/>
	<path style="clip-path:url(#SVGID_00000099629594208178858650000009502855453940360622_);" d="M409.02,177.7
		c3.02-0.14,6.03-0.29,10.18-0.49c0.5,8.03,0.97,15.64,1.49,24.02c-4.23,0.58-7.94,1.08-11.65,1.59c0,0,0.25,0.16,0.25,0.16
		c-0.01-8.51-0.01-17.03-0.02-25.54L409.02,177.7z"/>
	<path style="clip-path:url(#SVGID_00000099629594208178858650000009502855453940360622_);" d="M387.99,178.42
		c3.71-0.24,7.42-0.48,11.14-0.72c0,0-0.2-0.25-0.2-0.25c-0.55,8.5-1.11,17-1.66,25.51c0,0,0.23-0.15,0.23-0.15
		c-3.55-0.46-7.11-0.93-11.08-1.44c0.6-7.83,1.18-15.45,1.76-23.08C388.18,178.27,387.99,178.42,387.99,178.42z"/>
	<path style="clip-path:url(#SVGID_00000099629594208178858650000009502855453940360622_);" d="M409.06,152.17
		c-0.02,8.51-0.03,17.02-0.05,25.53c0,0,0.25-0.26,0.25-0.26c-3.45,0-6.89,0-10.34,0c0,0,0.2,0.25,0.2,0.25
		c0.6-8.52,1.19-17.03,1.79-25.55c0,0-0.28,0.25-0.28,0.25c2.88-0.01,5.76-0.01,8.64-0.02L409.06,152.17z"/>
	<path style="clip-path:url(#SVGID_00000099629594208178858650000009502855453940360622_);" d="M388.18,178.27
		c-2.59-0.58-5.18-1.17-8.52-1.92c0.96-6.97,1.45-13.87,3.11-20.49c0.47-1.88,4.37-2.9,6.7-4.31c0.79,0.6,1.57,1.21,2.36,1.81
		c-1.27,8.34-2.53,16.68-3.82,25.03C387.99,178.42,388.18,178.27,388.18,178.27z"/>
	<path style="clip-path:url(#SVGID_00000099629594208178858650000009502855453940360622_);" d="M148.37,745.26
		c1-16.29,2-32.58,3-48.87c0,0-0.23,0.23-0.23,0.23c1.3,1.62,3.79,3.3,3.71,4.84c-0.7,13.34-1.81,26.65-2.9,39.97
		c-0.75,9.15-1.68,18.28-2.53,27.42c-0.96-0.13-1.92-0.27-2.88-0.4c1.05-5.16,2.45-10.29,3.02-15.5c0.28-2.58-0.94-5.33-1.48-8.01
		L148.37,745.26z"/>
	<path style="clip-path:url(#SVGID_00000099629594208178858650000009502855453940360622_);" d="M400.92,152.15c-2.7,0-5.4,0-8.53,0
		c0-8.84,0-17.05,0-25.26c0,0-0.19,0.22-0.19,0.22c2.42,0.28,4.84,0.57,8.44,0.99c0,8.29,0,16.3,0,24.31L400.92,152.15z"/>
	<path style="clip-path:url(#SVGID_00000099629594208178858650000009502855453940360622_);" d="M407.38,127.12
		c5.83-0.44,8.53,1.95,8.48,8.1c-0.05,5.21,0.91,10.43,1.54,16.95c-3.1,0-5.72,0-8.33,0c0,0,0.22,0.22,0.22,0.22
		c-0.56-8.5-1.13-17.01-1.69-25.51L407.38,127.12z"/>
	<path style="clip-path:url(#SVGID_00000099629594208178858650000009502855453940360622_);" d="M169.94,596.97c2.45,0,4.9,0,8.56,0
		c-0.72,7.42-0.88,14.53-2.42,21.32c-0.4,1.75-5.11,2.52-7.84,3.74l0.22,0.21c0.57-8.5,1.14-17,1.71-25.5L169.94,596.97z"/>
	<path style="clip-path:url(#SVGID_00000099629594208178858650000009502855453940360622_);" d="M405.7,103.46
		c0.56,7.89,1.12,15.77,1.68,23.66c0,0,0.22-0.24,0.22-0.24c-5.31,1.57-7.8-0.09-7.7-5.94c0.1-5.85-0.45-11.72-0.72-17.58
		c0,0-0.23,0.26-0.23,0.26c2.33,0,4.67,0,7-0.01L405.7,103.46z"/>
	<path style="clip-path:url(#SVGID_00000099629594208178858650000009502855453940360622_);" d="M168.24,622.02
		c-0.55,7.88-1.1,15.77-1.65,23.65l0.23-0.15c-2.33-0.01-4.67-0.02-7-0.03c0,0,0.26,0.29,0.26,0.29c0.56-7.92,1.13-15.84,1.69-23.76
		c0,0-0.21,0.21-0.21,0.21c2.3,0,4.61,0,6.91,0C168.46,622.24,168.24,622.02,168.24,622.02z"/>
	<path style="clip-path:url(#SVGID_00000099629594208178858650000009502855453940360622_);" d="M148.09,744.94
		c-1.39,10.43-2.79,20.86-4.18,31.29c-0.34-0.01-0.69-0.02-1.03-0.02c0.83-18.1,1.66-36.21,2.49-54.31c1.07,0.06,2.13,0.12,3.2,0.19
		c-0.53,4.75-1.35,9.5-1.49,14.26c-0.09,2.95,0.83,5.94,1.3,8.91C148.37,745.26,148.09,744.94,148.09,744.94z"/>
	<path style="clip-path:url(#SVGID_00000099629594208178858650000009502855453940360622_);" d="M402.3,78.36
		c1.82,0.67,5,1.02,5.25,2.06c1.49,6.22,2.6,12.58,3.07,18.95c0.09,1.24-3.19,2.72-4.92,4.09c0,0,0.24,0.15,0.24,0.15
		c-1.13-8.51-2.27-17.02-3.4-25.54L402.3,78.36z"/>
	<path style="clip-path:url(#SVGID_00000099629594208178858650000009502855453940360622_);" d="M166.59,645.68
		c4.24,0.51,6.32,2.38,5.24,7.08c-1.05,4.57-1.01,9.44-2.52,13.81c-0.65,1.88-4.02,2.82-6.16,4.19l0.28,0.3
		c1.13-8.51,2.26-17.02,3.39-25.53L166.59,645.68z"/>
	<path style="clip-path:url(#SVGID_00000099629594208178858650000009502855453940360622_);" d="M387.16,27.58
		c-1.59-6.27-4.05-12.47-4.56-18.82c-0.78-9.76-0.2-19.63-0.2-29.06c5.58,15.18,2.61,31.92,4.55,48.08
		C386.95,27.79,387.16,27.58,387.16,27.58z"/>
	<path style="clip-path:url(#SVGID_00000099629594208178858650000009502855453940360622_);" d="M390.71,27.72
		c-1.52-15.62-3.05-31.23-4.57-46.85c0.63-0.09,1.27-0.19,1.9-0.28c1.93,15.7,3.85,31.41,5.78,47.11c0,0,0.25-0.16,0.25-0.16
		c-1.2,0-2.4-0.01-3.6-0.01L390.71,27.72z"/>
	<path style="clip-path:url(#SVGID_00000099629594208178858650000009502855453940360622_);" d="M398.97,52.83
		c1.11,8.51,2.22,17.02,3.33,25.53c0,0,0.24-0.28,0.24-0.28c-1.76,0-3.52,0.01-5.28,0.01c0,0,0.24,0.23,0.24,0.23
		c-1.14-8.51-2.28-17.01-3.41-25.52l-0.21,0.24c1.77-0.01,3.54-0.01,5.31-0.02L398.97,52.83z"/>
	<path style="clip-path:url(#SVGID_00000099629594208178858650000009502855453940360622_);" d="M163.15,670.75
		c-1.14,8.56-2.28,17.11-3.43,25.67c0,0,0.22-0.2,0.22-0.2c-1.15-1.93-3.3-3.88-3.26-5.79c0.14-6.55,1.06-13.09,1.68-19.64
		c0,0-0.22,0.24-0.22,0.24c1.76,0.01,3.52,0.01,5.28,0.02C163.43,671.05,163.15,670.75,163.15,670.75z"/>
	<path style="clip-path:url(#SVGID_00000099629594208178858650000009502855453940360622_);" d="M392.47,78.13
		c-1.77-0.89-4.95-1.63-5.07-2.7c-0.72-6.58-0.91-13.23-0.8-19.85c0.01-0.87,2.73-1.69,4.19-2.54c0,0-0.25-0.22-0.25-0.22
		c0.56,8.5,1.13,17,1.69,25.5C392.22,78.32,392.47,78.13,392.47,78.13z"/>
	<path style="clip-path:url(#SVGID_00000099629594208178858650000009502855453940360622_);" d="M151.37,696.39
		c-1.23-1.17-3.47-2.3-3.51-3.51c-0.21-6.01-0.17-12.08,0.53-18.04c0.18-1.53,3.07-2.74,4.7-4.11c-0.01-0.01-0.26-0.28-0.27-0.29
		c-0.56,8.71-1.11,17.44-1.67,26.17C151.14,696.62,151.37,696.39,151.37,696.39z"/>
	<path style="clip-path:url(#SVGID_00000099629594208178858650000009502855453940360622_);" d="M393.82,27.69
		c1.64,1.24,4.29,2.2,4.73,3.77c1.64,5.91,2.73,11.99,3.59,18.07c0.13,0.93-2.05,2.19-3.16,3.3c0,0,0.21,0.2,0.21,0.2
		c-1.7-8.5-3.41-16.99-5.11-25.49L393.82,27.69z"/>
	<path style="clip-path:url(#SVGID_00000099629594208178858650000009502855453940360622_);" d="M386.95,27.79
		c1.26-0.02,2.51-0.05,3.77-0.07c0,0-0.24-0.19-0.24-0.19c1.13,8.51,2.26,17.01,3.4,25.52c0,0,0.21-0.24,0.21-0.24
		c-1.18,0-2.36,0.01-3.55,0.01c0,0,0.25,0.22,0.25,0.22c-1.21-8.48-2.42-16.97-3.63-25.45C387.16,27.58,386.95,27.79,386.95,27.79z"
		/>
	<path style="clip-path:url(#SVGID_00000099629594208178858650000009502855453940360622_);" d="M159.72,696.42
		c1.25,0.64,3.63,1.45,3.57,1.9c-1.13,7.43-2.56,14.81-3.93,22.2c-1.01-0.18-2.03-0.36-3.04-0.54c1.21-7.92,2.42-15.85,3.63-23.77
		C159.95,696.22,159.72,696.42,159.72,696.42z"/>
	<path style="clip-path:url(#SVGID_00000099629594208178858650000009502855453940360622_);fill:#FFFFFF;" d="M325.07,574.83
		c1.69,8.49,3.37,16.98,5.06,25.47c-9.39,0-18.77,0-29.67,0c2.18,8.96,4.16,17.14,6.15,25.32c-10.18,0-20.36-0.01-30.54-0.01
		c-1.7-8.14-3.4-16.28-5.3-25.39c9.9,0,18.99,0,29.06,0c-1.29-9.1-2.45-17.25-3.61-25.4C305.84,574.82,315.46,574.82,325.07,574.83z
		"/>
	<path style="clip-path:url(#SVGID_00000099629594208178858650000009502855453940360622_);fill:#FFFFFF;" d="M267.61,575.06
		c0-7.8,0-15.6,0-24.08c8.95-0.48,18.06-0.97,27.17-1.46c0.56,8.51,1.12,17.02,1.69,25.53
		C286.85,575.05,277.23,575.06,267.61,575.06z"/>
	<path style="clip-path:url(#SVGID_00000099629594208178858650000009502855453940360622_);fill:#FFFFFF;" d="M393.88,226.21
		c4.57,0.01,9.14,0.02,13.71,0.03c-1.14,8.5-2.27,17.01-3.41,25.51c-4.41,0-8.83,0-14.21,0
		C391.39,242.55,392.64,234.38,393.88,226.21z"/>
	<path style="clip-path:url(#SVGID_00000099629594208178858650000009502855453940360622_);fill:#FFFFFF;" d="M399.17,103.36
		c0.27,5.86,0.82,11.72,0.72,17.58c-0.1,5.85,2.39,7.51,7.7,5.94c0.56,8.5,1.13,17.01,1.69,25.51c-2.88,0.01-5.76,0.01-8.64,0.02
		c0-8.01,0-16.02,0-24.31c-3.6-0.42-6.02-0.71-8.44-0.99c0.22-6.4,0.6-12.81,0.61-19.21C392.82,103.09,395.04,102.05,399.17,103.36z
		"/>
	<path style="clip-path:url(#SVGID_00000099629594208178858650000009502855453940360622_);fill:#FFFFFF;" d="M397.26,78.09
		c1.76,0,3.52-0.01,5.28-0.01c1.13,8.51,2.27,17.02,3.4,25.54c-2.33,0-4.67,0-7,0.01C398.38,95.11,397.82,86.6,397.26,78.09z"/>
	<path style="clip-path:url(#SVGID_00000099629594208178858650000009502855453940360622_);fill:#FFFFFF;" d="M390.53,52.82
		c1.18,0,2.36-0.01,3.55-0.01c1.14,8.51,2.28,17.01,3.41,25.52c-1.76,0-3.51,0-5.27,0C391.66,69.82,391.1,61.32,390.53,52.82z"/>
	<path style="clip-path:url(#SVGID_00000099629594208178858650000009502855453940360622_);fill:#FFFFFF;" d="M398.93,177.44
		c3.45,0,6.89,0,10.34,0c0.01,8.51,0.01,17.03,0.02,25.54c-4.01-0.01-8.02-0.02-12.02-0.04
		C397.82,194.45,398.38,185.94,398.93,177.44z"/>
	<path style="clip-path:url(#SVGID_00000099629594208178858650000009502855453940360622_);fill:#FFFFFF;" d="M393.87,53.04
		c-1.13-8.51-2.26-17.01-3.4-25.52c1.2,0,2.4,0.01,3.6,0.01c1.7,8.5,3.41,16.99,5.11,25.49C397.41,53.03,395.64,53.04,393.87,53.04z
		"/>
</g>
</svg>
